<svg width="264" height="302" viewBox="0 0 264 302" fill="none" xmlns="http://www.w3.org/2000/svg">
<g clip-path="url(#clip0_4835_2880)">
<path d="M132.347 107.092L170.264 85.1785C170.539 85.0197 170.762 85.1484 170.762 85.466L170.762 144.286C170.762 144.604 170.539 144.99 170.264 145.149L132.347 167.062C132.072 167.221 131.849 167.092 131.849 166.775L131.849 107.955C131.849 107.637 132.072 107.251 132.347 107.092Z" fill="#060606" stroke="#060606" stroke-width="1.5" stroke-linejoin="round"/>
<path d="M93.4345 85.1785L131.352 107.092C131.627 107.251 131.85 107.637 131.85 107.955L131.85 166.775C131.85 167.092 131.627 167.221 131.352 167.062L93.4345 145.149C93.1598 144.99 92.9371 144.604 92.9371 144.286L92.9371 85.466C92.9371 85.1484 93.1598 85.0197 93.4345 85.1785Z" fill="white" stroke="#060606" stroke-width="1.5" stroke-linejoin="round"/>
<path d="M132.347 62.6897L170.264 84.6035C170.539 84.7623 170.539 85.0197 170.264 85.1785L132.347 107.092C132.072 107.251 131.626 107.251 131.352 107.092L93.4341 85.1785C93.1593 85.0197 93.1593 84.7623 93.4341 84.6035L131.352 62.6897C131.626 62.5309 132.072 62.5309 132.347 62.6897Z" fill="#74EB69" stroke="#060606" stroke-width="1.5" stroke-linejoin="round"/>
<path fill-rule="evenodd" clip-rule="evenodd" d="M126.529 81.1396C125.549 81.1396 124.754 81.9347 124.754 82.9162V85.5251C124.754 85.6792 124.773 85.8285 124.81 85.971C124.904 86.9362 125.589 87.8853 126.864 88.6226C129.617 90.2135 134.08 90.2135 136.833 88.6226C138.02 87.9368 138.695 87.0672 138.859 86.1727C138.937 85.9719 138.98 85.7539 138.98 85.5251V82.9162C138.98 81.9347 138.186 81.1396 137.205 81.1396H126.529Z" fill="#2F2F2F"/>
<path d="M124.809 85.9711L125.131 85.8876L125.138 85.913L125.14 85.9392L124.809 85.9711ZM138.857 86.1728L138.53 86.1128L138.536 86.0813L138.547 86.0511L138.857 86.1728ZM124.42 82.9163C124.42 81.7509 125.364 80.8066 126.527 80.8066V81.4729C125.731 81.4729 125.085 82.1191 125.085 82.9163H124.42ZM124.42 85.5252V82.9163H125.085V85.5252H124.42ZM124.487 86.0546C124.443 85.885 124.42 85.7078 124.42 85.5252H125.085C125.085 85.6509 125.101 85.7726 125.131 85.8876L124.487 86.0546ZM126.696 88.9109C125.364 88.1412 124.585 87.1113 124.478 86.0036L125.14 85.9392C125.22 86.7608 125.81 87.6296 127.029 88.334L126.696 88.9109ZM136.998 88.9109C135.559 89.7428 133.694 90.1492 131.847 90.1492C130 90.1492 128.135 89.7428 126.696 88.9109L127.029 88.334C128.343 89.0935 130.086 89.483 131.847 89.483C133.608 89.483 135.351 89.0935 136.666 88.334L136.998 88.9109ZM139.185 86.2327C138.998 87.2543 138.238 88.1945 136.998 88.9109L136.666 88.334C137.799 87.6789 138.39 86.8803 138.53 86.1128L139.185 86.2327ZM139.311 85.5252C139.311 85.7961 139.26 86.0555 139.167 86.294L138.547 86.0511C138.611 85.8885 138.646 85.7118 138.646 85.5252H139.311ZM139.311 82.9163V85.5252H138.646V82.9163H139.311ZM137.204 80.8066C138.368 80.8066 139.311 81.7509 139.311 82.9163H138.646C138.646 82.1191 138 81.4729 137.204 81.4729V80.8066ZM126.527 80.8066H137.204V81.4729H126.527V80.8066Z" fill="#060606"/>
<path d="M136.833 85.4023C139.586 83.8113 139.586 81.2317 136.833 79.6407C134.08 78.0497 129.616 78.0497 126.864 79.6407C124.111 81.2317 124.111 83.8113 126.864 85.4023C129.616 86.9933 134.08 86.9933 136.833 85.4023Z" fill="#060606" stroke="#060606" stroke-width="1.5"/>
<path d="M179.097 164.821L217.014 142.908C217.289 142.749 217.512 142.878 217.512 143.195L217.512 202.015C217.512 202.333 217.289 202.719 217.014 202.878L179.097 224.791C178.822 224.95 178.599 224.821 178.599 224.504L178.599 165.684C178.599 165.366 178.822 164.98 179.097 164.821Z" fill="#060606" stroke="#060606" stroke-width="1.5" stroke-linejoin="round"/>
<path d="M140.185 142.906L178.102 164.819C178.377 164.978 178.6 165.364 178.6 165.682L178.6 224.502C178.6 224.819 178.377 224.948 178.102 224.789L140.185 202.876C139.91 202.717 139.687 202.331 139.687 202.013L139.687 143.193C139.687 142.875 139.91 142.747 140.185 142.906Z" fill="white" stroke="#060606" stroke-width="1.5" stroke-linejoin="round"/>
<path d="M179.097 120.815L217.014 142.729C217.289 142.887 217.289 143.145 217.014 143.303L179.097 165.217C178.822 165.376 178.376 165.376 178.102 165.217L140.184 143.303C139.909 143.145 139.909 142.887 140.184 142.729L178.102 120.815C178.376 120.656 178.822 120.656 179.097 120.815Z" fill="#5EC255" stroke="#060606" stroke-width="1.5" stroke-linejoin="round"/>
<path d="M87.2275 164.82L125.145 142.906C125.42 142.747 125.643 142.876 125.643 143.193L125.643 202.014C125.643 202.331 125.42 202.717 125.145 202.876L87.2275 224.79C86.9528 224.949 86.73 224.82 86.73 224.502L86.73 165.682C86.73 165.365 86.9527 164.979 87.2275 164.82Z" fill="#060606" stroke="#060606" stroke-width="1.5" stroke-linejoin="round"/>
<path d="M48.3173 142.906L86.235 164.82C86.5097 164.978 86.7324 165.365 86.7324 165.682L86.7324 224.502C86.7324 224.82 86.5097 224.949 86.235 224.79L48.3173 202.876C48.0426 202.717 47.8199 202.331 47.8199 202.013L47.8199 143.193C47.8199 142.876 48.0426 142.747 48.3173 142.906Z" fill="white" stroke="#060606" stroke-width="1.5" stroke-linejoin="round"/>
<path d="M87.2275 120.417L125.145 142.331C125.42 142.49 125.42 142.747 125.145 142.906L87.2275 164.82C86.9527 164.979 86.5073 164.979 86.2326 164.82L48.3149 142.906C48.0402 142.747 48.0402 142.49 48.3149 142.331L86.2326 120.417C86.5073 120.258 86.9527 120.258 87.2275 120.417Z" fill="#5EC255" stroke="#060606" stroke-width="1.5" stroke-linejoin="round"/>
<path d="M132.618 198.982L170.536 177.068C170.81 176.909 171.033 177.038 171.033 177.356L171.033 236.176C171.033 236.493 170.81 236.879 170.536 237.038L132.618 258.952C132.343 259.111 132.121 258.982 132.121 258.664L132.121 199.844C132.121 199.527 132.343 199.141 132.618 198.982Z" fill="#060606" stroke="#060606" stroke-width="1.5" stroke-linejoin="round"/>
<path d="M93.7079 177.067L131.626 198.981C131.9 199.14 132.123 199.526 132.123 199.844L132.123 258.664C132.123 258.981 131.9 259.11 131.626 258.951L93.7079 237.037C93.4332 236.879 93.2105 236.492 93.2105 236.175L93.2105 177.355C93.2105 177.037 93.4332 176.909 93.7079 177.067Z" fill="white" stroke="#060606" stroke-width="1.5" stroke-linejoin="round"/>
<path d="M132.618 154.579L170.536 176.493C170.81 176.652 170.81 176.909 170.536 177.068L132.618 198.982C132.343 199.141 131.898 199.141 131.623 198.982L93.7056 177.068C93.4308 176.909 93.4308 176.652 93.7056 176.493L131.623 154.579C131.898 154.421 132.343 154.421 132.618 154.579Z" fill="#74EB69" stroke="#060606" stroke-width="1.5" stroke-linejoin="round"/>
<path d="M39.8525 210.433L77.7701 188.519C78.0449 188.36 78.2676 188.489 78.2676 188.806L78.2676 487.339C78.2676 487.656 78.0449 488.042 77.7701 488.201L39.8525 510.115C39.5778 510.274 39.355 510.145 39.355 509.828L39.355 211.295C39.355 210.978 39.5777 210.591 39.8525 210.433Z" fill="#060606" stroke="#060606" stroke-width="1.5" stroke-linejoin="round"/>
<path d="M0.942315 188.517L38.86 210.431C39.1347 210.59 39.3574 210.976 39.3574 211.294L39.3574 509.938C39.3574 510.255 39.1347 510.384 38.86 510.225L0.942309 488.312C0.667586 488.153 0.444875 487.767 0.444875 487.449L0.444882 188.805C0.444882 188.487 0.667592 188.359 0.942315 188.517Z" fill="white" stroke="#060606" stroke-width="1.5" stroke-linejoin="round"/>
<path d="M39.8525 166.03L77.7701 187.944C78.0449 188.103 78.0449 188.36 77.7701 188.519L39.8525 210.433C39.5777 210.591 39.1323 210.591 38.8576 210.433L0.939932 188.519C0.665209 188.36 0.665209 188.103 0.939932 187.944L38.8576 166.03C39.1323 165.871 39.5777 165.871 39.8525 166.03Z" fill="#5EC255" stroke="#060606" stroke-width="1.5" stroke-linejoin="round"/>
<path d="M86.954 247.76L124.872 225.846C125.146 225.687 125.369 225.816 125.369 226.134L125.369 467.134C125.369 467.451 125.146 467.837 124.872 467.996L86.954 489.91C86.6793 490.069 86.4566 489.94 86.4566 489.623L86.4566 248.622C86.4566 248.305 86.6793 247.919 86.954 247.76Z" fill="#060606" stroke="#060606" stroke-width="1.5" stroke-linejoin="round"/>
<path d="M48.0458 225.845L85.9635 247.759C86.2382 247.918 86.4609 248.304 86.4609 248.622L86.4609 489.639C86.4609 489.957 86.2382 490.085 85.9635 489.927L48.0458 468.013C47.7711 467.854 47.5484 467.468 47.5484 467.15L47.5484 226.133C47.5484 225.815 47.7711 225.687 48.0458 225.845Z" fill="white" stroke="#060606" stroke-width="1.5" stroke-linejoin="round"/>
<path d="M86.954 203.357L124.872 225.271C125.146 225.43 125.146 225.687 124.872 225.846L86.954 247.76C86.6793 247.919 86.2339 247.919 85.9592 247.76L48.0415 225.846C47.7668 225.687 47.7668 225.43 48.0415 225.271L85.9592 203.357C86.2339 203.199 86.6793 203.199 86.954 203.357Z" fill="#5EC255" stroke="#060606" stroke-width="1.5" stroke-linejoin="round"/>
<path d="M225.11 202.958L263.028 181.044C263.303 180.886 263.525 181.014 263.525 181.332L263.525 447.445C263.525 447.763 263.303 448.149 263.028 448.308L225.11 470.222C224.836 470.38 224.613 470.252 224.613 469.934L224.613 203.821C224.613 203.503 224.836 203.117 225.11 202.958Z" fill="#060606" stroke="#060606" stroke-width="1.5" stroke-linejoin="round"/>
<path d="M186.198 181.044L224.116 202.958C224.391 203.117 224.613 203.503 224.613 203.82L224.613 469.964C224.613 470.282 224.391 470.41 224.116 470.251L186.198 448.338C185.923 448.179 185.701 447.793 185.701 447.475L185.701 181.332C185.701 181.014 185.923 180.885 186.198 181.044Z" fill="white" stroke="#060606" stroke-width="1.5" stroke-linejoin="round"/>
<path d="M225.108 158.377L263.026 180.291C263.301 180.449 263.301 180.707 263.026 180.866L225.108 202.779C224.834 202.938 224.388 202.938 224.113 202.779L186.196 180.866C185.921 180.707 185.921 180.449 186.196 180.291L224.113 158.377C224.388 158.218 224.834 158.218 225.108 158.377Z" fill="#5EC255" stroke="#060606" stroke-width="1.5" stroke-linejoin="round"/>
<path d="M178.28 247.76L216.198 225.846C216.473 225.687 216.695 225.816 216.695 226.134L216.695 442.414C216.695 442.731 216.473 443.117 216.198 443.276L178.28 465.19C178.005 465.349 177.783 465.22 177.783 464.902L177.783 248.622C177.783 248.305 178.005 247.919 178.28 247.76Z" fill="#060606" stroke="#060606" stroke-width="1.5" stroke-linejoin="round"/>
<path d="M139.368 225.846L177.286 247.759C177.56 247.918 177.783 248.304 177.783 248.622L177.783 464.904C177.783 465.222 177.56 465.35 177.286 465.192L139.368 443.278C139.093 443.119 138.871 442.733 138.871 442.415L138.871 226.133C138.871 225.816 139.093 225.687 139.368 225.846Z" fill="white" stroke="#060606" stroke-width="1.5" stroke-linejoin="round"/>
<path d="M178.28 203.357L216.198 225.271C216.473 225.43 216.473 225.687 216.198 225.846L178.28 247.76C178.005 247.919 177.56 247.919 177.285 247.76L139.368 225.846C139.093 225.687 139.093 225.43 139.368 225.271L177.285 203.357C177.56 203.199 178.005 203.199 178.28 203.357Z" fill="#5EC255" stroke="#060606" stroke-width="1.5" stroke-linejoin="round"/>
<path d="M132.165 286.685L170.083 264.771C170.357 264.612 170.58 264.741 170.58 265.058L170.58 461.531C170.58 461.848 170.357 462.234 170.083 462.393L132.165 484.307C131.89 484.466 131.668 484.337 131.668 484.019L131.668 287.547C131.668 287.23 131.89 286.844 132.165 286.685Z" fill="#060606" stroke="#060606" stroke-width="1.5" stroke-linejoin="round"/>
<path d="M93.2548 264.77L131.172 286.684C131.447 286.843 131.67 287.229 131.67 287.546L131.67 484.126C131.67 484.443 131.447 484.572 131.172 484.413L93.2548 462.499C92.9801 462.34 92.7574 461.954 92.7574 461.637L92.7574 265.058C92.7574 264.74 92.9801 264.611 93.2548 264.77Z" fill="white" stroke="#060606" stroke-width="1.5" stroke-linejoin="round"/>
<path d="M132.165 242.282L170.083 264.196C170.357 264.355 170.357 264.612 170.083 264.771L132.165 286.685C131.89 286.844 131.445 286.844 131.17 286.685L93.2524 264.771C92.9777 264.612 92.9777 264.355 93.2524 264.196L131.17 242.282C131.445 242.123 131.89 242.123 132.165 242.282Z" fill="#74EB69" stroke="#060606" stroke-width="1.5" stroke-linejoin="round"/>
<path d="M186.308 30.0122C178.855 31.4883 171.401 35.5023 164.002 39.487C162.483 40.3051 160.966 41.1221 159.452 41.9155C150.621 46.5431 141.882 50.3774 133.172 49.2684V10.8474C142.21 17.5853 151.248 19.1457 160.231 20.0482C161.543 20.1799 162.852 20.2977 164.16 20.4153C171.998 21.1203 179.769 21.8194 187.548 25.4876C188.482 25.928 188.749 26.8971 188.473 27.89C188.193 28.889 187.383 29.7992 186.308 30.0122Z" fill="white" stroke="#060606" stroke-width="1.5"/>
<mask id="mask0_4835_2880" style="mask-type:alpha" maskUnits="userSpaceOnUse" x="132" y="9" width="58" height="42">
<path d="M186.308 30.0122C178.855 31.4883 171.401 35.5023 164.002 39.487C162.483 40.3051 160.966 41.1221 159.452 41.9155C150.621 46.5431 141.882 50.3774 133.172 49.2684V10.8474C142.21 17.5853 151.248 19.1457 160.231 20.0482C161.543 20.1799 162.852 20.2977 164.16 20.4153C171.998 21.1203 179.769 21.8194 187.548 25.4876C188.482 25.928 188.749 26.8971 188.473 27.89C188.193 28.889 187.383 29.7992 186.308 30.0122Z" fill="white" stroke="#060606" stroke-width="1.5"/>
</mask>
<g mask="url(#mask0_4835_2880)">
<path d="M158.093 0.821671L124.291 -3.7605L116 57.5271L149.802 62.1092L158.093 0.821671Z" fill="#74EB69"/>
</g>
<path d="M186.308 30.0122C178.855 31.4883 171.401 35.5023 164.002 39.487C162.483 40.3051 160.966 41.1221 159.452 41.9155C150.621 46.5431 141.882 50.3774 133.172 49.2684V10.8474C142.21 17.5853 151.248 19.1457 160.231 20.0482C161.543 20.1799 162.852 20.2977 164.16 20.4153C171.998 21.1203 179.769 21.8194 187.548 25.4876C188.482 25.928 188.749 26.8971 188.473 27.89C188.193 28.889 187.383 29.7992 186.308 30.0122Z" stroke="#060606" stroke-width="1.5"/>
<path d="M133.321 3.18466C133.321 2.38976 132.677 1.74536 131.883 1.74536C131.089 1.74536 130.445 2.38976 130.445 3.18466V82.3927C130.445 83.1876 131.089 83.832 131.883 83.832C132.677 83.832 133.321 83.1876 133.321 82.3927V3.18466Z" fill="#717172" stroke="#060606" stroke-width="1.5"/>
<path d="M131.881 10.7149C134.745 10.7149 137.067 8.39081 137.067 5.52394C137.067 2.65707 134.745 0.333008 131.881 0.333008C129.017 0.333008 126.695 2.65707 126.695 5.52394C126.695 8.39081 129.017 10.7149 131.881 10.7149Z" fill="#5EC255" stroke="#060606" stroke-width="1.5"/>
</g>
<defs>
<clipPath id="clip0_4835_2880">
<rect width="264" height="302" fill="white"/>
</clipPath>
</defs>
</svg>