<svg width="80" height="80" viewBox="0 0 80 80" fill="none" xmlns="http://www.w3.org/2000/svg">
<g clip-path="url(#clip0_4835_2924)">
<path d="M40 80C62.0914 80 80 62.0914 80 40C80 17.9086 62.0914 0 40 0C17.9086 0 0 17.9086 0 40C0 62.0914 17.9086 80 40 80Z" fill="#1F1F1F"/>
<path d="M11.9863 40.2723C11.9863 45.8584 13.6217 51.319 16.6857 55.9636C19.7497 60.6082 24.1046 64.2282 29.1997 66.366C34.2949 68.5037 39.9015 69.063 45.3105 67.9732C50.7196 66.8834 55.688 64.1934 59.5877 60.2435C63.4874 56.2936 66.1431 51.2611 67.219 45.7824C68.2949 40.3037 67.7427 34.6249 65.6323 29.464C63.5218 24.3032 59.9478 19.8922 55.3622 16.7887C50.7767 13.6853 45.3855 12.0288 39.8706 12.0288C24.4578 12.0733 11.9863 24.7054 11.9863 40.2723Z" fill="#060606"/>
<path d="M11.3926 40.2724C11.3926 45.9767 13.0626 51.5531 16.1916 56.2964L17.1804 55.631C14.1815 51.085 12.5807 45.7401 12.5807 40.2724H11.3926ZM16.1916 56.2964C19.3207 61.0396 23.7683 64.7368 28.9721 66.9201L29.4279 65.8119C24.4415 63.7199 20.1793 60.1769 17.1804 55.631L16.1916 56.2964ZM28.9721 66.9201C34.1761 69.1034 39.9024 69.6747 45.427 68.5616L45.1946 67.3848C39.9012 68.4513 34.4144 67.904 29.4279 65.8119L28.9721 66.9201ZM45.427 68.5616C50.9516 67.4486 56.026 64.7012 60.0087 60.6672L59.1673 59.82C55.3506 63.6858 50.488 66.3183 45.1946 67.3848L45.427 68.5616ZM60.0087 60.6672C63.9913 56.6333 66.7033 51.494 67.802 45.8992L66.6366 45.6657C65.5835 51.0284 62.984 55.954 59.1673 59.82L60.0087 60.6672ZM67.802 45.8992C68.9007 40.3044 68.3368 34.5052 66.1816 29.235L65.0835 29.6931C67.1493 34.7445 67.6898 40.3031 66.6366 45.6657L67.802 45.8992ZM66.1816 29.235C64.0264 23.9648 60.3765 19.4599 55.6933 16.2903L55.0319 17.2872C59.5196 20.3245 63.0178 24.6417 65.0835 29.6931L66.1816 29.235ZM55.6933 16.2903C51.0099 13.1208 45.5037 11.4288 39.8709 11.4288V12.6288C45.268 12.6288 50.544 14.2499 55.0319 17.2872L55.6933 16.2903ZM39.8692 11.4288C24.1289 11.4743 11.3926 24.3747 11.3926 40.2724H12.5807C12.5807 25.036 24.7872 12.6724 39.8726 12.6288L39.8692 11.4288Z" fill="#060606"/>
<path d="M39.8689 12.0842C25.4436 12.0842 13.7495 23.8952 13.7495 38.4648C13.7495 53.0344 25.4436 64.8453 39.8689 64.8453C54.2942 64.8453 65.9883 53.0344 65.9883 38.4648C65.9883 23.8952 54.2942 12.0842 39.8689 12.0842Z" fill="#2F2F2F" stroke="#060606" stroke-width="1.2"/>
<path d="M18.707 38.467C18.707 42.6946 19.9482 46.8273 22.2737 50.3424C24.5992 53.8575 27.9044 56.5973 31.7716 58.2151C35.6387 59.833 39.894 60.2562 43.9993 59.4314C48.1046 58.6067 51.8756 56.5709 54.8353 53.5815C57.7951 50.5922 59.8107 46.7835 60.6273 42.6371C61.4439 38.4907 61.0248 34.193 59.423 30.2871C57.8212 26.3814 55.1086 23.043 51.6283 20.6942C48.148 18.3455 44.0563 17.0919 39.8705 17.0919C28.1822 17.0919 18.707 26.6619 18.707 38.467Z" fill="white" stroke="#060606" stroke-width="1.2"/>
<mask id="mask0_4835_2924" style="mask-type:alpha" maskUnits="userSpaceOnUse" x="18" y="16" width="44" height="45">
<path d="M18.7051 38.4655C18.7051 42.6931 19.9463 46.8258 22.2718 50.3409C24.5973 53.856 27.9025 56.5957 31.7696 58.2135C35.6368 59.8314 39.8921 60.2547 43.9974 59.4299C48.1027 58.6051 51.8736 56.5694 54.8335 53.58C57.7932 50.5906 59.8088 46.7819 60.6254 42.6356C61.442 38.4892 61.0229 34.1914 59.4211 30.2856C57.8193 26.3798 55.1067 23.0415 51.6264 20.6927C48.1461 18.344 44.0543 17.0903 39.8686 17.0903C28.1803 17.0903 18.7051 26.6603 18.7051 38.4655Z" fill="white" stroke="#060606" stroke-width="1.2"/>
</mask>
<g mask="url(#mask0_4835_2924)">
<path d="M65.6489 39.3171H14.7344V69.0431H65.6489V39.3171Z" fill="#74EB69"/>
</g>
<path d="M18.707 38.467C18.707 42.6946 19.9482 46.8273 22.2737 50.3424C24.5992 53.8575 27.9044 56.5973 31.7716 58.2151C35.6387 59.833 39.894 60.2562 43.9993 59.4314C48.1046 58.6067 51.8756 56.5709 54.8353 53.5815C57.7951 50.5922 59.8107 46.7835 60.6273 42.6371C61.4439 38.4907 61.0248 34.193 59.423 30.2871C57.8212 26.3814 55.1086 23.043 51.6283 20.6942C48.148 18.3455 44.0563 17.0919 39.8705 17.0919C28.1822 17.0919 18.707 26.6619 18.707 38.467Z" stroke="#060606" stroke-width="1.2"/>
<path d="M40.8335 39.0182C40.8335 39.7528 40.2438 40.3484 39.5164 40.3484C38.7889 40.3484 38.1992 39.7528 38.1992 39.0182V26.5725C38.1992 25.8378 38.7889 25.2422 39.5164 25.2422C40.2438 25.2422 40.8335 25.8378 40.8335 26.5725V39.0182Z" fill="#060606"/>
<path d="M38.1992 39.3181V39.3181C38.1992 40.0528 38.7889 40.6484 39.5164 40.6484H54.7445C55.4719 40.6484 56.0616 40.0528 56.0616 39.3181C56.0616 38.5834 55.4719 37.9878 54.7445 37.9878H39.5164C38.7889 37.9878 38.1992 38.5834 38.1992 39.3181Z" fill="#5EC255"/>
</g>
<defs>
<clipPath id="clip0_4835_2924">
<rect width="80" height="80" fill="white"/>
</clipPath>
</defs>
</svg>