<svg width="80" height="80" viewBox="0 0 80 80" fill="none" xmlns="http://www.w3.org/2000/svg">
<g clip-path="url(#clip0_4835_2838)">
<path d="M40 80C62.0914 80 80 62.0914 80 40C80 17.9086 62.0914 0 40 0C17.9086 0 0 17.9086 0 40C0 62.0914 17.9086 80 40 80Z" fill="#1F1F1F"/>
<path fill-rule="evenodd" clip-rule="evenodd" d="M50.4436 31.3856C49.382 29.4519 47.5232 27.6324 44.8671 26.099C36.0181 20.99 21.671 20.99 12.8218 26.099C10.1658 27.6324 8.30703 29.4519 7.24543 31.3856H6.18359V35.1719H6.18719C6.10743 38.579 8.31903 42.0006 12.8218 44.6004C21.671 49.7093 36.0181 49.7093 44.8671 44.6004C49.37 42.0006 51.5816 38.579 51.5018 35.1719H51.5193V31.3856H50.4436Z" fill="#74EB69"/>
<path d="M50.442 31.3856L49.9161 31.6744L50.087 31.9856H50.442V31.3856ZM7.24387 31.3856V31.9856H7.59891L7.76979 31.6744L7.24387 31.3856ZM6.18203 31.3856V30.7856H5.58203V31.3856H6.18203ZM6.18203 35.1719H5.58203V35.7719H6.18203V35.1719ZM6.18563 35.1719L6.78539 35.1859L6.79979 34.5719H6.18563V35.1719ZM51.5003 35.1719V34.5719H50.8861L50.9004 35.1859L51.5003 35.1719ZM51.5177 35.1719V35.7719H52.1177V35.1719H51.5177ZM51.5177 31.3856H52.1177V30.7856H51.5177V31.3856ZM44.5656 26.6186C47.152 28.1119 48.9198 29.8596 49.9161 31.6744L50.968 31.0968C49.8411 29.0441 47.8912 27.153 45.1656 25.5794L44.5656 26.6186ZM13.1203 26.6186C17.4322 24.1292 23.1213 22.8672 28.8429 22.8672C34.5646 22.8672 40.2537 24.1292 44.5656 26.6186L45.1656 25.5794C40.6284 22.9598 34.7194 21.6672 28.8429 21.6672C22.9665 21.6672 17.0575 22.9598 12.5203 25.5794L13.1203 26.6186ZM7.76979 31.6744C8.76603 29.8596 10.5339 28.1119 13.1203 26.6186L12.5203 25.5794C9.79475 27.153 7.84483 29.0441 6.71787 31.0968L7.76979 31.6744ZM6.18203 31.9856H7.24387V30.7856H6.18203V31.9856ZM6.78203 35.1719V31.3856H5.58203V35.1719H6.78203ZM6.18563 34.5719H6.18203V35.7719H6.18563V34.5719ZM13.1203 44.0807C8.72859 41.5452 6.71267 38.2956 6.78539 35.1859L5.58579 35.1578C5.49907 38.8623 7.90627 42.456 12.5203 45.12L13.1203 44.0807ZM44.5656 44.0807C40.2537 46.5702 34.5646 47.8321 28.8429 47.8321C23.1213 47.8321 17.4322 46.5702 13.1203 44.0807L12.5203 45.12C17.0575 47.7395 22.9665 49.0321 28.8429 49.0321C34.7194 49.0321 40.6284 47.7395 45.1656 45.12L44.5656 44.0807ZM50.9004 35.1859C50.9732 38.2956 48.9572 41.5452 44.5656 44.0807L45.1656 45.12C49.7796 42.456 52.1868 38.8623 52.1001 35.1578L50.9004 35.1859ZM51.5177 34.5719H51.5003V35.7719H51.5177V34.5719ZM50.9177 31.3856V35.1719H52.1177V31.3856H50.9177ZM50.442 31.9856H51.5177V30.7856H50.442V31.9856Z" fill="#060606"/>
<mask id="mask0_4835_2838" style="mask-type:alpha" maskUnits="userSpaceOnUse" x="5" y="20" width="48" height="29">
<path fill-rule="evenodd" clip-rule="evenodd" d="M50.4416 30.6449C49.38 28.7111 47.5212 26.8917 44.8652 25.3583C36.0161 20.2492 21.669 20.2492 12.8199 25.3583C10.1639 26.8917 8.30508 28.7111 7.24348 30.6449H6.18164V34.4312H6.18524C6.10548 37.8383 8.31708 41.2599 12.8199 43.8596C21.669 48.9686 36.0161 48.9686 44.8652 43.8596C49.368 41.2599 51.5796 37.8383 51.4999 34.4312H51.5173V30.6449H50.4416Z" fill="#71A407"/>
<path d="M50.442 30.6449L49.9161 30.9336L50.087 31.2449H50.442V30.6449ZM7.24387 30.6449V31.2449H7.59891L7.76979 30.9336L7.24387 30.6449ZM6.18203 30.6449V30.0449H5.58203V30.6449H6.18203ZM6.18203 34.4312H5.58203V35.0312H6.18203V34.4312ZM6.18563 34.4312L6.78539 34.4452L6.79979 33.8312H6.18563V34.4312ZM51.5003 34.4312V33.8312H50.8861L50.9004 34.4452L51.5003 34.4312ZM51.5177 34.4312V35.0312H52.1177V34.4312H51.5177ZM51.5177 30.6449H52.1177V30.0449H51.5177V30.6449ZM44.5656 25.8779C47.152 27.3712 48.9198 29.1189 49.9161 30.9336L50.968 30.3561C49.8411 28.3034 47.8912 26.4123 45.1656 24.8387L44.5656 25.8779ZM13.1203 25.8779C17.4322 23.3884 23.1213 22.1265 28.8429 22.1265C34.5646 22.1265 40.2537 23.3884 44.5656 25.8779L45.1656 24.8387C40.6284 22.2191 34.7194 20.9265 28.8429 20.9265C22.9665 20.9265 17.0575 22.2191 12.5203 24.8387L13.1203 25.8779ZM7.76979 30.9336C8.76603 29.1189 10.5339 27.3712 13.1203 25.8779L12.5203 24.8387C9.79475 26.4123 7.84483 28.3034 6.71787 30.3561L7.76979 30.9336ZM6.18203 31.2449H7.24387V30.0449H6.18203V31.2449ZM6.78203 34.4312V30.6449H5.58203V34.4312H6.78203ZM6.18563 33.8312H6.18203V35.0312H6.18563V33.8312ZM13.1203 43.34C8.72859 40.8044 6.71267 37.5549 6.78539 34.4452L5.58579 34.4172C5.49907 38.1216 7.90627 41.7153 12.5203 44.3792L13.1203 43.34ZM44.5656 43.34C40.2537 45.8295 34.5646 47.0914 28.8429 47.0914C23.1213 47.0914 17.4322 45.8295 13.1203 43.34L12.5203 44.3792C17.0575 46.9988 22.9665 48.2914 28.8429 48.2914C34.7194 48.2914 40.6284 46.9988 45.1656 44.3792L44.5656 43.34ZM50.9004 34.4452C50.9732 37.5549 48.9572 40.8044 44.5656 43.34L45.1656 44.3792C49.7796 41.7153 52.1868 38.1216 52.1001 34.4172L50.9004 34.4452ZM51.5177 33.8312H51.5003V35.0312H51.5177V33.8312ZM50.9177 30.6449V34.4312H52.1177V30.6449H50.9177ZM50.442 31.2449H51.5177V30.0449H50.442V31.2449Z" fill="#060606"/>
</mask>
<g mask="url(#mask0_4835_2838)">
<path d="M6.18332 30.6453H28.8516V49.1463H6.18332V30.6453Z" fill="#74EB69"/>
</g>
<path d="M50.442 31.3856L49.9161 31.6744L50.087 31.9856H50.442V31.3856ZM7.24387 31.3856V31.9856H7.59891L7.76979 31.6744L7.24387 31.3856ZM6.18203 31.3856V30.7856H5.58203V31.3856H6.18203ZM6.18203 35.1719H5.58203V35.7719H6.18203V35.1719ZM6.18563 35.1719L6.78539 35.1859L6.79979 34.5719H6.18563V35.1719ZM51.5003 35.1719V34.5719H50.8861L50.9004 35.1859L51.5003 35.1719ZM51.5177 35.1719V35.7719H52.1177V35.1719H51.5177ZM51.5177 31.3856H52.1177V30.7856H51.5177V31.3856ZM44.5656 26.6186C47.152 28.1119 48.9198 29.8596 49.9161 31.6744L50.968 31.0968C49.8411 29.0441 47.8912 27.153 45.1656 25.5794L44.5656 26.6186ZM13.1203 26.6186C17.4322 24.1292 23.1213 22.8672 28.8429 22.8672C34.5646 22.8672 40.2537 24.1292 44.5656 26.6186L45.1656 25.5794C40.6284 22.9598 34.7194 21.6672 28.8429 21.6672C22.9665 21.6672 17.0575 22.9598 12.5203 25.5794L13.1203 26.6186ZM7.76979 31.6744C8.76603 29.8596 10.5339 28.1119 13.1203 26.6186L12.5203 25.5794C9.79475 27.153 7.84483 29.0441 6.71787 31.0968L7.76979 31.6744ZM6.18203 31.9856H7.24387V30.7856H6.18203V31.9856ZM6.78203 35.1719V31.3856H5.58203V35.1719H6.78203ZM6.18563 34.5719H6.18203V35.7719H6.18563V34.5719ZM13.1203 44.0807C8.72859 41.5452 6.71267 38.2956 6.78539 35.1859L5.58579 35.1578C5.49907 38.8623 7.90627 42.456 12.5203 45.12L13.1203 44.0807ZM44.5656 44.0807C40.2537 46.5702 34.5646 47.8321 28.8429 47.8321C23.1213 47.8321 17.4322 46.5702 13.1203 44.0807L12.5203 45.12C17.0575 47.7395 22.9665 49.0321 28.8429 49.0321C34.7194 49.0321 40.6284 47.7395 45.1656 45.12L44.5656 44.0807ZM50.9004 35.1859C50.9732 38.2956 48.9572 41.5452 44.5656 44.0807L45.1656 45.12C49.7796 42.456 52.1868 38.8623 52.1001 35.1578L50.9004 35.1859ZM51.5177 34.5719H51.5003V35.7719H51.5177V34.5719ZM50.9177 31.3856V35.1719H52.1177V31.3856H50.9177ZM50.442 31.9856H51.5177V30.7856H50.442V31.9856Z" fill="#060606"/>
<path d="M44.8687 39.1835C53.7178 34.0745 53.7178 25.7912 44.8687 20.6822C36.0196 15.5732 21.6725 15.5732 12.8234 20.6822C3.97436 25.7912 3.97436 34.0745 12.8234 39.1835C21.6725 44.2926 36.0196 44.2926 44.8687 39.1835Z" fill="white" stroke="#060606" stroke-width="1.2"/>
<path fill-rule="evenodd" clip-rule="evenodd" d="M73.1194 46.184C72.0578 44.2503 70.199 42.4308 67.5429 40.8974C58.6939 35.7884 44.3467 35.7884 35.4976 40.8974C32.8416 42.4308 30.9828 44.2503 29.9212 46.184H28.8594V49.9703H28.863C28.7832 53.3774 30.9948 56.7991 35.4976 59.3988C44.3467 64.5078 58.6939 64.5078 67.5429 59.3988C72.0458 56.7991 74.2574 53.3774 74.1776 49.9703H74.1951V46.184H73.1194Z" fill="#74EB69"/>
<path d="M73.1198 46.184L72.5938 46.4727L72.7647 46.784H73.1198V46.184ZM29.9216 46.184V46.784H30.2766L30.4475 46.4727L29.9216 46.184ZM28.8598 46.184V45.584H28.2598V46.184H28.8598ZM28.8598 49.9702H28.2598V50.5702H28.8598V49.9702ZM28.8634 49.9702L29.4631 49.9843L29.4775 49.3702H28.8634V49.9702ZM74.178 49.9702V49.3702H73.5638L73.5782 49.9843L74.178 49.9702ZM74.1954 49.9702V50.5702H74.7954V49.9702H74.1954ZM74.1954 46.184H74.7954V45.584H74.1954V46.184ZM67.2433 41.4169C69.8298 42.9103 71.5975 44.658 72.5938 46.4727L73.6458 45.8953C72.5188 43.8425 70.5689 41.9513 67.8433 40.3777L67.2433 41.4169ZM35.798 41.4169C40.1099 38.9275 45.799 37.6656 51.5206 37.6656C57.2423 37.6656 62.9314 38.9275 67.2433 41.4169L67.8433 40.3777C63.3061 37.7582 57.3971 36.4656 51.5206 36.4656C45.6442 36.4656 39.7353 37.7582 35.198 40.3777L35.798 41.4169ZM30.4475 46.4727C31.4438 44.658 33.2116 42.9103 35.798 41.4169L35.198 40.3777C32.4725 41.9513 30.5226 43.8425 29.3956 45.8953L30.4475 46.4727ZM28.8598 46.784H29.9216V45.584H28.8598V46.784ZM29.4598 49.9702V46.184H28.2598V49.9702H29.4598ZM28.8634 49.3702H28.8598V50.5702H28.8634V49.3702ZM35.798 58.8791C31.4063 56.3436 29.3904 53.0941 29.4631 49.9843L28.2635 49.9562C28.1768 53.6606 30.584 57.2545 35.198 59.9183L35.798 58.8791ZM67.2433 58.8791C62.9314 61.3685 57.2423 62.6305 51.5206 62.6305C45.799 62.6305 40.1099 61.3685 35.798 58.8791L35.198 59.9183C39.7352 62.5379 45.6442 63.8305 51.5206 63.8305C57.3971 63.8305 63.3061 62.5379 67.8433 59.9183L67.2433 58.8791ZM73.5782 49.9843C73.651 53.0941 71.635 56.3436 67.2433 58.8791L67.8433 59.9183C72.4574 57.2545 74.8646 53.6606 74.7778 49.9562L73.5782 49.9843ZM74.1954 49.3702H74.178V50.5702H74.1954V49.3702ZM73.5954 46.184V49.9702H74.7954V46.184H73.5954ZM73.1198 46.784H74.1954V45.584H73.1198V46.784Z" fill="#060606"/>
<mask id="mask1_4835_2838" style="mask-type:alpha" maskUnits="userSpaceOnUse" x="28" y="35" width="47" height="29">
<path fill-rule="evenodd" clip-rule="evenodd" d="M73.1174 45.4419C72.0558 43.5081 70.197 41.6887 67.5409 40.1553C58.6919 35.0462 44.3448 35.0462 35.4957 40.1553C32.8397 41.6887 30.9809 43.5081 29.9193 45.4419H28.8574V49.2281H28.861C28.7813 52.6353 30.9929 56.0569 35.4957 58.6566C44.3448 63.7656 58.6919 63.7656 67.5409 58.6566C72.0438 56.0569 74.2554 52.6353 74.1757 49.2281H74.1931V45.4419H73.1174Z" fill="#71A407"/>
<path d="M73.1178 45.4419L72.5919 45.7306L72.7628 46.0419H73.1178V45.4419ZM29.9197 45.4419V46.0419H30.2747L30.4456 45.7306L29.9197 45.4419ZM28.8578 45.4419V44.8419H28.2578V45.4419H28.8578ZM28.8578 49.2282H28.2578V49.8282H28.8578V49.2282ZM28.8614 49.2282L29.4612 49.2421L29.4756 48.6281H28.8614V49.2282ZM74.1761 49.2282V48.6281H73.5619L73.5762 49.2421L74.1761 49.2282ZM74.1935 49.2282V49.8282H74.7935V49.2282H74.1935ZM74.1935 45.4419H74.7935V44.8419H74.1935V45.4419ZM67.2413 40.6749C69.8278 42.1681 71.5956 43.9159 72.5919 45.7306L73.6438 45.1531C72.5169 43.1004 70.5669 41.2093 67.8413 39.6357L67.2413 40.6749ZM35.7961 40.6749C40.108 38.1854 45.7971 36.9235 51.5187 36.9235C57.2404 36.9235 62.9295 38.1854 67.2413 40.6749L67.8413 39.6357C63.3041 37.0161 57.3952 35.7235 51.5187 35.7235C45.6423 35.7235 39.7333 37.0161 35.1961 39.6357L35.7961 40.6749ZM30.4456 45.7306C31.4418 43.9159 33.2097 42.1681 35.7961 40.6749L35.1961 39.6357C32.4705 41.2093 30.5206 43.1004 29.3937 45.1531L30.4456 45.7306ZM28.8578 46.0419H29.9197V44.8419H28.8578V46.0419ZM29.4578 49.2282V45.4419H28.2578V49.2282H29.4578ZM28.8614 48.6281H28.8578V49.8282H28.8614V48.6281ZM35.7961 58.137C31.4044 55.6014 29.3885 52.3519 29.4612 49.2421L28.2616 49.2142C28.1749 52.9186 30.5821 56.5123 35.1961 59.1762L35.7961 58.137ZM67.2413 58.137C62.9295 60.6265 57.2404 61.8884 51.5187 61.8884C45.7971 61.8884 40.108 60.6265 35.7961 58.137L35.1961 59.1762C39.7333 61.7957 45.6423 63.0884 51.5187 63.0884C57.3952 63.0884 63.3041 61.7957 67.8413 59.1762L67.2413 58.137ZM73.5762 49.2421C73.649 52.3519 71.633 55.6014 67.2413 58.137L67.8413 59.1762C72.4554 56.5123 74.8626 52.9186 74.7759 49.2142L73.5762 49.2421ZM74.1935 48.6281H74.1761V49.8282H74.1935V48.6281ZM73.5935 45.4419V49.2282H74.7935V45.4419H73.5935ZM73.1178 46.0419H74.1935V44.8419H73.1178V46.0419Z" fill="#060606"/>
</mask>
<g mask="url(#mask1_4835_2838)">
<path d="M28.8591 45.4437H51.5273V63.9448H28.8591V45.4437Z" fill="#74EB69"/>
</g>
<path d="M73.1198 46.184L72.5938 46.4727L72.7647 46.784H73.1198V46.184ZM29.9216 46.184V46.784H30.2766L30.4475 46.4727L29.9216 46.184ZM28.8598 46.184V45.584H28.2598V46.184H28.8598ZM28.8598 49.9702H28.2598V50.5702H28.8598V49.9702ZM28.8634 49.9702L29.4631 49.9843L29.4775 49.3702H28.8634V49.9702ZM74.178 49.9702V49.3702H73.5638L73.5782 49.9843L74.178 49.9702ZM74.1954 49.9702V50.5702H74.7954V49.9702H74.1954ZM74.1954 46.184H74.7954V45.584H74.1954V46.184ZM67.2433 41.4169C69.8298 42.9103 71.5975 44.658 72.5938 46.4727L73.6458 45.8953C72.5188 43.8425 70.5689 41.9513 67.8433 40.3777L67.2433 41.4169ZM35.798 41.4169C40.1099 38.9275 45.799 37.6656 51.5206 37.6656C57.2423 37.6656 62.9314 38.9275 67.2433 41.4169L67.8433 40.3777C63.3061 37.7582 57.3971 36.4656 51.5206 36.4656C45.6442 36.4656 39.7353 37.7582 35.198 40.3777L35.798 41.4169ZM30.4475 46.4727C31.4438 44.658 33.2116 42.9103 35.798 41.4169L35.198 40.3777C32.4725 41.9513 30.5226 43.8425 29.3956 45.8953L30.4475 46.4727ZM28.8598 46.784H29.9216V45.584H28.8598V46.784ZM29.4598 49.9702V46.184H28.2598V49.9702H29.4598ZM28.8634 49.3702H28.8598V50.5702H28.8634V49.3702ZM35.798 58.8791C31.4063 56.3436 29.3904 53.0941 29.4631 49.9843L28.2635 49.9562C28.1768 53.6606 30.584 57.2545 35.198 59.9183L35.798 58.8791ZM67.2433 58.8791C62.9314 61.3685 57.2423 62.6305 51.5206 62.6305C45.799 62.6305 40.1099 61.3685 35.798 58.8791L35.198 59.9183C39.7352 62.5379 45.6442 63.8305 51.5206 63.8305C57.3971 63.8305 63.3061 62.5379 67.8433 59.9183L67.2433 58.8791ZM73.5782 49.9843C73.651 53.0941 71.635 56.3436 67.2433 58.8791L67.8433 59.9183C72.4574 57.2545 74.8646 53.6606 74.7778 49.9562L73.5782 49.9843ZM74.1954 49.3702H74.178V50.5702H74.1954V49.3702ZM73.5954 46.184V49.9702H74.7954V46.184H73.5954ZM73.1198 46.784H74.1954V45.584H73.1198V46.784Z" fill="#060606"/>
<path d="M67.5425 53.9819C76.3916 48.8729 76.3916 40.5895 67.5425 35.4805C58.6935 30.3715 44.3463 30.3715 35.4972 35.4805C26.6482 40.5895 26.6482 48.8729 35.4972 53.9819C44.3463 59.0909 58.6935 59.0909 67.5425 53.9819Z" fill="#74EB69" stroke="#060606" stroke-width="1.2"/>
<path d="M56.3991 39.2889C54.8296 38.0639 52.4323 38.3024 49.8489 39.0296L47.972 37.2263L46.0709 37.8859L47.8983 39.6418C47.3986 39.8151 46.8936 39.9981 46.3921 40.18L44.553 38.4125L42.6527 39.0717L44.5283 40.8747C44.1217 41.0224 43.7221 41.167 43.3281 41.3039L43.322 41.2984L40.6992 42.2075L41.9198 43.3798C41.9198 43.3798 43.3077 42.8772 43.2999 42.9002C44.0701 42.6332 44.5894 42.8044 44.8941 43.0018L47.0323 45.0562C47.0856 45.0379 47.1563 45.0151 47.2412 44.9941C47.1779 45.0162 47.1099 45.0394 47.0406 45.0639L50.0353 47.9421C50.1471 48.0938 50.2368 48.3662 49.6994 48.5534C49.7367 48.5574 48.3171 49.0327 48.3171 49.0327L49.3036 50.4746L51.7777 49.6162C52.2385 49.4569 52.6962 49.3042 53.1427 49.1515L55.0416 50.9751L56.941 50.3165L55.0628 48.5119C55.5908 48.3372 56.0979 48.1646 56.5903 47.9934L58.4589 49.7899L60.36 49.1303L58.4659 47.3094C61.552 46.0947 63.3053 44.8538 61.7796 43.0244C60.5516 41.5511 58.7667 41.3229 56.6904 41.7008C57.4555 40.9943 57.5504 40.1842 56.3991 39.2889ZM57.7979 44.1114C59.2175 45.4741 55.0139 46.7214 53.7261 47.169L51.2116 44.7524C52.5007 44.3054 56.3186 42.6898 57.7979 44.1114ZM53.3655 41.0089C54.6554 42.2491 51.1336 43.2739 50.0604 43.6462L47.7796 41.4546C48.8528 41.0822 52.0191 39.7155 53.3655 41.0089Z" fill="#060606"/>
<path fill-rule="evenodd" clip-rule="evenodd" d="M73.1194 40.6372C72.0578 38.7034 70.199 36.884 67.5429 35.3505C58.6939 30.2416 44.3467 30.2416 35.4976 35.3505C32.8416 36.884 30.9828 38.7034 29.9212 40.6372H28.8594V44.4234H28.863C28.7832 47.8305 30.9948 51.2522 35.4976 53.8519C44.3467 58.9609 58.6939 58.9609 67.5429 53.8519C72.0458 51.2522 74.2574 47.8305 74.1776 44.4234H74.1951V40.6372H73.1194Z" fill="#74EB69"/>
<path d="M73.1198 40.6371L72.5938 40.9258L72.7647 41.2371H73.1198V40.6371ZM29.9216 40.6371V41.2371H30.2766L30.4475 40.9258L29.9216 40.6371ZM28.8598 40.6371V40.0371H28.2598V40.6371H28.8598ZM28.8598 44.4233H28.2598V45.0233H28.8598V44.4233ZM28.8634 44.4233L29.4631 44.4374L29.4775 43.8233H28.8634V44.4233ZM74.178 44.4233V43.8233H73.5638L73.5782 44.4374L74.178 44.4233ZM74.1954 44.4233V45.0233H74.7954V44.4233H74.1954ZM74.1954 40.6371H74.7954V40.0371H74.1954V40.6371ZM67.2433 35.8701C69.8298 37.3634 71.5975 39.1112 72.5938 40.9258L73.6458 40.3484C72.5188 38.2956 70.5689 36.4045 67.8433 34.8309L67.2433 35.8701ZM35.798 35.8701C40.1099 33.3806 45.799 32.1187 51.5206 32.1187C57.2423 32.1187 62.9314 33.3806 67.2433 35.8701L67.8433 34.8309C63.3061 32.2113 57.3971 30.9187 51.5206 30.9187C45.6442 30.9187 39.7353 32.2113 35.198 34.8309L35.798 35.8701ZM30.4475 40.9258C31.4438 39.1112 33.2116 37.3634 35.798 35.8701L35.198 34.8309C32.4725 36.4045 30.5226 38.2956 29.3956 40.3484L30.4475 40.9258ZM28.8598 41.2371H29.9216V40.0371H28.8598V41.2371ZM29.4598 44.4233V40.6371H28.2598V44.4233H29.4598ZM28.8634 43.8233H28.8598V45.0233H28.8634V43.8233ZM35.798 53.3322C31.4063 50.7967 29.3904 47.5472 29.4631 44.4374L28.2635 44.4093C28.1768 48.1137 30.584 51.7076 35.198 54.3714L35.798 53.3322ZM67.2433 53.3322C62.9314 55.8217 57.2423 57.0836 51.5206 57.0836C45.799 57.0836 40.1099 55.8217 35.798 53.3322L35.198 54.3714C39.7352 56.991 45.6442 58.2836 51.5206 58.2836C57.3971 58.2836 63.3061 56.991 67.8433 54.3714L67.2433 53.3322ZM73.5782 44.4374C73.651 47.5472 71.635 50.7967 67.2433 53.3322L67.8433 54.3714C72.4574 51.7076 74.8646 48.1137 74.7778 44.4093L73.5782 44.4374ZM74.1954 43.8233H74.178V45.0233H74.1954V43.8233ZM73.5954 40.6371V44.4233H74.7954V40.6371H73.5954ZM73.1198 41.2371H74.1954V40.0371H73.1198V41.2371Z" fill="#060606"/>
<mask id="mask2_4835_2838" style="mask-type:alpha" maskUnits="userSpaceOnUse" x="28" y="30" width="47" height="28">
<path fill-rule="evenodd" clip-rule="evenodd" d="M73.1174 39.8966C72.0558 37.9629 70.197 36.1434 67.5409 34.6099C58.6919 29.501 44.3448 29.501 35.4957 34.6099C32.8397 36.1434 30.9809 37.9629 29.9193 39.8966H28.8574V43.6829H28.861C28.7813 47.0899 30.9929 50.5116 35.4957 53.1113C44.3448 58.2203 58.6919 58.2203 67.5409 53.1113C72.0438 50.5116 74.2554 47.0899 74.1757 43.6829H74.1931V39.8966H73.1174Z" fill="#71A407"/>
<path d="M73.1178 39.8965L72.5919 40.1853L72.7628 40.4965H73.1178V39.8965ZM29.9197 39.8965V40.4965H30.2747L30.4456 40.1853L29.9197 39.8965ZM28.8578 39.8965V39.2965H28.2578V39.8965H28.8578ZM28.8578 43.6829H28.2578V44.2829H28.8578V43.6829ZM28.8614 43.6829L29.4612 43.6969L29.4756 43.0829H28.8614V43.6829ZM74.1761 43.6829V43.0829H73.5619L73.5762 43.6969L74.1761 43.6829ZM74.1935 43.6829V44.2829H74.7935V43.6829H74.1935ZM74.1935 39.8965H74.7935V39.2965H74.1935V39.8965ZM67.2413 35.1296C69.8278 36.6229 71.5956 38.3706 72.5919 40.1853L73.6438 39.6078C72.5169 37.555 70.5669 35.6639 67.8413 34.0903L67.2413 35.1296ZM35.7961 35.1296C40.108 32.6401 45.7971 31.3782 51.5187 31.3782C57.2404 31.3782 62.9295 32.6401 67.2413 35.1296L67.8413 34.0903C63.3041 31.4708 57.3952 30.1782 51.5187 30.1782C45.6423 30.1782 39.7333 31.4708 35.1961 34.0903L35.7961 35.1296ZM30.4456 40.1853C31.4418 38.3706 33.2097 36.6229 35.7961 35.1296L35.1961 34.0903C32.4705 35.6639 30.5206 37.555 29.3937 39.6078L30.4456 40.1853ZM28.8578 40.4965H29.9197V39.2965H28.8578V40.4965ZM29.4578 43.6829V39.8965H28.2578V43.6829H29.4578ZM28.8614 43.0829H28.8578V44.2829H28.8614V43.0829ZM35.7961 52.5917C31.4044 50.0561 29.3885 46.8066 29.4612 43.6969L28.2616 43.6688C28.1749 47.3733 30.5821 50.967 35.1961 53.6309L35.7961 52.5917ZM67.2413 52.5917C62.9295 55.0811 57.2404 56.343 51.5187 56.343C45.7971 56.343 40.108 55.0811 35.7961 52.5917L35.1961 53.6309C39.7333 56.2505 45.6423 57.543 51.5187 57.543C57.3952 57.543 63.3041 56.2505 67.8413 53.6309L67.2413 52.5917ZM73.5762 43.6969C73.649 46.8066 71.633 50.0561 67.2413 52.5917L67.8413 53.6309C72.4554 50.967 74.8626 47.3733 74.7759 43.6688L73.5762 43.6969ZM74.1935 43.0829H74.1761V44.2829H74.1935V43.0829ZM73.5935 39.8965V43.6829H74.7935V39.8965H73.5935ZM73.1178 40.4965H74.1935V39.2965H73.1178V40.4965Z" fill="#060606"/>
</mask>
<g mask="url(#mask2_4835_2838)">
<path d="M28.8591 39.897H51.5273V58.398H28.8591V39.897Z" fill="#74EB69"/>
</g>
<path d="M73.1198 40.6371L72.5938 40.9258L72.7647 41.2371H73.1198V40.6371ZM29.9216 40.6371V41.2371H30.2766L30.4475 40.9258L29.9216 40.6371ZM28.8598 40.6371V40.0371H28.2598V40.6371H28.8598ZM28.8598 44.4233H28.2598V45.0233H28.8598V44.4233ZM28.8634 44.4233L29.4631 44.4374L29.4775 43.8233H28.8634V44.4233ZM74.178 44.4233V43.8233H73.5638L73.5782 44.4374L74.178 44.4233ZM74.1954 44.4233V45.0233H74.7954V44.4233H74.1954ZM74.1954 40.6371H74.7954V40.0371H74.1954V40.6371ZM67.2433 35.8701C69.8298 37.3634 71.5975 39.1112 72.5938 40.9258L73.6458 40.3484C72.5188 38.2956 70.5689 36.4045 67.8433 34.8309L67.2433 35.8701ZM35.798 35.8701C40.1099 33.3806 45.799 32.1187 51.5206 32.1187C57.2423 32.1187 62.9314 33.3806 67.2433 35.8701L67.8433 34.8309C63.3061 32.2113 57.3971 30.9187 51.5206 30.9187C45.6442 30.9187 39.7353 32.2113 35.198 34.8309L35.798 35.8701ZM30.4475 40.9258C31.4438 39.1112 33.2116 37.3634 35.798 35.8701L35.198 34.8309C32.4725 36.4045 30.5226 38.2956 29.3956 40.3484L30.4475 40.9258ZM28.8598 41.2371H29.9216V40.0371H28.8598V41.2371ZM29.4598 44.4233V40.6371H28.2598V44.4233H29.4598ZM28.8634 43.8233H28.8598V45.0233H28.8634V43.8233ZM35.798 53.3322C31.4063 50.7967 29.3904 47.5472 29.4631 44.4374L28.2635 44.4093C28.1768 48.1137 30.584 51.7076 35.198 54.3714L35.798 53.3322ZM67.2433 53.3322C62.9314 55.8217 57.2423 57.0836 51.5206 57.0836C45.799 57.0836 40.1099 55.8217 35.798 53.3322L35.198 54.3714C39.7352 56.991 45.6442 58.2836 51.5206 58.2836C57.3971 58.2836 63.3061 56.991 67.8433 54.3714L67.2433 53.3322ZM73.5782 44.4374C73.651 47.5472 71.635 50.7967 67.2433 53.3322L67.8433 54.3714C72.4574 51.7076 74.8646 48.1137 74.7778 44.4093L73.5782 44.4374ZM74.1954 43.8233H74.178V45.0233H74.1954V43.8233ZM73.5954 40.6371V44.4233H74.7954V40.6371H73.5954ZM73.1198 41.2371H74.1954V40.0371H73.1198V41.2371Z" fill="#060606"/>
<path d="M67.5425 48.435C76.3916 43.326 76.3916 35.0427 67.5425 29.9336C58.6935 24.8246 44.3463 24.8246 35.4972 29.9336C26.6482 35.0427 26.6482 43.326 35.4972 48.435C44.3463 53.544 58.6935 53.544 67.5425 48.435Z" fill="#74EB69" stroke="#060606" stroke-width="1.2"/>
<path d="M56.3991 33.742C54.8296 32.517 52.4323 32.7555 49.8489 33.4827L47.972 31.6794L46.0709 32.339L47.8983 34.0949C47.3986 34.2682 46.8936 34.4512 46.3921 34.6331L44.553 32.8656L42.6527 33.5248L44.5283 35.3278C44.1217 35.4755 43.7221 35.6202 43.3281 35.757L43.322 35.7515L40.6992 36.6607L41.9198 37.8329C41.9198 37.8329 43.3077 37.3303 43.2999 37.3534C44.0701 37.0863 44.5894 37.2575 44.8941 37.455L47.0323 39.5093C47.0856 39.491 47.1563 39.4682 47.2412 39.4472C47.1779 39.4693 47.1099 39.4926 47.0406 39.517L50.0353 42.3952C50.1471 42.5469 50.2368 42.8194 49.6994 43.0066C49.7367 43.0106 48.3171 43.4858 48.3171 43.4858L49.3036 44.9278L51.7777 44.0694C52.2385 43.91 52.6962 43.7574 53.1427 43.6046L55.0416 45.4282L56.941 44.7696L55.0628 42.965C55.5908 42.7903 56.0979 42.6177 56.5903 42.4465L58.4589 44.243L60.36 43.5834L58.4659 41.7626C61.552 40.5478 63.3053 39.3069 61.7796 37.4775C60.5516 36.0042 58.7667 35.776 56.6904 36.1539C57.4555 35.4474 57.5504 34.6374 56.3991 33.742ZM57.7979 38.5646C59.2175 39.9272 55.0139 41.1745 53.7261 41.6222L51.2116 39.2055C52.5007 38.7586 56.3186 37.1429 57.7979 38.5646ZM53.3655 35.462C54.6554 36.7022 51.1336 37.727 50.0604 38.0994L47.7796 35.9077C48.8528 35.5353 52.0191 34.1686 53.3655 35.462Z" fill="#060606"/>
<path fill-rule="evenodd" clip-rule="evenodd" d="M73.1194 35.3465C72.0578 33.4128 70.199 31.5934 67.5429 30.0599C58.6939 24.9509 44.3467 24.9509 35.4976 30.0599C32.8416 31.5934 30.9828 33.4128 29.9212 35.3465H28.8594V39.1328H28.863C28.7832 42.5399 30.9948 45.9616 35.4976 48.5612C44.3467 53.6703 58.6939 53.6703 67.5429 48.5612C72.0458 45.9616 74.2574 42.5399 74.1776 39.1328H74.1951V35.3465H73.1194Z" fill="#74EB69"/>
<path d="M73.1198 35.3465L72.5938 35.6353L72.7647 35.9465H73.1198V35.3465ZM29.9216 35.3465V35.9465H30.2766L30.4475 35.6353L29.9216 35.3465ZM28.8598 35.3465V34.7465H28.2598V35.3465H28.8598ZM28.8598 39.1328H28.2598V39.7328H28.8598V39.1328ZM28.8634 39.1328L29.4631 39.1468L29.4775 38.5328H28.8634V39.1328ZM74.178 39.1328V38.5328H73.5638L73.5782 39.1468L74.178 39.1328ZM74.1954 39.1328V39.7328H74.7954V39.1328H74.1954ZM74.1954 35.3465H74.7954V34.7465H74.1954V35.3465ZM67.2433 30.5795C69.8298 32.0728 71.5975 33.8206 72.5938 35.6353L73.6458 35.0578C72.5188 33.005 70.5689 31.1139 67.8433 29.5403L67.2433 30.5795ZM35.798 30.5795C40.1099 28.0901 45.799 26.8282 51.5206 26.8282C57.2423 26.8282 62.9314 28.0901 67.2433 30.5795L67.8433 29.5403C63.3061 26.9207 57.3971 25.6282 51.5206 25.6282C45.6442 25.6282 39.7353 26.9207 35.198 29.5403L35.798 30.5795ZM30.4475 35.6353C31.4438 33.8206 33.2116 32.0728 35.798 30.5795L35.198 29.5403C32.4725 31.1139 30.5226 33.005 29.3956 35.0578L30.4475 35.6353ZM28.8598 35.9465H29.9216V34.7465H28.8598V35.9465ZM29.4598 39.1328V35.3465H28.2598V39.1328H29.4598ZM28.8634 38.5328H28.8598V39.7328H28.8634V38.5328ZM35.798 48.0416C31.4063 45.5061 29.3904 42.2566 29.4631 39.1468L28.2635 39.1187C28.1768 42.8232 30.584 46.417 35.198 49.0809L35.798 48.0416ZM67.2433 48.0416C62.9314 50.5311 57.2423 51.793 51.5206 51.793C45.799 51.793 40.1099 50.5311 35.798 48.0416L35.198 49.0809C39.7352 51.7004 45.6442 52.993 51.5206 52.993C57.3971 52.993 63.3061 51.7004 67.8433 49.0809L67.2433 48.0416ZM73.5782 39.1468C73.651 42.2566 71.635 45.5061 67.2433 48.0416L67.8433 49.0809C72.4574 46.417 74.8646 42.8232 74.7778 39.1187L73.5782 39.1468ZM74.1954 38.5328H74.178V39.7328H74.1954V38.5328ZM73.5954 35.3465V39.1328H74.7954V35.3465H73.5954ZM73.1198 35.9465H74.1954V34.7465H73.1198V35.9465Z" fill="#060606"/>
<path d="M73.1198 35.3465L72.5938 35.6353L72.7647 35.9465H73.1198V35.3465ZM29.9216 35.3465V35.9465H30.2766L30.4475 35.6353L29.9216 35.3465ZM28.8598 35.3465V34.7465H28.2598V35.3465H28.8598ZM28.8598 39.1328H28.2598V39.7328H28.8598V39.1328ZM28.8634 39.1328L29.4631 39.1468L29.4775 38.5328H28.8634V39.1328ZM74.178 39.1328V38.5328H73.5638L73.5782 39.1468L74.178 39.1328ZM74.1954 39.1328V39.7328H74.7954V39.1328H74.1954ZM74.1954 35.3465H74.7954V34.7465H74.1954V35.3465ZM67.2433 30.5795C69.8298 32.0728 71.5975 33.8206 72.5938 35.6353L73.6458 35.0578C72.5188 33.005 70.5689 31.1139 67.8433 29.5403L67.2433 30.5795ZM35.798 30.5795C40.1099 28.0901 45.799 26.8282 51.5206 26.8282C57.2423 26.8282 62.9314 28.0901 67.2433 30.5795L67.8433 29.5403C63.3061 26.9207 57.3971 25.6282 51.5206 25.6282C45.6442 25.6282 39.7353 26.9207 35.198 29.5403L35.798 30.5795ZM30.4475 35.6353C31.4438 33.8206 33.2116 32.0728 35.798 30.5795L35.198 29.5403C32.4725 31.1139 30.5226 33.005 29.3956 35.0578L30.4475 35.6353ZM28.8598 35.9465H29.9216V34.7465H28.8598V35.9465ZM29.4598 39.1328V35.3465H28.2598V39.1328H29.4598ZM28.8634 38.5328H28.8598V39.7328H28.8634V38.5328ZM35.798 48.0416C31.4063 45.5061 29.3904 42.2566 29.4631 39.1468L28.2635 39.1187C28.1768 42.8232 30.584 46.417 35.198 49.0809L35.798 48.0416ZM67.2433 48.0416C62.9314 50.5311 57.2423 51.793 51.5206 51.793C45.799 51.793 40.1099 50.5311 35.798 48.0416L35.198 49.0809C39.7352 51.7004 45.6442 52.993 51.5206 52.993C57.3971 52.993 63.3061 51.7004 67.8433 49.0809L67.2433 48.0416ZM73.5782 39.1468C73.651 42.2566 71.635 45.5061 67.2433 48.0416L67.8433 49.0809C72.4574 46.417 74.8646 42.8232 74.7778 39.1187L73.5782 39.1468ZM74.1954 38.5328H74.178V39.7328H74.1954V38.5328ZM73.5954 35.3465V39.1328H74.7954V35.3465H73.5954ZM73.1198 35.9465H74.1954V34.7465H73.1198V35.9465Z" fill="#060606"/>
<path d="M67.5425 43.1445C76.3916 38.0355 76.3916 29.7521 67.5425 24.6431C58.6935 19.5341 44.3463 19.5341 35.4972 24.6431C26.6482 29.7521 26.6482 38.0355 35.4972 43.1445C44.3463 48.2535 58.6935 48.2535 67.5425 43.1445Z" fill="white" stroke="#060606" stroke-width="1.2"/>
</g>
<defs>
<clipPath id="clip0_4835_2838">
<rect width="80" height="80" fill="white"/>
</clipPath>
</defs>
</svg>