<svg width="46" height="46" viewBox="0 0 46 46" fill="none" xmlns="http://www.w3.org/2000/svg">
<rect x="5.28125" y="0.264893" width="40.7628" height="40.7628" rx="4.8" transform="rotate(7.07 5.28125 0.264893)" fill="#C4342B"/>
<path fill-rule="evenodd" clip-rule="evenodd" d="M14.4718 8.72285C14.5832 8.62775 14.718 8.56413 14.8622 8.53857C15.0064 8.51302 15.1549 8.52646 15.2921 8.5775L31.8148 14.8621C31.9145 14.8975 32.0052 14.9544 32.0805 15.0288L35.2338 17.9882C35.3872 18.133 35.4785 18.3317 35.4884 18.5425C35.4983 18.7533 35.4261 18.9597 35.2869 19.1183L21.1957 35.0899C21.0966 35.2034 20.9679 35.287 20.824 35.3315C20.6801 35.376 20.5267 35.3796 20.3809 35.3419C20.235 35.3043 20.1025 35.2267 19.9982 35.1181C19.8939 35.0094 19.8219 34.8739 19.7902 34.7266L14.2079 9.51424C14.1776 9.37102 14.186 9.22228 14.2324 9.08341C14.2787 8.94453 14.3615 8.81912 14.4718 8.72285ZM16.7413 13.4287L20.6169 30.9324L22.6734 22.3664L16.7413 13.4287ZM24.2335 22.8433L22.1423 31.5591L32.0936 20.2789L24.2335 22.8433ZM33.1191 18.2332L27.3736 20.1078L31.4901 16.707L33.1191 18.2332ZM29.9278 15.8854L17.0816 11.0014L23.727 21.0087L29.9278 15.8854Z" fill="white"/>
</svg>