<svg width="28" height="28" viewBox="0 0 28 28" fill="none" xmlns="http://www.w3.org/2000/svg">
<g clip-path="url(#clip0_4837_3988)">
<rect x="2" y="2" width="24" height="24" rx="12" fill="#145DCD"/>
<path fill-rule="evenodd" clip-rule="evenodd" d="M8.26076 7.51351C8.35784 7.40735 8.48152 7.32906 8.619 7.28672C8.75648 7.24437 8.90278 7.23953 9.04276 7.27268L25.9053 11.4008C26.0073 11.4231 26.1031 11.4676 26.1858 11.5312L29.617 14.0344C29.7837 14.1573 29.8965 14.3398 29.9319 14.5438C29.9673 14.7479 29.9225 14.9577 29.8068 15.1295L18.0032 32.4001C17.9203 32.5226 17.805 32.6197 17.6701 32.6805C17.5353 32.7413 17.3861 32.7633 17.2394 32.7442C17.0927 32.7251 16.9543 32.6656 16.8395 32.5723C16.7246 32.479 16.6381 32.3556 16.5893 32.2159L8.09926 8.31676C8.05217 8.18096 8.04217 8.03505 8.07031 7.89409C8.09846 7.75313 8.16371 7.62224 8.25935 7.51493M11.0417 11.8258L16.935 28.4178L17.904 19.8201L11.0417 11.8258ZM19.4822 20.0963L18.4976 28.8443L26.8318 16.6468L19.4822 20.0963ZM27.5841 14.5288L22.2135 17.0505L25.8118 13.2383L27.5841 14.5288ZM24.1898 12.6263L11.0813 9.41893L18.7668 18.3694L24.1898 12.6263Z" fill="white"/>
</g>
<rect x="1" y="1" width="26" height="26" rx="13" stroke="#1F1F1F" stroke-width="2"/>
<defs>
<clipPath id="clip0_4837_3988">
<rect x="2" y="2" width="24" height="24" rx="12" fill="white"/>
</clipPath>
</defs>
</svg>