<svg width="24" height="25" viewBox="0 0 24 25" fill="none" xmlns="http://www.w3.org/2000/svg">
<path d="M19.502 19.6083V3.10828C19.502 2.65828 19.202 2.35828 18.752 2.35828H2.25195C1.80195 2.35828 1.50195 2.65828 1.50195 3.10828V19.6083C1.50195 20.0583 1.80195 20.3583 2.25195 20.3583H18.752C19.202 20.3583 19.502 20.0583 19.502 19.6083ZM18.002 18.8583H3.00195V3.85828H18.002V18.8583ZM22.502 6.85828V22.6083C22.502 23.0583 22.202 23.3583 21.752 23.3583H6.00195C5.55195 23.3583 5.25195 23.0583 5.25195 22.6083C5.25195 22.1583 5.55195 21.8583 6.00195 21.8583H21.002V6.85828C21.002 6.40828 21.302 6.10828 21.752 6.10828C22.202 6.10828 22.502 6.40828 22.502 6.85828ZM6.00195 11.3583C6.00195 10.9083 6.30195 10.6083 6.75195 10.6083H9.75195V7.60828C9.75195 7.15828 10.052 6.85828 10.502 6.85828C10.952 6.85828 11.252 7.15828 11.252 7.60828V10.6083H14.252C14.702 10.6083 15.002 10.9083 15.002 11.3583C15.002 11.8083 14.702 12.1083 14.252 12.1083H11.252V15.1083C11.252 15.5583 10.952 15.8583 10.502 15.8583C10.052 15.8583 9.75195 15.5583 9.75195 15.1083V12.1083H6.75195C6.30195 12.1083 6.00195 11.8083 6.00195 11.3583Z" fill="#067FCF"/>
</svg>
