<svg width="80" height="80" viewBox="0 0 80 80" fill="none" xmlns="http://www.w3.org/2000/svg">
<g clip-path="url(#clip0_4835_2942)">
<mask id="mask0_4835_2942" style="mask-type:luminance" maskUnits="userSpaceOnUse" x="-5" y="-5" width="91" height="86">
<path d="M85.6012 -4.7998H-4.79883V80.0002H85.6012V-4.7998Z" fill="white"/>
</mask>
<g mask="url(#mask0_4835_2942)">
<path d="M40.2809 68.1647C55.9657 68.1647 68.6809 55.2705 68.6809 39.3647C68.6809 23.4589 55.9657 10.5647 40.2809 10.5647C24.596 10.5647 11.8809 23.4589 11.8809 39.3647C11.8809 55.2705 24.596 68.1647 40.2809 68.1647Z" fill="#141414"/>
<path d="M40 80.0002C62.0914 80.0002 80 62.0916 80 40.0002C80 17.9089 62.0914 0.000244141 40 0.000244141C17.9086 0.000244141 0 17.9089 0 40.0002C0 62.0916 17.9086 80.0002 40 80.0002Z" fill="#1F1F1F"/>
<path d="M56.8645 64.6885L42.3724 39.1844C42.1781 38.8425 42.315 38.5327 42.5892 38.6941L49.1405 42.5488C49.3103 42.6487 49.4478 42.5677 49.4478 42.368V25.1882C49.4478 24.9885 49.5854 24.9075 49.7551 25.0074L64.3693 33.6062C64.539 33.7061 64.6766 33.949 64.6766 34.1487V51.3285C64.6766 51.5282 64.8142 51.7711 64.984 51.8709L71.5736 55.7481C71.8473 55.9094 71.9842 56.3804 71.7904 56.4937L57.2981 64.944C57.1782 65.014 56.9844 64.8998 56.8645 64.6885Z" fill="#060606" stroke="#060606" stroke-width="1.2" stroke-linecap="round" stroke-linejoin="round"/>
<path d="M48.6823 25.0762L45.037 27.1808C44.8634 27.281 44.8634 27.4436 45.037 27.5438L48.2743 29.4129C48.448 29.5131 48.7295 29.5131 48.9031 29.4129L52.5484 27.3083C52.722 27.208 52.722 27.0455 52.5484 26.9452L49.3111 25.0762C49.1375 24.9759 48.856 24.9759 48.6823 25.0762Z" fill="#060606"/>
<path d="M41.4011 38.7139L37.7558 40.8185C37.5822 40.9187 37.5822 41.0813 37.7558 41.1815L46.1274 46.0149C46.301 46.1151 46.5825 46.1151 46.7562 46.0149L50.4015 43.9102C50.5751 43.81 50.5751 43.6475 50.4015 43.5472L42.0299 38.7139C41.8562 38.6136 41.5747 38.6136 41.4011 38.7139Z" fill="#060606"/>
<path d="M52.8644 67.0893L38.3724 41.5846C38.1781 41.2427 38.3151 40.933 38.5892 41.0942L45.1404 44.949C45.3102 45.0489 45.4478 44.9679 45.4478 44.7682V27.5883C45.4478 27.3886 45.5854 27.3076 45.7551 27.4075L60.3692 36.0064C60.5389 36.1063 60.6765 36.3491 60.6765 36.5489V53.7287C60.6765 53.9284 60.814 54.1713 60.9838 54.2712L67.5732 58.1484C67.8475 58.3097 67.9844 58.7807 67.7901 58.8939L53.298 67.3441C53.1781 67.4142 52.9843 67.2999 52.8644 67.0893Z" fill="white" stroke="#060606" stroke-width="1.2" stroke-linecap="round" stroke-linejoin="round"/>
<path d="M38.4511 36.9648L42.2812 34.6909L26.6025 8.16479L22.2812 10.6286L38.4511 36.9648Z" fill="#060606" stroke="#060606" stroke-width="1.2" stroke-linecap="round" stroke-linejoin="round"/>
<path d="M12.1989 17.5108L18.9702 21.4244C19.1455 21.5258 19.2875 21.7721 19.2875 21.9748V39.2558C19.2875 39.4613 19.4336 39.7112 19.6114 39.8098L34.607 48.125C34.7797 48.2208 34.918 48.1377 34.918 47.938V31.0089C34.918 30.8062 35.0601 30.7241 35.2354 30.8254L41.9628 34.7138C42.2462 34.8776 42.3875 34.5627 42.1864 34.2157L27.2478 8.44389C27.1238 8.22983 26.9235 8.11451 26.7999 8.18595L11.9744 16.7548C11.7745 16.8703 11.9161 17.3474 12.1989 17.5108Z" fill="#060606" stroke="#060606" stroke-width="1.2" stroke-linecap="round"/>
<path d="M8.99128 19.8274L15.5844 23.7063C15.7551 23.8067 15.8934 24.0509 15.8934 24.2516V41.3863C15.8934 41.5871 16.0318 41.8313 16.2024 41.9317L30.8035 50.5217C30.9742 50.6221 31.1125 50.5407 31.1125 50.3399V33.2053C31.1125 33.0045 31.2509 32.9231 31.4215 33.0235L37.972 36.8772C38.2479 37.0395 38.3855 36.7274 38.1897 36.3836L23.6443 10.8413C23.5234 10.6292 23.3284 10.5149 23.2081 10.5857L8.77277 19.0782C8.5781 19.1927 8.71597 19.6654 8.99128 19.8274Z" fill="#74EB69" stroke="#060606" stroke-width="1.2" stroke-linecap="round"/>
<path d="M34.9643 44.1212L31.2929 46.2408C31.1193 46.3411 30.9785 46.5849 30.9785 46.7854L30.9785 50.8541C30.9785 51.0546 31.1193 51.1359 31.2929 51.0356L34.9643 48.9159C35.1379 48.8157 35.2787 48.5719 35.2787 48.3714L35.2787 44.3027C35.2787 44.1022 35.1379 44.0209 34.9643 44.1212Z" fill="#060606"/>
</g>
</g>
<defs>
<clipPath id="clip0_4835_2942">
<rect width="80" height="80" fill="white"/>
</clipPath>
</defs>
</svg>