<svg width="80" height="80" viewBox="0 0 80 80" fill="none" xmlns="http://www.w3.org/2000/svg">
<g clip-path="url(#clip0_4835_2961)">
<mask id="mask0_4835_2961" style="mask-type:luminance" maskUnits="userSpaceOnUse" x="0" y="0" width="80" height="80">
<path d="M80 0H0V80H80V0Z" fill="white"/>
</mask>
<g mask="url(#mask0_4835_2961)">
<path d="M40.2734 80.7734C62.3648 80.7734 80.2734 62.8648 80.2734 40.7734C80.2734 18.682 62.3648 0.773438 40.2734 0.773438C18.182 0.773438 0.273438 18.682 0.273438 40.7734C0.273438 62.8648 18.182 80.7734 40.2734 80.7734Z" fill="#1F1F1F"/>
<mask id="mask1_4835_2961" style="mask-type:luminance" maskUnits="userSpaceOnUse" x="11" y="14" width="59" height="59">
<path d="M69.3246 43.3515C69.3246 27.3076 56.3185 14.3015 40.2746 14.3015C24.2308 14.3015 11.2246 27.3076 11.2246 43.3515C11.2246 59.3954 24.2308 72.4015 40.2746 72.4015C56.3185 72.4015 69.3246 59.3954 69.3246 43.3515ZM25.7496 43.3515C25.7496 35.3295 32.2527 28.8265 40.2746 28.8265C48.2965 28.8265 54.7996 35.3295 54.7996 43.3515C54.7996 51.3734 48.2965 57.8765 40.2746 57.8765C32.2527 57.8765 25.7496 51.3734 25.7496 43.3515Z" fill="white"/>
</mask>
<g mask="url(#mask1_4835_2961)">
<path d="M69.3246 43.3515C69.3246 27.3076 56.3185 14.3015 40.2746 14.3015C24.2308 14.3015 11.2246 27.3076 11.2246 43.3515C11.2246 59.3954 24.2308 72.4015 40.2746 72.4015C56.3185 72.4015 69.3246 59.3954 69.3246 43.3515ZM25.7496 43.3515C25.7496 35.3295 32.2527 28.8265 40.2746 28.8265C48.2965 28.8265 54.7996 35.3295 54.7996 43.3515C54.7996 51.3734 48.2965 57.8765 40.2746 57.8765C32.2527 57.8765 25.7496 51.3734 25.7496 43.3515Z" fill="#060606" stroke="#060606" stroke-width="2.4"/>
</g>
<mask id="mask2_4835_2961" style="mask-type:luminance" maskUnits="userSpaceOnUse" x="11" y="11" width="59" height="59">
<path d="M69.2865 40.2731C69.2865 24.25 56.2972 11.2607 40.2741 11.2607C24.251 11.2607 11.2617 24.25 11.2617 40.2731C11.2617 56.2963 24.251 69.2855 40.2741 69.2855C56.2972 69.2855 69.2865 56.2963 69.2865 40.2731ZM25.768 40.2731C25.768 32.2616 32.2626 25.767 40.2741 25.767C48.2856 25.767 54.7804 32.2616 54.7804 40.2731C54.7804 48.2847 48.2856 54.7794 40.2741 54.7794C32.2626 54.7794 25.768 48.2847 25.768 40.2731Z" fill="white"/>
</mask>
<g mask="url(#mask2_4835_2961)">
<path d="M69.2865 40.2731C69.2865 24.25 56.2972 11.2607 40.2741 11.2607C24.251 11.2607 11.2617 24.25 11.2617 40.2731C11.2617 56.2963 24.251 69.2855 40.2741 69.2855C56.2972 69.2855 69.2865 56.2963 69.2865 40.2731ZM25.768 40.2731C25.768 32.2616 32.2626 25.767 40.2741 25.767C48.2856 25.767 54.7804 32.2616 54.7804 40.2731C54.7804 48.2847 48.2856 54.7794 40.2741 54.7794C32.2626 54.7794 25.768 48.2847 25.768 40.2731Z" fill="#C0C0C0" stroke="#060606" stroke-width="2.4"/>
</g>
<mask id="mask3_4835_2961" style="mask-type:alpha" maskUnits="userSpaceOnUse" x="11" y="11" width="59" height="59">
<mask id="mask4_4835_2961" style="mask-type:alpha" maskUnits="userSpaceOnUse" x="11" y="11" width="59" height="59">
<path d="M69.2865 40.2722C69.2865 24.249 56.2972 11.2598 40.2741 11.2598C24.251 11.2598 11.2617 24.249 11.2617 40.2722C11.2617 56.2953 24.251 69.2846 40.2741 69.2846C56.2972 69.2846 69.2865 56.2953 69.2865 40.2722ZM25.768 40.2722C25.768 32.2606 32.2626 25.7659 40.2741 25.7659C48.2856 25.7659 54.7804 32.2606 54.7804 40.2722C54.7804 48.2837 48.2856 54.7783 40.2741 54.7783C32.2626 54.7783 25.768 48.2837 25.768 40.2722Z" fill="white"/>
</mask>
<g mask="url(#mask4_4835_2961)">
<path d="M69.2865 40.2722C69.2865 24.249 56.2972 11.2598 40.2741 11.2598C24.251 11.2598 11.2617 24.249 11.2617 40.2722C11.2617 56.2953 24.251 69.2846 40.2741 69.2846C56.2972 69.2846 69.2865 56.2953 69.2865 40.2722ZM25.768 40.2722C25.768 32.2606 32.2626 25.7659 40.2741 25.7659C48.2856 25.7659 54.7804 32.2606 54.7804 40.2722C54.7804 48.2837 48.2856 54.7783 40.2741 54.7783C32.2626 54.7783 25.768 48.2837 25.768 40.2722Z" fill="white" stroke="#060606" stroke-width="2.4"/>
</g>
</mask>
<g mask="url(#mask3_4835_2961)">
<path d="M65.3447 40.2719C65.3447 26.4268 54.121 15.2031 40.2759 15.2031C26.4307 15.2031 15.207 26.4268 15.207 40.2719C15.207 54.117 26.4307 65.3408 40.2759 65.3408C54.121 65.3408 65.3447 54.117 65.3447 40.2719ZM27.7414 40.2719C27.7414 33.3494 33.3533 27.7375 40.2759 27.7375C47.1985 27.7375 52.8103 33.3494 52.8103 40.2719C52.8103 47.1945 47.1985 52.8063 40.2759 52.8063C33.3533 52.8063 27.7414 47.1945 27.7414 40.2719Z" fill="white"/>
</g>
<mask id="mask5_4835_2961" style="mask-type:luminance" maskUnits="userSpaceOnUse" x="11" y="11" width="59" height="59">
<path d="M69.2865 40.2719C69.2865 24.2488 56.2972 11.2595 40.2741 11.2595C24.251 11.2595 11.2617 24.2488 11.2617 40.2719C11.2617 56.295 24.251 69.2843 40.2741 69.2843C56.2972 69.2843 69.2865 56.295 69.2865 40.2719ZM25.768 40.2719C25.768 32.2603 32.2626 25.7657 40.2741 25.7657C48.2856 25.7657 54.7804 32.2603 54.7804 40.2719C54.7804 48.2834 48.2856 54.7781 40.2741 54.7781C32.2626 54.7781 25.768 48.2834 25.768 40.2719Z" fill="white"/>
</mask>
<g mask="url(#mask5_4835_2961)">
<path d="M69.2865 40.2719C69.2865 24.2488 56.2972 11.2595 40.2741 11.2595C24.251 11.2595 11.2617 24.2488 11.2617 40.2719C11.2617 56.295 24.251 69.2843 40.2741 69.2843C56.2972 69.2843 69.2865 56.295 69.2865 40.2719ZM25.768 40.2719C25.768 32.2603 32.2626 25.7657 40.2741 25.7657C48.2856 25.7657 54.7804 32.2603 54.7804 40.2719C54.7804 48.2834 48.2856 54.7781 40.2741 54.7781C32.2626 54.7781 25.768 48.2834 25.768 40.2719Z" stroke="#060606" stroke-width="2.4"/>
</g>
<mask id="mask6_4835_2961" style="mask-type:luminance" maskUnits="userSpaceOnUse" x="8" y="19" width="23" height="43">
<path d="M20.3986 60.1466C19.149 61.3963 17.1082 61.4056 15.9926 60.035C14.0794 57.6843 12.514 55.0638 11.3498 52.2532C9.77656 48.4551 8.9668 44.3843 8.9668 40.2732C8.9668 36.1622 9.77656 32.0914 11.3498 28.2932C12.514 25.4826 14.0794 22.8621 15.9926 20.5115C17.1082 19.1408 19.149 19.1502 20.3986 20.3998L29.1548 29.156C30.4045 30.4057 30.3601 32.4195 29.4669 33.9445C29.1781 34.4376 28.9228 34.951 28.7031 35.4812C28.0738 37.0005 27.7499 38.6288 27.7499 40.2732C27.7499 41.9176 28.0738 43.5459 28.7031 45.0652C28.9228 45.5954 29.1781 46.1088 29.4669 46.6019C30.3601 48.1269 30.4045 50.1407 29.1548 51.3904L20.3986 60.1466Z" fill="white"/>
</mask>
<g mask="url(#mask6_4835_2961)">
<path d="M20.3986 60.1466C19.149 61.3963 17.1082 61.4056 15.9926 60.035C14.0794 57.6843 12.514 55.0638 11.3498 52.2532C9.77656 48.4551 8.9668 44.3843 8.9668 40.2732C8.9668 36.1622 9.77656 32.0914 11.3498 28.2932C12.514 25.4826 14.0794 22.8621 15.9926 20.5115C17.1082 19.1408 19.149 19.1502 20.3986 20.3998L29.1548 29.156C30.4045 30.4057 30.3601 32.4195 29.4669 33.9445C29.1781 34.4376 28.9228 34.951 28.7031 35.4812C28.0738 37.0005 27.7499 38.6288 27.7499 40.2732C27.7499 41.9176 28.0738 43.5459 28.7031 45.0652C28.9228 45.5954 29.1781 46.1088 29.4669 46.6019C30.3601 48.1269 30.4045 50.1407 29.1548 51.3904L20.3986 60.1466Z" fill="#5EC255" stroke="#060606" stroke-width="2.4"/>
</g>
<mask id="mask7_4835_2961" style="mask-type:alpha" maskUnits="userSpaceOnUse" x="8" y="19" width="23" height="43">
<mask id="mask8_4835_2961" style="mask-type:alpha" maskUnits="userSpaceOnUse" x="8" y="19" width="23" height="43">
<path d="M20.4006 60.1466C19.1509 61.3963 17.1102 61.4056 15.9946 60.035C14.0813 57.6843 12.5159 55.0638 11.3517 52.2532C9.77851 48.4551 8.96875 44.3843 8.96875 40.2732C8.96875 36.1622 9.77851 32.0914 11.3517 28.2932C12.5159 25.4826 14.0813 22.8621 15.9946 20.5115C17.1102 19.1408 19.1509 19.1502 20.4006 20.3998L29.1567 29.156C30.4064 30.4057 30.362 32.4195 29.4688 33.9445C29.18 34.4376 28.9247 34.951 28.7051 35.4812C28.0758 37.0005 27.7519 38.6288 27.7519 40.2732C27.7519 41.9176 28.0758 43.5459 28.7051 45.0652C28.9247 45.5954 29.18 46.1088 29.4688 46.6019C30.362 48.1269 30.4064 50.1407 29.1567 51.3904L20.4006 60.1466Z" fill="white"/>
</mask>
<g mask="url(#mask8_4835_2961)">
<path d="M20.4006 60.1466C19.1509 61.3963 17.1102 61.4056 15.9946 60.035C14.0813 57.6843 12.5159 55.0638 11.3517 52.2532C9.77851 48.4551 8.96875 44.3843 8.96875 40.2732C8.96875 36.1622 9.77851 32.0914 11.3517 28.2932C12.5159 25.4826 14.0813 22.8621 15.9946 20.5115C17.1102 19.1408 19.1509 19.1502 20.4006 20.3998L29.1567 29.156C30.4064 30.4057 30.362 32.4195 29.4688 33.9445C29.18 34.4376 28.9247 34.951 28.7051 35.4812C28.0758 37.0005 27.7519 38.6288 27.7519 40.2732C27.7519 41.9176 28.0758 43.5459 28.7051 45.0652C28.9247 45.5954 29.18 46.1088 29.4688 46.6019C30.362 48.1269 30.4064 50.1407 29.1567 51.3904L20.4006 60.1466Z" fill="#B0F127" stroke="#060606" stroke-width="2.4"/>
</g>
</mask>
<g mask="url(#mask7_4835_2961)">
<path d="M40.2766 64.1635C53.3606 64.1635 63.9672 53.5568 63.9672 40.4729C63.9672 27.3889 53.3606 16.7822 40.2766 16.7822C27.1926 16.7822 16.5859 27.3889 16.5859 40.4729C16.5859 53.5568 27.1926 64.1635 40.2766 64.1635Z" fill="#74EB69"/>
</g>
<mask id="mask9_4835_2961" style="mask-type:luminance" maskUnits="userSpaceOnUse" x="8" y="19" width="23" height="43">
<path d="M20.3986 60.1456C19.149 61.3953 17.1082 61.4046 15.9926 60.034C14.0794 57.6833 12.514 55.0628 11.3498 52.2522C9.77656 48.4541 8.9668 44.3833 8.9668 40.2722C8.9668 36.1612 9.77656 32.0904 11.3498 28.2923C12.514 25.4817 14.0794 22.8612 15.9926 20.5105C17.1082 19.1398 19.149 19.1492 20.3986 20.3989L29.1548 29.1551C30.4045 30.4048 30.3601 32.4186 29.4669 33.9436C29.1781 34.4366 28.9228 34.95 28.7031 35.4803C28.0738 36.9995 27.7499 38.6278 27.7499 40.2722C27.7499 41.9167 28.0738 43.545 28.7031 45.0642C28.9228 45.5945 29.1781 46.1078 29.4669 46.6009C30.3601 48.1259 30.4045 50.1397 29.1548 51.3894L20.3986 60.1456Z" fill="white"/>
</mask>
<g mask="url(#mask9_4835_2961)">
<path d="M20.3986 60.1456C19.149 61.3953 17.1082 61.4046 15.9926 60.034C14.0794 57.6833 12.514 55.0628 11.3498 52.2522C9.77656 48.4541 8.9668 44.3833 8.9668 40.2722C8.9668 36.1612 9.77656 32.0904 11.3498 28.2923C12.514 25.4817 14.0794 22.8612 15.9926 20.5105C17.1082 19.1398 19.149 19.1492 20.3986 20.3989L29.1548 29.1551C30.4045 30.4048 30.3601 32.4186 29.4669 33.9436C29.1781 34.4366 28.9228 34.95 28.7031 35.4803C28.0738 36.9995 27.7499 38.6278 27.7499 40.2722C27.7499 41.9167 28.0738 43.545 28.7031 45.0642C28.9228 45.5945 29.1781 46.1078 29.4669 46.6009C30.3601 48.1259 30.4045 50.1397 29.1548 51.3894L20.3986 60.1456Z" stroke="#060606" stroke-width="2.4"/>
</g>
<mask id="mask10_4835_2961" style="mask-type:luminance" maskUnits="userSpaceOnUse" x="50" y="19" width="22" height="43">
<path d="M60.1448 60.1466C61.3945 61.3963 63.4351 61.4056 64.5508 60.035C66.464 57.6843 68.0294 55.0638 69.1936 52.2532C70.7669 48.4551 71.5766 44.3843 71.5766 40.2732C71.5766 36.1622 70.7669 32.0914 69.1936 28.2932C68.0294 25.4826 66.464 22.8621 64.5508 20.5115C63.4351 19.1408 61.3945 19.1502 60.1448 20.3998L51.3886 29.156C50.1389 30.4057 50.1833 32.4195 51.0765 33.9445C51.3653 34.4376 51.6206 34.951 51.8403 35.4812C52.4696 37.0005 52.7934 38.6288 52.7934 40.2732C52.7934 41.9176 52.4696 43.5459 51.8403 45.0652C51.6206 45.5954 51.3653 46.1088 51.0765 46.6019C50.1833 48.1269 50.1389 50.1407 51.3886 51.3904L60.1448 60.1466Z" fill="white"/>
</mask>
<g mask="url(#mask10_4835_2961)">
<path d="M60.1448 60.1466C61.3945 61.3963 63.4351 61.4056 64.5508 60.035C66.464 57.6843 68.0294 55.0638 69.1936 52.2532C70.7669 48.4551 71.5766 44.3843 71.5766 40.2732C71.5766 36.1622 70.7669 32.0914 69.1936 28.2932C68.0294 25.4826 66.464 22.8621 64.5508 20.5115C63.4351 19.1408 61.3945 19.1502 60.1448 20.3998L51.3886 29.156C50.1389 30.4057 50.1833 32.4195 51.0765 33.9445C51.3653 34.4376 51.6206 34.951 51.8403 35.4812C52.4696 37.0005 52.7934 38.6288 52.7934 40.2732C52.7934 41.9176 52.4696 43.5459 51.8403 45.0652C51.6206 45.5954 51.3653 46.1088 51.0765 46.6019C50.1833 48.1269 50.1389 50.1407 51.3886 51.3904L60.1448 60.1466Z" fill="#5EC255" stroke="#060606" stroke-width="2.4"/>
</g>
<mask id="mask11_4835_2961" style="mask-type:alpha" maskUnits="userSpaceOnUse" x="50" y="19" width="22" height="43">
<mask id="mask12_4835_2961" style="mask-type:alpha" maskUnits="userSpaceOnUse" x="50" y="19" width="22" height="43">
<path d="M60.1448 60.1466C61.3945 61.3963 63.4351 61.4056 64.5508 60.035C66.464 57.6843 68.0294 55.0638 69.1936 52.2532C70.7669 48.4551 71.5766 44.3843 71.5766 40.2732C71.5766 36.1622 70.7669 32.0914 69.1936 28.2932C68.0294 25.4826 66.464 22.8621 64.5508 20.5115C63.4351 19.1408 61.3945 19.1502 60.1448 20.3998L51.3886 29.156C50.1389 30.4057 50.1833 32.4195 51.0765 33.9445C51.3653 34.4376 51.6206 34.951 51.8403 35.4812C52.4696 37.0005 52.7934 38.6288 52.7934 40.2732C52.7934 41.9176 52.4696 43.5459 51.8403 45.0652C51.6206 45.5954 51.3653 46.1088 51.0765 46.6019C50.1833 48.1269 50.1389 50.1407 51.3886 51.3904L60.1448 60.1466Z" fill="white"/>
</mask>
<g mask="url(#mask12_4835_2961)">
<path d="M60.1448 60.1466C61.3945 61.3963 63.4351 61.4056 64.5508 60.035C66.464 57.6843 68.0294 55.0638 69.1936 52.2532C70.7669 48.4551 71.5766 44.3843 71.5766 40.2732C71.5766 36.1622 70.7669 32.0914 69.1936 28.2932C68.0294 25.4826 66.464 22.8621 64.5508 20.5115C63.4351 19.1408 61.3945 19.1502 60.1448 20.3998L51.3886 29.156C50.1389 30.4057 50.1833 32.4195 51.0765 33.9445C51.3653 34.4376 51.6206 34.951 51.8403 35.4812C52.4696 37.0005 52.7934 38.6288 52.7934 40.2732C52.7934 41.9176 52.4696 43.5459 51.8403 45.0652C51.6206 45.5954 51.3653 46.1088 51.0765 46.6019C50.1833 48.1269 50.1389 50.1407 51.3886 51.3904L60.1448 60.1466Z" fill="#B0F127" stroke="#060606" stroke-width="2.4"/>
</g>
</mask>
<g mask="url(#mask11_4835_2961)">
<path d="M40.2664 64.1645C27.1824 64.1645 16.5758 53.5578 16.5758 40.4738C16.5758 27.3899 27.1824 16.7832 40.2664 16.7832C53.3504 16.7832 63.957 27.3899 63.957 40.4738C63.957 53.5578 53.3504 64.1645 40.2664 64.1645Z" fill="#74EB69"/>
</g>
<mask id="mask13_4835_2961" style="mask-type:luminance" maskUnits="userSpaceOnUse" x="50" y="19" width="22" height="43">
<path d="M60.1448 60.1456C61.3945 61.3953 63.4351 61.4046 64.5508 60.034C66.464 57.6833 68.0294 55.0628 69.1936 52.2522C70.7669 48.4541 71.5766 44.3833 71.5766 40.2722C71.5766 36.1612 70.7669 32.0904 69.1936 28.2923C68.0294 25.4817 66.464 22.8612 64.5508 20.5105C63.4351 19.1398 61.3945 19.1492 60.1448 20.3989L51.3886 29.1551C50.1389 30.4048 50.1833 32.4186 51.0765 33.9436C51.3653 34.4366 51.6206 34.95 51.8403 35.4803C52.4696 36.9995 52.7934 38.6278 52.7934 40.2722C52.7934 41.9167 52.4696 43.545 51.8403 45.0642C51.6206 45.5945 51.3653 46.1078 51.0765 46.6009C50.1833 48.1259 50.1389 50.1397 51.3886 51.3894L60.1448 60.1456Z" fill="white"/>
</mask>
<g mask="url(#mask13_4835_2961)">
<path d="M60.1448 60.1456C61.3945 61.3953 63.4351 61.4046 64.5508 60.034C66.464 57.6833 68.0294 55.0628 69.1936 52.2522C70.7669 48.4541 71.5766 44.3833 71.5766 40.2722C71.5766 36.1612 70.7669 32.0904 69.1936 28.2923C68.0294 25.4817 66.464 22.8612 64.5508 20.5105C63.4351 19.1398 61.3945 19.1492 60.1448 20.3989L51.3886 29.1551C50.1389 30.4048 50.1833 32.4186 51.0765 33.9436C51.3653 34.4366 51.6206 34.95 51.8403 35.4803C52.4696 36.9995 52.7934 38.6278 52.7934 40.2722C52.7934 41.9167 52.4696 43.545 51.8403 45.0642C51.6206 45.5945 51.3653 46.1078 51.0765 46.6009C50.1833 48.1259 50.1389 50.1397 51.3886 51.3894L60.1448 60.1456Z" stroke="#060606" stroke-width="2.4"/>
</g>
</g>
</g>
<defs>
<clipPath id="clip0_4835_2961">
<rect width="80" height="80" fill="white"/>
</clipPath>
</defs>
</svg>