<svg width="31" height="29" viewBox="0 0 31 29" fill="none" xmlns="http://www.w3.org/2000/svg">
<path d="M17.3706 5.7447C17.7797 5.33566 17.7797 4.64413 17.3706 4.2044L13.8491 0.681624C13.4401 0.272589 12.7485 0.272589 12.3088 0.681624C11.8998 1.09066 11.8998 1.7822 12.3088 2.22192L14.0063 3.91945L9.22702 3.92067C6.5542 3.92067 4.38513 6.08987 4.38513 8.76256V14.7371C4.38513 15.3341 4.85681 15.8057 5.45376 15.8057C6.05071 15.8057 6.52238 15.3341 6.52238 14.7371V8.76256C6.52238 7.2849 7.71754 6.08975 9.1952 6.08975H13.9745L12.277 7.78727C11.868 8.1963 11.868 8.88784 12.277 9.32757C12.4969 9.54744 12.7806 9.64202 13.0312 9.64202C13.3137 9.64202 13.5974 9.54744 13.7853 9.32757L17.3706 5.7447Z" fill="#015BBB" fill-opacity="0.3"/>
<path d="M25.5142 12.4733C24.9172 12.4733 24.4456 12.945 24.4456 13.5419V19.5165C24.4456 20.9941 23.2504 22.1893 21.7727 22.1893L16.9614 22.1905L18.6589 20.493C19.0679 20.0839 19.0679 19.3924 18.6589 18.9527C18.2498 18.5436 17.5583 18.5436 17.1186 18.9527L13.5971 22.5358C13.188 22.9449 13.188 23.6364 13.5971 24.0761L17.1507 27.6297C17.3705 27.8496 17.6543 27.9442 17.9048 27.9442C18.1873 27.9442 18.4711 27.8496 18.659 27.6297C19.068 27.2207 19.068 26.5292 18.659 26.0894L16.9615 24.3919H21.7408C24.4136 24.3919 26.5827 22.2227 26.5827 19.55V13.5755C26.5839 12.9773 26.1122 12.4737 25.5141 12.4737L25.5142 12.4733Z" fill="#015BBB" fill-opacity="0.3"/>
<path d="M8.47141 18.3853H2.4343C1.39637 18.3853 0.547607 19.234 0.547607 20.2719V26.3411C0.547607 27.3791 1.39637 28.2278 2.4343 28.2278H8.50349C9.54142 28.2278 10.3902 27.3791 10.3902 26.3411V20.2719C10.3582 19.234 9.50935 18.3853 8.47141 18.3853ZM8.15697 26.0267H2.74875V20.5864H8.18904V26.0267H8.15697Z" fill="#015BBB" fill-opacity="0.3"/>
<path d="M28.5335 0.0845642H22.4964C21.4585 0.0845642 20.6097 0.933326 20.6097 1.97126V8.04045C20.6097 9.07838 21.4585 9.92714 22.4964 9.92714H28.5656C29.6036 9.92714 30.4523 9.07838 30.4523 8.04045V1.9395C30.4204 0.901566 29.5715 0.0845642 28.5335 0.0845642Z" fill="#015BBB" fill-opacity="0.3"/>
</svg>
