<svg width="691" height="371" viewBox="0 0 691 371" fill="none" xmlns="http://www.w3.org/2000/svg">
<ellipse cx="345.548" cy="317.209" rx="344.82" ry="53.3465" fill="#1F2027"/>
<path d="M345.549 264.63C440.741 264.63 526.905 270.599 589.256 280.245C620.437 285.069 645.629 290.808 663.008 297.165C671.701 300.345 678.395 303.663 682.9 307.069C687.423 310.489 689.601 313.886 689.601 317.209C689.601 320.532 687.423 323.928 682.9 327.348C678.395 330.754 671.701 334.073 663.008 337.253C645.629 343.61 620.437 349.348 589.256 354.172C526.905 363.818 440.741 369.788 345.549 369.788C250.356 369.788 164.192 363.818 101.842 354.172C70.6602 349.348 45.4686 343.61 28.0896 337.253C19.3958 334.073 12.7027 330.754 8.19702 327.348C3.67427 323.928 1.49593 320.532 1.49585 317.209C1.49585 313.886 3.67418 310.489 8.19702 307.069C12.7026 303.663 19.396 300.345 28.0896 297.165C45.4686 290.808 70.6602 285.069 101.842 280.245C164.192 270.599 250.356 264.63 345.549 264.63Z" stroke="#067FCF" stroke-opacity="0.29" stroke-width="1.5348"/>
<ellipse cx="345.548" cy="264.721" rx="344.82" ry="53.3465" fill="#1F2027"/>
<path d="M345.549 212.142C440.741 212.142 526.905 218.111 589.256 227.757C620.437 232.581 645.629 238.32 663.008 244.677C671.701 247.857 678.395 251.175 682.9 254.581C687.423 258.001 689.601 261.398 689.601 264.721C689.601 268.043 687.423 271.44 682.9 274.859C678.395 278.266 671.701 281.585 663.008 284.765C645.629 291.121 620.437 296.86 589.256 301.684C526.905 311.33 440.741 317.3 345.549 317.3C250.356 317.3 164.192 311.33 101.842 301.684C70.6602 296.86 45.4686 291.121 28.0896 284.765C19.3958 281.585 12.7027 278.266 8.19702 274.859C3.67427 271.44 1.49593 268.043 1.49585 264.721C1.49585 261.398 3.67418 258.001 8.19702 254.581C12.7026 251.175 19.396 247.857 28.0896 244.677C45.4686 238.32 70.6602 232.581 101.842 227.757C164.192 218.111 250.356 212.142 345.549 212.142Z" stroke="#067FCF" stroke-opacity="0.29" stroke-width="1.5348"/>
<ellipse cx="345.548" cy="212.232" rx="344.82" ry="53.3465" fill="#1F2027"/>
<path d="M345.549 159.653C440.741 159.653 526.905 165.622 589.256 175.268C620.437 180.092 645.629 185.832 663.008 192.188C671.701 195.368 678.395 198.686 682.9 202.093C687.423 205.512 689.601 208.91 689.601 212.232C689.601 215.555 687.423 218.952 682.9 222.371C678.395 225.777 671.701 229.096 663.008 232.276C645.629 238.633 620.437 244.371 589.256 249.195C526.905 258.841 440.741 264.811 345.549 264.811C250.356 264.811 164.192 258.841 101.842 249.195C70.6602 244.371 45.4686 238.633 28.0896 232.276C19.3958 229.096 12.7027 225.777 8.19702 222.371C3.67427 218.952 1.49593 215.555 1.49585 212.232C1.49585 208.91 3.67418 205.512 8.19702 202.093C12.7026 198.686 19.396 195.368 28.0896 192.188C45.4686 185.832 70.6602 180.092 101.842 175.268C164.192 165.622 250.356 159.653 345.549 159.653Z" stroke="#067FCF" stroke-opacity="0.29" stroke-width="1.5348"/>
<ellipse cx="345.548" cy="158.706" rx="344.82" ry="53.3465" fill="#1F2027"/>
<path d="M345.549 106.127C440.741 106.127 526.905 112.096 589.256 121.742C620.437 126.566 645.629 132.305 663.008 138.662C671.701 141.842 678.395 145.16 682.9 148.566C687.423 151.985 689.601 155.383 689.601 158.706C689.601 162.028 687.423 165.425 682.9 168.844C678.395 172.251 671.701 175.57 663.008 178.75C645.629 185.106 620.437 190.845 589.256 195.669C526.905 205.315 440.741 211.285 345.549 211.285C250.356 211.285 164.192 205.315 101.842 195.669C70.6602 190.845 45.4686 185.106 28.0896 178.75C19.3958 175.57 12.7027 172.251 8.19702 168.844C3.67427 165.425 1.49593 162.028 1.49585 158.706C1.49585 155.383 3.67418 151.985 8.19702 148.566C12.7026 145.16 19.396 141.842 28.0896 138.662C45.4686 132.305 70.6602 126.566 101.842 121.742C164.192 112.096 250.356 106.127 345.549 106.127Z" stroke="#067FCF" stroke-opacity="0.29" stroke-width="1.5348"/>
<ellipse cx="345.548" cy="106.217" rx="344.82" ry="53.3465" fill="#1F2027"/>
<path d="M345.549 53.6382C440.741 53.6382 526.905 59.6073 589.256 69.2534C620.437 74.0774 645.629 79.8166 663.008 86.1733C671.701 89.3532 678.395 92.6713 682.9 96.0776C687.423 99.4971 689.601 102.895 689.601 106.217C689.601 109.54 687.423 112.937 682.9 116.356C678.395 119.762 671.701 123.081 663.008 126.261C645.629 132.618 620.437 138.356 589.256 143.18C526.905 152.826 440.741 158.796 345.549 158.796C250.356 158.796 164.192 152.826 101.842 143.18C70.6602 138.356 45.4686 132.618 28.0896 126.261C19.3958 123.081 12.7027 119.762 8.19702 116.356C3.67427 112.937 1.49593 109.54 1.49585 106.217C1.49585 102.895 3.67418 99.4971 8.19702 96.0776C12.7026 92.6713 19.396 89.3532 28.0896 86.1733C45.4686 79.8166 70.6602 74.0774 101.842 69.2534C164.192 59.6073 250.356 53.6382 345.549 53.6382Z" stroke="#067FCF" stroke-opacity="0.29" stroke-width="1.5348"/>
<ellipse cx="345.548" cy="53.7287" rx="344.82" ry="53.3465" fill="#1F2027"/>
<path d="M345.549 1.14978C440.741 1.14979 526.905 7.11888 589.256 16.765C620.437 21.589 645.629 27.3282 663.008 33.6849C671.701 36.8648 678.395 40.1829 682.9 43.5892C687.423 47.0087 689.601 50.4062 689.601 53.7289C689.601 57.0515 687.423 60.4482 682.9 63.8676C678.395 67.274 671.701 70.5929 663.008 73.7728C645.629 80.1296 620.437 85.8678 589.256 90.6918C526.905 100.338 440.741 106.308 345.549 106.308C250.356 106.308 164.192 100.338 101.842 90.6918C70.6602 85.8678 45.4686 80.1295 28.0896 73.7728C19.3958 70.5929 12.7027 67.274 8.19702 63.8676C3.67427 60.4482 1.49593 57.0515 1.49585 53.7289C1.49585 50.4062 3.67418 47.0087 8.19702 43.5892C12.7026 40.1829 19.396 36.8648 28.0896 33.6849C45.4686 27.3282 70.6602 21.589 101.842 16.765C164.192 7.11891 250.356 1.14978 345.549 1.14978Z" stroke="#067FCF" stroke-opacity="0.29" stroke-width="1.5348"/>
</svg>
