<svg width="21" height="21" viewBox="0 0 21 21" fill="none" xmlns="http://www.w3.org/2000/svg">
<g clip-path="url(#clip0_621_1101)">
<path d="M5.63037 4.50327C3.3732 4.50327 1.56111 6.44601 1.77783 8.74643C1.96725 10.7588 3.73228 12.2444 5.73779 12.2445H6.92041C7.20407 12.2444 7.43382 12.0144 7.43408 11.7308C7.43408 11.447 7.20424 11.2162 6.92041 11.2162H5.73682C4.21447 11.216 2.89429 10.0707 2.79346 8.56967C2.68273 6.9143 3.99797 5.53178 5.62939 5.53159H10.2993C11.8226 5.53159 13.142 6.67768 13.2427 8.17905C13.3534 9.83444 12.0384 11.2162 10.4067 11.2162H9.11768C8.83382 11.2162 8.60303 11.447 8.60303 11.7308C8.60329 12.0144 8.83399 12.2445 9.11768 12.2445H10.2993C12.305 12.2445 14.0709 10.7588 14.2603 8.74643C14.4762 6.44621 12.6645 4.50353 10.4077 4.50327H5.63037Z" fill="white" stroke="white" stroke-width="0.4"/>
<path d="M14.8628 7.85978C14.5791 7.85978 14.3493 8.08977 14.3491 8.37345C14.3491 8.6573 14.5789 8.8881 14.8628 8.8881H16.0454C17.5678 8.88827 18.888 10.0335 18.9888 11.5346C19.0995 13.19 17.7843 14.5725 16.1528 14.5727H11.4829C9.95968 14.5727 8.64034 13.4265 8.53955 11.9252C8.42882 10.2698 9.74385 8.8881 11.3755 8.8881H12.6655C12.9492 8.88784 13.1792 8.65714 13.1792 8.37345C13.179 8.08993 12.949 7.86004 12.6655 7.85978H11.4829C9.47724 7.85978 7.71144 9.34532 7.52295 11.3578L7.5083 11.5727C7.42051 13.7778 9.18922 15.6008 11.3755 15.601H16.0454C18.0511 15.601 19.817 14.1154 20.0063 12.1029C20.2223 9.80273 18.4106 7.86004 16.1538 7.85978H14.8628Z" fill="white" stroke="white" stroke-width="0.4"/>
</g>
<defs>
<clipPath id="clip0_621_1101">
<rect width="20.0856" height="20.0856" fill="white" transform="matrix(-1 0 0 1 20.9341 0.00925064)"/>
</clipPath>
</defs>
</svg>
