<svg width="18" height="18" viewBox="0 0 18 18" fill="none" xmlns="http://www.w3.org/2000/svg">
<path fill-rule="evenodd" clip-rule="evenodd" d="M0.00195312 5.72404C0.00195312 5.29141 0.35232 4.94104 0.784952 4.94104H11.7542C12.1868 4.94104 12.5372 5.29141 12.5372 5.72404V16.6933C12.5372 17.1259 12.1868 17.4763 11.7542 17.4763H0.784952C0.35232 17.4763 0.00195312 17.1259 0.00195312 16.6933V5.72404ZM1.56867 6.50777V15.9096H10.9704V6.50777H1.56867Z" fill="#474747"/>
<path fill-rule="evenodd" clip-rule="evenodd" d="M4.70117 1.02336C4.70117 0.590723 5.05154 0.240356 5.48417 0.240356H16.4534C16.886 0.240356 17.2364 0.590723 17.2364 1.02336V11.9926C17.2364 12.4252 16.886 12.7756 16.4534 12.7756H14.103V11.2089H15.6697V1.80711H6.2679V3.37382H4.70119L4.70117 1.02336Z" fill="#474747"/>
</svg>
