<svg width="25" height="21" viewBox="0 0 25 21" fill="none" xmlns="http://www.w3.org/2000/svg">
<g clip-path="url(#clip0_605_676)">
<path fill-rule="evenodd" clip-rule="evenodd" d="M5.86918 0.858276H19.7123C20.0489 0.858276 20.346 1.03651 20.5044 1.31377L24.5445 8.32441C24.7623 8.68089 24.6831 9.15619 24.386 9.43344L13.2958 20.4049C12.9393 20.7614 12.365 20.7614 12.0085 20.4049L0.937968 9.43344C0.640907 9.13638 0.581493 8.66108 0.799338 8.28481L5.11663 1.25436C5.25526 1.01671 5.55232 0.858276 5.86918 0.858276ZM17.9101 3.98732V5.94793H13.9691V7.31441C16.7417 7.45304 18.8211 8.06696 18.8211 8.77991V10.285C18.8013 10.998 16.7219 11.5921 13.9691 11.7505V15.0974H11.355V11.7505C8.58234 11.6119 6.50291 10.998 6.50291 10.285V8.77991C6.52272 8.06696 8.60215 7.47284 11.355 7.31441V5.94793H7.4139V3.98732H17.9101ZM12.662 10.7207C15.6128 10.7207 18.0883 10.2058 18.6825 9.53246C18.1676 8.95814 16.3258 8.50265 13.9691 8.38383V9.80972C13.5532 9.82952 13.1175 9.84933 12.662 9.84933C12.2065 9.84933 11.7708 9.82952 11.355 9.80972V8.38383C8.99823 8.50265 7.15645 8.95814 6.64154 9.53246C7.25547 10.2058 9.71117 10.7207 12.662 10.7207Z" fill="#039393"/>
<path fill-rule="evenodd" clip-rule="evenodd" d="M17.9101 5.9479V3.9873H7.41392V5.9479H11.355V7.31438C8.60216 7.47282 6.52274 8.06694 6.50293 8.77988V10.285C6.50293 10.998 8.58236 11.6119 11.355 11.7505V15.0974H13.9691V11.7505C16.7219 11.5921 18.8013 10.998 18.8211 10.285V8.77988C18.8211 8.06694 16.7417 7.45301 13.9691 7.31438V5.9479H17.9101ZM18.6825 9.53244C18.0884 10.2058 15.6128 10.7207 12.662 10.7207C9.71119 10.7207 7.25549 10.2058 6.64156 9.53244C7.15647 8.95812 8.99825 8.50263 11.355 8.3838V9.80969C11.7709 9.8295 12.2065 9.8493 12.662 9.8493C13.1175 9.8493 13.5532 9.8295 13.9691 9.80969V8.3838C16.3258 8.50263 18.1676 8.95812 18.6825 9.53244Z" fill="white"/>
</g>
<defs>
<clipPath id="clip0_605_676">
<rect width="24" height="20" fill="white" transform="translate(0.668457 0.858276)"/>
</clipPath>
</defs>
</svg>
