<svg width="20" height="20" viewBox="0 0 20 20" fill="none" xmlns="http://www.w3.org/2000/svg">
<path fill-rule="evenodd" clip-rule="evenodd" d="M11.6668 1.66664C11.6668 1.48345 11.6066 1.30533 11.4953 1.15984C11.3839 1.01435 11.2278 0.909589 11.0509 0.861773C10.8741 0.813957 10.6864 0.825747 10.5169 0.895318C10.3475 0.964888 10.2057 1.08836 10.1134 1.24664L4.28008 11.2466C4.20618 11.3733 4.16701 11.5172 4.16651 11.6638C4.16601 11.8104 4.20421 11.9546 4.27725 12.0817C4.35029 12.2089 4.45558 12.3145 4.5825 12.3879C4.70941 12.4614 4.85346 12.5 5.00008 12.5H8.33342V18.3333C8.33332 18.5165 8.3936 18.6946 8.50492 18.8401C8.61624 18.9856 8.7724 19.0904 8.94924 19.1382C9.12608 19.186 9.31375 19.1742 9.48322 19.1046C9.65269 19.0351 9.79451 18.9116 9.88675 18.7533L15.7201 8.75331C15.794 8.62667 15.8332 8.48277 15.8337 8.33614C15.8342 8.18951 15.796 8.04535 15.7229 7.91821C15.6499 7.79106 15.5446 7.68544 15.4177 7.61201C15.2908 7.53858 15.1467 7.49993 15.0001 7.49998H11.6668V1.66664Z" fill="#FFAF1A"/>
</svg>