<svg width="21" height="22" viewBox="0 0 21 22" fill="none" xmlns="http://www.w3.org/2000/svg">
<g clip-path="url(#clip0_435_1952)">
<path d="M10.5 0.578094C16.2987 0.578094 21 5.27936 21 11.0781C21 16.8768 16.2985 21.5781 10.5 21.5781C4.70148 21.5781 0 16.8781 0 11.0781C0 5.2781 4.70064 0.578094 10.5 0.578094Z" fill="#0094FF"/>
<path fill-rule="evenodd" clip-rule="evenodd" d="M11.3122 5.38045L10.4423 9.77274H14.8895C15.1755 9.77274 15.4201 9.92332 15.55 10.178C15.6799 10.4327 15.6564 10.7193 15.4879 10.9499L10.2185 18.1728C10.0114 18.4572 9.64473 18.5557 9.32231 18.4147C9.00045 18.2736 8.82469 17.9372 8.89298 17.5918L9.76283 13.2001H5.31565C5.02962 13.2001 4.78501 13.0495 4.65515 12.7948C4.52584 12.5402 4.54879 12.2536 4.71728 12.0224L9.98668 4.79944C10.1938 4.51509 10.5604 4.41657 10.8828 4.55763C11.2047 4.69869 11.3805 5.03509 11.3122 5.3799V5.38045Z" fill="white"/>
</g>
<defs>
<clipPath id="clip0_435_1952">
<rect width="21" height="21" fill="white" transform="translate(0 0.578094)"/>
</clipPath>
</defs>
</svg>
