<svg width="506" height="580" viewBox="0 0 506 580" fill="none" xmlns="http://www.w3.org/2000/svg">
<path opacity="0.2" d="M164.558 153.126L14.3926 68.1833L13.6958 146.019L163.861 230.961L164.558 153.126Z" fill="url(#paint0_linear_621_1067)"/>
<path opacity="0.15" d="M52.6488 108.669L97.803 134.242L97.7333 143.58L52.5791 118.006L52.6488 108.669Z" fill="white"/>
<path opacity="0.15" d="M52.5091 127.413L148.671 181.835L148.601 191.312L52.4395 136.89L52.5091 127.413Z" fill="white"/>
<path d="M44.6351 111.526C44.5655 117.937 40.7329 121.003 35.9945 118.285C31.2561 115.637 27.4933 108.251 27.563 101.84C27.6326 95.4292 31.4652 92.3632 36.2036 95.0808C40.942 97.7288 44.7048 105.115 44.6351 111.526Z" fill="#2F80ED"/>
<path opacity="0.2" d="M506.002 501.817L355.906 416.874L355.209 494.709L505.375 579.652L506.002 501.817Z" fill="url(#paint1_linear_621_1067)"/>
<path opacity="0.15" d="M394.162 457.36L439.316 482.933L439.246 492.27L394.092 466.697L394.162 457.36Z" fill="white"/>
<path opacity="0.15" d="M394.022 476.104L490.184 530.526L490.114 540.003L393.953 485.581L394.022 476.104Z" fill="white"/>
<path d="M386.148 460.216C386.079 466.627 382.246 469.693 377.508 466.975C372.769 464.328 369.006 456.941 369.076 450.53C369.146 444.12 372.978 441.054 377.717 443.771C382.455 446.419 386.218 453.805 386.148 460.216Z" fill="#2F80ED"/>
<path opacity="0.1" d="M330.89 3.51817C302.599 9.02308 238.979 16.1307 211.246 0.452148C211.455 111.386 238.631 268.799 327.476 398.617C417.715 370.117 447.33 244.898 449.42 135.288C421.686 119.539 358.833 40.8679 330.89 3.51817Z" fill="url(#paint2_linear_621_1067)"/>
<path opacity="0.3" d="M296.328 26.5133C268.037 32.0182 204.417 39.1258 176.683 23.4473C176.892 134.382 204.068 291.794 292.913 421.612C383.152 393.112 412.767 267.823 414.857 158.283C387.124 142.534 324.27 63.863 296.328 26.5133Z" fill="url(#paint3_linear_621_1067)"/>
<path opacity="0.4" d="M414.928 158.213C387.124 142.465 324.34 63.8629 296.398 26.5132L292.983 421.543C383.152 393.112 412.767 267.823 414.928 158.213Z" fill="url(#paint4_linear_621_1067)"/>
<path opacity="0.1" d="M145.465 236.118L285.318 313.117L285.388 570.036L145.535 493.107L145.465 236.118Z" fill="url(#paint5_linear_621_1067)"/>
<path opacity="0.2" d="M163.583 386.284L269.012 444.329L269.291 536.449L163.862 478.404L163.583 386.284Z" fill="url(#paint6_linear_621_1067)"/>
<path opacity="0.15" d="M165.464 324.963L214.242 351.791V361.268L165.464 334.44V324.963Z" fill="white"/>
<path opacity="0.15" d="M165.673 343.777L214.451 370.605V380.082L165.673 353.254V343.777Z" fill="white"/>
<path opacity="0.15" d="M165.604 361.895L258.142 412.833V422.309L165.604 371.372V361.895Z" fill="white"/>
<path opacity="0.2" d="M145.465 236.118L285.318 313.117L285.457 357.505L145.535 280.575L145.465 236.118Z" fill="url(#paint7_linear_621_1067)"/>
<path opacity="0.2" d="M180.446 277.858C180.446 284.547 176.474 287.822 171.597 285.105C166.719 282.387 162.677 274.792 162.677 268.032C162.677 261.343 166.649 258.068 171.527 260.785C176.474 263.503 180.446 271.168 180.446 277.858Z" fill="white"/>
<path d="M228.527 385.447L228.388 347.261L323.225 399.454L323.365 437.64L228.527 385.447Z" fill="#2F80ED"/>
<path opacity="0.3" d="M120.24 224.202L-87.1343 104.558L-87.0646 212.635L101.984 321.758L120.31 348.864L120.24 224.202Z" fill="url(#paint8_linear_621_1067)"/>
<path opacity="0.15" d="M66.9334 219.743L21.5005 193.542V203.019L66.9334 229.219V219.743Z" fill="white"/>
<path opacity="0.15" d="M66.9335 238.766L-20.6572 188.246V197.723L66.9335 248.243V238.766Z" fill="white"/>
<path opacity="0.15" d="M66.9334 257.72L-39.1929 196.469V205.946L66.9334 267.196V257.72Z" fill="white"/>
<path d="M78.0825 236.118C78.0825 245.037 83.3784 255.281 89.8589 259.043C96.3393 262.806 101.635 258.625 101.635 249.706C101.635 240.787 96.3393 230.543 89.8589 226.78C83.3784 223.018 78.0825 227.199 78.0825 236.118Z" fill="#2D9CDB"/>
<path opacity="0.2" d="M53.4847 335.555C57.6656 337.924 61.0104 343.777 61.0104 348.585V369.838L75.0862 377.922C79.2671 380.291 82.6119 386.144 82.6119 390.952C82.6119 395.76 79.2671 397.711 75.0862 395.342L61.0104 387.259V408.512C61.0104 413.32 57.6656 415.271 53.4847 412.902C49.3037 410.533 45.959 404.68 45.959 399.872V378.618L31.8831 370.466C27.7022 368.096 24.3574 362.243 24.3574 357.435C24.3574 352.627 27.7022 350.676 31.8831 353.045L45.959 361.128V339.875C45.959 335.137 49.3037 333.186 53.4847 335.555Z" fill="url(#paint9_linear_621_1067)"/>
<defs>
<linearGradient id="paint0_linear_621_1067" x1="105.88" y1="119.933" x2="72.3565" y2="179.177" gradientUnits="userSpaceOnUse">
<stop stop-color="white"/>
<stop offset="1" stop-color="white" stop-opacity="0"/>
</linearGradient>
<linearGradient id="paint1_linear_621_1067" x1="447.379" y1="468.629" x2="413.856" y2="527.873" gradientUnits="userSpaceOnUse">
<stop stop-color="white"/>
<stop offset="1" stop-color="white" stop-opacity="0"/>
</linearGradient>
<linearGradient id="paint2_linear_621_1067" x1="148.5" y1="39.3478" x2="342.608" y2="213.074" gradientUnits="userSpaceOnUse">
<stop stop-color="white"/>
<stop offset="1" stop-color="white" stop-opacity="0"/>
</linearGradient>
<linearGradient id="paint3_linear_621_1067" x1="113.944" y1="62.3242" x2="308.052" y2="236.05" gradientUnits="userSpaceOnUse">
<stop stop-color="white"/>
<stop offset="1" stop-color="white" stop-opacity="0"/>
</linearGradient>
<linearGradient id="paint4_linear_621_1067" x1="424.993" y1="199.088" x2="269.281" y2="228.89" gradientUnits="userSpaceOnUse">
<stop stop-color="white"/>
<stop offset="1" stop-color="white" stop-opacity="0"/>
</linearGradient>
<linearGradient id="paint5_linear_621_1067" x1="146.297" y1="336.032" x2="292.955" y2="478.357" gradientUnits="userSpaceOnUse">
<stop stop-color="white"/>
<stop offset="1" stop-color="white" stop-opacity="0"/>
</linearGradient>
<linearGradient id="paint6_linear_621_1067" x1="182.175" y1="388.313" x2="244.993" y2="522.27" gradientUnits="userSpaceOnUse">
<stop stop-color="white"/>
<stop offset="1" stop-color="white" stop-opacity="0"/>
</linearGradient>
<linearGradient id="paint7_linear_621_1067" x1="192.905" y1="235.99" x2="236.664" y2="354.184" gradientUnits="userSpaceOnUse">
<stop stop-color="white"/>
<stop offset="1" stop-color="white" stop-opacity="0"/>
</linearGradient>
<linearGradient id="paint8_linear_621_1067" x1="74.9917" y1="180.925" x2="-32.0759" y2="264.756" gradientUnits="userSpaceOnUse">
<stop stop-color="white"/>
<stop offset="1" stop-color="white" stop-opacity="0"/>
</linearGradient>
<linearGradient id="paint9_linear_621_1067" x1="68.0428" y1="362.749" x2="31.5585" y2="391.541" gradientUnits="userSpaceOnUse">
<stop stop-color="white"/>
<stop offset="1" stop-color="white" stop-opacity="0"/>
</linearGradient>
</defs>
</svg>
