<svg width="1113" height="354" viewBox="0 0 1113 354" fill="none" xmlns="http://www.w3.org/2000/svg">
<g opacity="0.5">
<path d="M556.635 1.38867C710.062 1.38867 848.936 11.0095 949.429 26.5566C999.686 34.3317 1040.29 43.5808 1068.3 53.8262C1082.31 58.9515 1093.1 64.3007 1100.36 69.791C1107.65 75.3023 1111.16 80.7775 1111.16 86.1328C1111.16 91.488 1107.65 96.9625 1100.36 102.474C1093.1 107.964 1082.31 113.313 1068.3 118.438C1040.29 128.684 999.686 137.933 949.429 145.708C848.936 161.255 710.062 170.877 556.635 170.877C403.209 170.877 264.334 161.255 163.84 145.708C113.584 137.933 72.9826 128.684 44.9722 118.438C30.9597 113.313 20.1716 107.964 12.9097 102.474C5.62027 96.9625 2.11005 91.488 2.10986 86.1328C2.10986 80.7774 5.62003 75.3023 12.9097 69.791C20.1716 64.3007 30.9597 58.9515 44.9722 53.8262C72.9826 43.5808 113.584 34.3317 163.84 26.5566C264.334 11.0095 403.209 1.38867 556.635 1.38867Z" stroke="#067FCF" stroke-opacity="0.49" stroke-width="2.47371"/>
<path d="M556.635 92.1008C710.062 92.1008 848.936 101.722 949.429 117.269C999.686 125.044 1040.29 134.293 1068.3 144.538C1082.31 149.664 1093.1 155.013 1100.36 160.503C1107.65 166.014 1111.16 171.49 1111.16 176.845C1111.16 182.2 1107.65 187.675 1100.36 193.186C1093.1 198.676 1082.31 204.025 1068.3 209.151C1040.29 219.396 999.686 228.645 949.429 236.42C848.936 251.967 710.062 261.589 556.635 261.589C403.209 261.589 264.334 251.967 163.84 236.42C113.584 228.645 72.9826 219.396 44.9722 209.151C30.9597 204.025 20.1716 198.676 12.9097 193.186C5.62027 187.675 2.11005 182.2 2.10986 176.845C2.10986 171.49 5.62003 166.014 12.9097 160.503C20.1716 155.013 30.9597 149.664 44.9722 144.538C72.9826 134.293 113.584 125.044 163.84 117.269C264.334 101.722 403.209 92.1008 556.635 92.1008Z" stroke="#067FCF" stroke-opacity="0.49" stroke-width="2.47371"/>
<path d="M556.635 182.813C710.062 182.813 848.936 192.434 949.429 207.981C999.686 215.756 1040.29 225.005 1068.3 235.25C1082.31 240.376 1093.1 245.725 1100.36 251.215C1107.65 256.726 1111.16 262.202 1111.16 267.557C1111.16 272.912 1107.65 278.387 1100.36 283.898C1093.1 289.388 1082.31 294.737 1068.3 299.863C1040.29 310.108 999.686 319.357 949.429 327.132C848.936 342.679 710.062 352.301 556.635 352.301C403.209 352.301 264.334 342.679 163.84 327.132C113.584 319.357 72.9826 310.108 44.9722 299.863C30.9597 294.737 20.1716 289.388 12.9097 283.898C5.62027 278.387 2.11005 272.912 2.10986 267.557C2.10986 262.202 5.62003 256.726 12.9097 251.215C20.1716 245.725 30.9597 240.376 44.9722 235.25C72.9826 225.005 113.584 215.756 163.84 207.981C264.334 192.434 403.209 182.813 556.635 182.813Z" stroke="#067FCF" stroke-opacity="0.49" stroke-width="2.47371"/>
</g>
</svg>
