<svg width="42" height="42" viewBox="0 0 42 42" fill="none" xmlns="http://www.w3.org/2000/svg">
<path fill-rule="evenodd" clip-rule="evenodd" d="M20.8634 3.66457C11.0948 3.66457 3.17435 11.585 3.17435 21.3536C3.17435 31.1222 11.0948 39.0427 20.8634 39.0427C30.632 39.0427 38.5524 31.1222 38.5524 21.3536C38.5524 14.1019 34.1889 7.86665 27.9375 5.1364C27.2133 4.81908 26.8816 3.97289 27.1989 3.24863C27.5162 2.52258 28.3606 2.1909 29.0867 2.50822C36.3435 5.6796 41.4208 12.9221 41.4208 21.3533C41.4208 32.7067 32.2167 41.9108 20.8633 41.9108C9.51001 41.9108 0.305908 32.7067 0.305908 21.3533C0.305908 10 9.51001 0.795898 20.8633 0.795898C21.6558 0.795898 22.2975 1.43947 22.2975 2.2301C22.2975 3.02251 21.6558 3.66457 20.8634 3.66457Z" fill="#2E77DA"/>
<path fill-rule="evenodd" clip-rule="evenodd" d="M20.8635 10.495C18.6386 10.495 16.8352 12.2985 16.8352 14.5251C16.8352 16.7499 18.6387 18.5534 20.8635 18.5534C23.0901 18.5534 24.8935 16.7499 24.8935 14.5251C24.8935 12.2985 23.09 10.495 20.8635 10.495ZM13.9669 14.5251C13.9669 10.7155 17.054 7.62671 20.8635 7.62671C24.6729 7.62671 27.7618 10.7156 27.7618 14.5251C27.7618 18.3347 24.6729 21.4216 20.8635 21.4216C17.054 21.4216 13.9669 18.3345 13.9669 14.5251Z" fill="#2E77DA"/>
<path fill-rule="evenodd" clip-rule="evenodd" d="M20.8634 26.6117C15.3345 26.6117 10.6803 30.3675 9.31635 35.4679C9.11198 36.2334 8.32495 36.6888 7.56126 36.4826C6.79575 36.2782 6.34038 35.493 6.5448 34.7275C8.23536 28.4028 14.0045 23.7432 20.8634 23.7432C27.7223 23.7432 33.4916 28.4024 35.1819 34.7275C35.3863 35.493 34.9309 36.2782 34.1673 36.4826C33.4017 36.6888 32.6147 36.2334 32.4104 35.4679C31.0479 30.3677 26.3923 26.6117 20.8634 26.6117Z" fill="#2E77DA"/>
</svg>
