<svg width="71" height="38" viewBox="0 0 71 38" fill="none" xmlns="http://www.w3.org/2000/svg">
<path d="M70.3016 19.3533C70.2981 24.2291 68.3568 28.9047 64.9084 32.3501C61.4637 35.7984 56.7878 37.7398 51.9116 37.7432C47.5254 37.7605 43.2841 36.1881 39.9635 33.3191C39.198 32.6536 39.1187 31.4916 39.7842 30.726C40.4531 29.9605 41.6117 29.8812 42.3773 30.5467C45.029 32.8329 48.4117 34.0812 51.9119 34.0674C55.812 34.064 59.5533 32.5123 62.3117 29.7537C65.0701 26.995 66.622 23.2536 66.6255 19.3539C66.6186 15.4539 65.0669 11.716 62.3083 8.95765C59.5496 6.1993 55.8117 4.64732 51.912 4.64044C48.012 4.64389 44.2707 6.19559 41.5123 8.95421C38.7538 11.7128 37.2019 15.4542 37.1985 19.354C37.2019 24.3988 35.1295 29.2267 31.4709 32.6986C27.8089 36.171 22.8812 37.9848 17.8429 37.7193C12.805 37.4503 8.09812 35.1228 4.82574 31.2814C1.96711 27.9676 0.401628 23.7296 0.418842 19.3535C0.42229 14.4777 2.36365 9.8021 5.81196 6.35669C9.25674 2.90847 13.9326 0.967019 18.8088 0.963576C23.195 0.946335 27.4363 2.51873 30.7569 5.38769C31.5224 6.05321 31.6017 7.21527 30.9362 7.98079C30.2673 8.74631 29.1087 8.82562 28.3431 8.1601C25.6914 5.87393 22.3087 4.62563 18.8085 4.6394C14.9084 4.64285 11.1671 6.19455 8.4087 8.95317C5.65026 11.7118 4.09837 15.4532 4.09493 19.3529C4.10182 23.253 5.65352 26.9908 8.41214 29.7492C11.1708 32.5075 14.9087 34.0595 18.8084 34.0664C22.7084 34.0629 26.4497 32.5112 29.2081 29.7526C31.9666 26.994 33.5185 23.2526 33.5219 19.3528C33.5185 14.3081 35.5909 9.48009 39.2495 6.0082C42.9115 2.53579 47.8392 0.721984 52.8775 0.987517C57.9154 1.25648 62.6223 3.58406 65.8947 7.42547C68.7533 10.7392 70.3188 14.9772 70.3016 19.3533Z" fill="#2E77DA"/>
</svg>
