<svg width="44" height="49" viewBox="0 0 44 49" fill="none" xmlns="http://www.w3.org/2000/svg">
<path d="M23.2386 46.1257C25.4125 45.4139 30.0247 43.6488 34.0702 40.4141C38.0324 37.2447 41.4678 32.6382 41.4678 26.1952V17.893C41.4678 17.2043 41.2556 16.5735 40.8833 16.0701C40.509 15.5666 39.967 15.1808 39.3092 14.9821L23.1748 10.0959C22.87 10.0033 22.5787 9.95896 22.2913 9.95896C22.0039 9.95896 21.7126 10.0053 21.4078 10.0959L5.2734 14.9821C4.61562 15.1827 4.07355 15.5666 3.69932 16.0701C3.32509 16.5735 3.11483 17.2043 3.11483 17.893V26.1952C3.11483 32.6402 6.54847 37.2466 10.5124 40.4141C14.5575 43.649 19.1677 45.4121 21.344 46.1257C21.6662 46.2318 21.9806 46.2839 22.2931 46.2839C22.6056 46.2839 22.9181 46.2318 23.2422 46.1257H23.2386ZM22.2895 17.015C23.9638 17.015 25.48 17.694 26.5777 18.7916C27.6753 19.8892 28.3543 21.4054 28.3543 23.0798C28.3543 23.7145 28.2521 24.3337 28.063 24.922C27.8682 25.5316 27.5846 26.093 27.2259 26.5945C26.8246 27.1578 26.5295 27.7326 26.3366 28.3325C26.1475 28.9247 26.0549 29.5613 26.0549 30.2596V33.456C26.0549 34.488 25.6305 35.4275 24.9496 36.1123L24.9419 36.12C24.259 36.8009 23.3176 37.2215 22.2875 37.2215C21.2555 37.2215 20.3161 36.7971 19.6313 36.1161L19.6236 36.1084C18.9426 35.4255 18.5221 34.4842 18.5221 33.4541V30.2577C18.5221 29.5593 18.4295 28.9228 18.2405 28.3306C18.0476 27.7307 17.7524 27.1558 17.3512 26.5926C16.9943 26.091 16.7088 25.5297 16.514 24.9201C16.3249 24.3298 16.2227 23.7106 16.2227 23.0779C16.2227 21.4035 16.9017 19.8873 17.9993 18.7897C19.097 17.692 20.6132 17.013 22.2876 17.013L22.2895 17.015ZM24.9747 20.3946C24.2879 19.7079 23.3388 19.2835 22.2895 19.2835C21.242 19.2835 20.2929 19.7079 19.6043 20.3946C18.9175 21.0813 18.4932 22.0304 18.4932 23.0798C18.4932 23.4946 18.5549 23.8842 18.6687 24.2411C18.7864 24.6153 18.9658 24.9664 19.1953 25.2847C19.7335 26.0351 20.1309 26.8145 20.3932 27.642C20.6594 28.4753 20.7925 29.3433 20.7925 30.2616V33.458C20.7925 33.8708 20.9604 34.245 21.2285 34.5151L21.2324 34.5189C21.5024 34.789 21.8747 34.9549 22.2895 34.9549C22.7023 34.9549 23.0765 34.7871 23.3465 34.5189L23.3504 34.5151C23.6205 34.245 23.7864 33.8727 23.7864 33.458V30.2616C23.7864 29.3433 23.9175 28.4772 24.1857 27.642C24.4499 26.8144 24.8473 26.0351 25.3836 25.2847C25.6112 24.9645 25.7906 24.6134 25.9102 24.2411C26.024 23.8842 26.0858 23.4946 26.0858 23.0798C26.0858 22.0324 25.6614 21.0833 24.9747 20.3946ZM41.4661 13.5314V10.3601C41.4661 9.67143 41.2539 9.04061 40.8816 8.53715C40.5073 8.03369 39.9653 7.64786 39.3075 7.4492L23.1731 2.56301C22.8683 2.47041 22.5771 2.42605 22.2896 2.42605C22.0022 2.42605 21.7109 2.47235 21.4061 2.56301L5.27172 7.4492C4.61394 7.64982 4.07187 8.03369 3.69764 8.53715C3.32342 9.04061 3.11315 9.67143 3.11315 10.3601V13.5314C3.56261 13.2208 4.06802 12.9758 4.6178 12.808L20.7522 7.92184C21.273 7.76559 21.7784 7.6865 22.2915 7.6865C22.8027 7.6865 23.3101 7.76559 23.8309 7.92184L39.9653 12.808C40.5151 12.9759 41.0185 13.2208 41.4699 13.5314H41.4661ZM35.4784 42.1754C31.1381 45.6457 26.2423 47.5226 23.9371 48.2767C23.3796 48.458 22.8356 48.5506 22.2878 48.5506C21.7419 48.5506 21.196 48.458 20.6385 48.2767C18.3333 47.5225 13.4375 45.6455 9.09727 42.1754C4.67404 38.6395 0.840942 33.4737 0.840942 26.1937V10.3605C0.840942 9.17997 1.2171 8.08234 1.87877 7.1892C2.54041 6.29798 3.48179 5.61897 4.61414 5.27754L20.7485 0.391345C21.2694 0.235093 21.7747 0.156006 22.2879 0.156006C22.7991 0.156006 23.3064 0.235098 23.8272 0.391345L39.9616 5.27754C41.092 5.61897 42.0334 6.29798 42.697 7.1892C43.3586 8.08041 43.7348 9.17799 43.7348 10.3605V26.1937C43.7348 33.4737 39.9018 38.6396 35.4784 42.1754Z" fill="#2E77DA"/>
</svg>
