<svg width="16" height="20" viewBox="0 0 16 20" fill="none" xmlns="http://www.w3.org/2000/svg">
<path d="M2.45286 0.377563H10.5388C11.1245 0.377563 11.6569 0.617053 12.0428 1.0022C12.428 1.38736 12.6674 1.92046 12.6674 2.5062V3.25362H13.5521C14.1379 3.25362 14.6702 3.49311 15.0561 3.87826C15.4413 4.26342 15.6808 4.79652 15.6808 5.38226V17.38C15.6808 17.9665 15.4413 18.4988 15.0561 18.884C14.6702 19.2699 14.1379 19.5086 13.5521 19.5086H5.4662C4.88046 19.5086 4.3481 19.2691 3.96219 18.884C3.57703 18.4988 3.33756 17.9665 3.33756 17.38V16.6326H2.45286C1.86712 16.6326 1.33476 16.3931 0.948852 16.0079C0.563689 15.6228 0.324219 15.0904 0.324219 14.5039V2.5062C0.324219 1.92046 0.563708 1.38734 0.948852 1.0022C1.33478 0.616272 1.86712 0.377563 2.45286 0.377563ZM12.6674 4.15129V14.5046C12.6674 15.0911 12.4279 15.6235 12.0427 16.0086C11.6568 16.3938 11.1245 16.6333 10.5387 16.6333H4.2352V17.3807C4.2352 17.7193 4.37401 18.0275 4.59748 18.2509C4.82096 18.4744 5.12908 18.6132 5.46694 18.6132H13.5529C13.8915 18.6132 14.1996 18.4744 14.4223 18.2509C14.6458 18.0275 14.7846 17.7193 14.7846 17.3807V5.38299C14.7846 5.04435 14.6458 4.73623 14.4223 4.51353C14.1989 4.29007 13.8907 4.15125 13.5529 4.15125L12.6674 4.15129ZM2.97377 10.8385C2.72591 10.8385 2.52531 10.6379 2.52531 10.39C2.52531 10.1422 2.72589 9.94157 2.97377 9.94157H8.21947C8.46733 9.94157 8.66793 10.1421 8.66793 10.39C8.66793 10.6379 8.46735 10.8385 8.21947 10.8385H2.97377ZM2.97377 7.52008C2.72591 7.52008 2.52531 7.3195 2.52531 7.07162C2.52531 6.82375 2.72589 6.62315 2.97377 6.62315H10.0163C10.2642 6.62315 10.4648 6.82373 10.4648 7.07162C10.4648 7.31948 10.2642 7.52008 10.0163 7.52008H2.97377ZM2.97377 4.20166C2.72591 4.20166 2.52531 4.00109 2.52531 3.7532C2.52531 3.50532 2.72589 3.30474 2.97377 3.30474H10.0163C10.2642 3.30474 10.4648 3.50532 10.4648 3.7532C10.4648 4.00109 10.2642 4.20166 10.0163 4.20166H2.97377ZM10.5372 1.27453H2.45129C2.11266 1.27453 1.80454 1.41334 1.58184 1.63681C1.35838 1.86027 1.21956 2.1684 1.21956 2.50702V14.5047C1.21956 14.8434 1.35837 15.1515 1.58184 15.3742C1.8053 15.5976 2.11344 15.7365 2.45129 15.7365H10.5372C10.8759 15.7365 11.184 15.5977 11.4067 15.3742C11.6302 15.1507 11.769 14.8426 11.769 14.5047V2.50702C11.769 2.16839 11.6302 1.86027 11.4067 1.63681C11.1832 1.41335 10.8751 1.27453 10.5372 1.27453Z" fill="#1DA5FF"/>
</svg>
