<svg width="980" height="560" viewBox="0 0 980 560" fill="none" xmlns="http://www.w3.org/2000/svg">
<path d="M140 0V140M140 140V280M140 140H0M140 140H280M140 280V420M140 280H0M140 280H280M140 420V560M140 420H0M140 420H280M280 0V140M280 140V280M280 140H420M280 280V420M280 280H420M280 420V560M280 420H420M420 0V140M420 140V280M420 140H560M420 280V420M420 280H560M420 420V560M420 420H560M560 420V280M560 420V560M560 420H700M560 280V140M560 280H700M560 140V0M560 140H700M700 0V140M700 140V280M700 140H840M700 280V420M700 280H840M700 420V560M700 420H840M840 0V140M840 140V280M840 140H980M840 280V420M840 280H980M840 420V560M840 420H980" stroke="url(#paint0_radial_4795_6356)"/>
<defs>
<radialGradient id="paint0_radial_4795_6356" cx="0" cy="0" r="1" gradientUnits="userSpaceOnUse" gradientTransform="translate(490 -2.08617e-06) rotate(90) scale(560 560)">
<stop stop-color="#353535"/>
<stop offset="1" stop-color="#353535" stop-opacity="0"/>
</radialGradient>
</defs>
</svg>