<svg width="531" height="709" viewBox="0 0 531 709" fill="none" xmlns="http://www.w3.org/2000/svg">
<path opacity="0.6" d="M349.392 302.957C362.909 319.853 377.919 338.399 388.449 351.366C400.159 316.159 384.52 266.964 367.074 230.186C362.909 253.055 357.093 277.259 349.392 302.957Z" fill="#989898"/>
<path opacity="0.7" d="M267.035 172.661C249.667 189.322 234.107 220.442 245.816 269.086C256.347 268.222 271.278 267.043 284.795 265.786C277.094 231.208 271.278 200.324 267.035 172.661Z" fill="#8C8C8C"/>
<path opacity="0.2" d="M304.441 345.943C207.309 -27.0251 287.231 -58.6951 317.407 -71.426C347.584 -23.8031 427.428 100.048 330.217 360.796L304.441 345.943Z" fill="url(#paint0_linear_599_1174)"/>
<path opacity="0.1" d="M333.046 324.489C235.914 -48.4004 315.758 -80.1491 346.013 -92.88C376.19 -45.257 456.033 78.5942 358.823 339.342L333.046 324.489Z" fill="url(#paint1_linear_599_1174)"/>
<path opacity="0.15" d="M330.217 360.796C427.428 100.048 347.585 -23.8031 317.408 -71.426V353.409L330.217 360.796Z" fill="url(#paint2_linear_599_1174)"/>
<path opacity="0.1" d="M346.328 59.8908C346.328 82.6021 332.968 93.2898 316.465 83.7809C299.962 74.272 286.603 48.1029 286.603 25.3916C286.603 2.68036 299.962 -8.00731 316.465 1.50157C332.968 11.0105 346.328 37.1795 346.328 59.8908Z" fill="white"/>
<path opacity="0.1" d="M340.434 445.197C333.597 434.038 330.296 419.892 327.389 407.476C324.009 393.173 321.18 380.992 314.108 377.928C306.013 374.391 302.398 383.35 297.29 395.767C294.304 403.075 290.768 411.719 285.581 419.657C280.001 413.763 274.107 408.89 267.899 405.354C241.887 390.344 220.198 403.311 215.089 434.274C211.553 431.602 208.017 429.166 204.402 427.044C162.673 402.996 128.881 430.266 128.881 488.105C128.881 545.865 162.673 612.192 204.323 636.239C244.795 659.579 277.88 634.51 279.766 580.207C287.388 594.353 297.526 606.219 308.764 612.663C311.671 614.314 314.501 615.571 317.172 616.357C333.361 651.956 357.487 682.605 384.442 698.165C433.165 726.298 472.694 694.55 472.772 627.28C472.772 560.011 433.244 482.604 384.52 454.47C368.41 445.197 353.4 442.368 340.434 445.197Z" fill="url(#paint3_linear_599_1174)"/>
<path opacity="0.3" d="M418.94 187.907L631.672 310.737L631.751 421.621L437.801 309.636L419.019 315.766L418.94 187.907Z" fill="url(#paint4_linear_599_1174)"/>
<path opacity="0.1" d="M473.637 246.453L520.238 273.33V283.074L473.637 256.198V246.453Z" fill="white"/>
<path opacity="0.1" d="M473.715 265.943L557.802 314.509V324.253L473.715 275.687V265.943Z" fill="white"/>
<path opacity="0.15" d="M473.715 285.432L582.556 348.301V358.045L473.715 295.177V285.432Z" fill="white"/>
<path d="M462.163 249.99C462.163 259.106 456.741 263.428 450.061 259.577C443.381 255.727 437.958 245.196 437.958 236.08C437.958 226.964 443.381 222.642 450.061 226.493C456.819 230.343 462.163 240.874 462.163 249.99Z" fill="#828282"/>
<path opacity="0.3" d="M235.443 31.2856L22.7109 -91.4654L22.7895 19.4191L216.739 131.325L235.521 159.145L235.443 31.2856Z" fill="url(#paint5_linear_599_1174)"/>
<path opacity="0.15" d="M180.747 26.7276L134.146 -0.148743V9.5959L180.747 36.4722V26.7276Z" fill="white"/>
<path opacity="0.15" d="M180.747 46.2169L90.9238 -5.64974V4.0949L180.747 55.9615V46.2169Z" fill="white"/>
<path opacity="0.15" d="M180.747 65.7062L71.9058 2.83752V12.5822L180.747 75.4508V65.7062Z" fill="white"/>
<path opacity="0.7" d="M192.221 43.4664C192.221 52.5823 197.643 63.1128 204.323 66.9635C211.003 70.8142 216.425 66.492 216.425 57.3761C216.425 48.2601 211.003 37.7296 204.323 33.8789C197.643 30.1068 192.221 34.3504 192.221 43.4664Z" fill="#8C8C8C"/>
<path opacity="0.2" d="M207.152 149.636L80.0786 76.3152V142.484L207.152 215.805V149.636Z" fill="url(#paint6_linear_599_1174)"/>
<path opacity="0.15" d="M112.613 110.972L156.15 136.119V144.056L112.613 118.909V110.972Z" fill="white"/>
<path opacity="0.15" d="M112.613 126.924L194.028 173.919V181.935L112.613 134.94V126.924Z" fill="white"/>
<path opacity="0.7" d="M105.933 113.329C105.933 118.752 102.711 121.345 98.7035 119.066C94.6957 116.787 91.4736 110.5 91.4736 104.999C91.4736 99.5766 94.6957 96.9833 98.7035 99.2623C102.633 101.62 105.933 107.907 105.933 113.329Z" fill="#8C8C8C"/>
<path opacity="0.2" d="M584.521 199.616L457.448 126.296V192.465L584.521 265.864V199.616Z" fill="url(#paint7_linear_599_1174)"/>
<path opacity="0.15" d="M489.982 161.031L533.519 186.178V194.115L489.982 168.968V161.031Z" fill="white"/>
<path opacity="0.15" d="M490.061 176.984L571.475 223.978V231.994L490.061 184.999V176.984Z" fill="white"/>
<path d="M483.303 163.388C483.303 168.811 480.081 171.404 476.073 169.125C472.065 166.846 468.843 160.559 468.843 155.058C468.843 149.636 472.065 147.042 476.073 149.321C480.081 151.679 483.303 157.966 483.303 163.388Z" fill="#828282"/>
<defs>
<linearGradient id="paint0_linear_599_1174" x1="430.645" y1="-58.2026" x2="186.36" y2="365.024" gradientUnits="userSpaceOnUse">
<stop stop-color="white"/>
<stop offset="1" stop-color="white" stop-opacity="0"/>
</linearGradient>
<linearGradient id="paint1_linear_599_1174" x1="459.243" y1="-79.6506" x2="214.959" y2="343.575" gradientUnits="userSpaceOnUse">
<stop stop-color="white"/>
<stop offset="1" stop-color="white" stop-opacity="0"/>
</linearGradient>
<linearGradient id="paint2_linear_599_1174" x1="385.091" y1="34.0848" x2="196.514" y2="374.346" gradientUnits="userSpaceOnUse">
<stop stop-color="white" stop-opacity="0"/>
<stop offset="1" stop-color="white"/>
</linearGradient>
<linearGradient id="paint3_linear_599_1174" x1="367.351" y1="444.583" x2="261.839" y2="627.384" gradientUnits="userSpaceOnUse">
<stop stop-color="white"/>
<stop offset="1" stop-color="white" stop-opacity="0"/>
</linearGradient>
<linearGradient id="paint4_linear_599_1174" x1="510.344" y1="191.498" x2="537.849" y2="414.576" gradientUnits="userSpaceOnUse">
<stop stop-color="white"/>
<stop offset="1" stop-color="white" stop-opacity="0"/>
</linearGradient>
<linearGradient id="paint5_linear_599_1174" x1="189.051" y1="-13.115" x2="79.2018" y2="72.8932" gradientUnits="userSpaceOnUse">
<stop stop-color="white"/>
<stop offset="1" stop-color="white" stop-opacity="0"/>
</linearGradient>
<linearGradient id="paint6_linear_599_1174" x1="157.933" y1="121.209" x2="129.276" y2="170.857" gradientUnits="userSpaceOnUse">
<stop stop-color="white"/>
<stop offset="1" stop-color="white" stop-opacity="0"/>
</linearGradient>
<linearGradient id="paint7_linear_599_1174" x1="535.351" y1="171.25" x2="506.694" y2="220.898" gradientUnits="userSpaceOnUse">
<stop stop-color="white"/>
<stop offset="1" stop-color="white" stop-opacity="0"/>
</linearGradient>
</defs>
</svg>
