<svg width="168" height="208" viewBox="0 0 168 208" fill="none" xmlns="http://www.w3.org/2000/svg">
<path opacity="0.1" d="M14.4016 0.148376L167.029 88.2454L167.007 207.187L14.3794 119.09L14.4016 0.148376Z" fill="url(#paint0_linear_599_1219)"/>
<path opacity="0.2" d="M14.4019 0.148376L166.83 88.1344V104.267L14.4019 16.281V0.148376Z" fill="url(#paint1_linear_599_1219)"/>
<path opacity="0.6" d="M0 54.0273L39.455 76.795V87.735L0 64.9673V54.0273Z" fill="#19A3FF"/>
<path opacity="0.6" d="M108.779 115.03L148.234 137.797V148.737L108.779 125.97V115.03Z" fill="#077FD0"/>
<path opacity="0.15" d="M82.9043 129.764L159.906 174.212V207.254L82.9043 162.806V129.764Z" fill="url(#paint2_linear_599_1219)"/>
<path opacity="0.07" d="M90.3604 126.036L167.362 170.484V203.526L90.3604 159.078V126.036Z" fill="url(#paint3_linear_599_1219)"/>
<path opacity="0.15" d="M88.6074 139.772L100.213 146.474V157.414L88.6074 150.712V139.772Z" fill="white"/>
<path opacity="0.15" d="M102.898 148.404L114.504 155.106V166.046L102.898 159.344V148.404Z" fill="white"/>
<path opacity="0.15" d="M117.189 156.504L128.795 163.205V174.145L117.189 167.422V156.504Z" fill="white"/>
<path opacity="0.15" d="M131.479 165.136L143.085 171.838V182.778L131.479 176.076V165.136Z" fill="white"/>
<path opacity="0.15" d="M24.6982 44.8626L112.263 95.4129V99.141L24.6982 48.6128V44.8626Z" fill="white"/>
<path opacity="0.15" d="M24.6982 52.3852L100.257 95.9899V99.7179L24.6982 56.1133V52.3852Z" fill="white"/>
<path opacity="0.15" d="M24.6982 59.8191L88.9846 96.9219V100.65L24.6982 63.5471V59.8191Z" fill="white"/>
<path opacity="0.15" d="M3.61719 80.523L67.726 117.515V150.557L3.61719 113.565V80.523Z" fill="url(#paint4_linear_599_1219)"/>
<path opacity="0.07" d="M11.0732 76.795L75.1821 113.787V146.829L11.0732 109.837V76.795Z" fill="url(#paint5_linear_599_1219)"/>
<path opacity="0.15" d="M7.98877 90.997L58.9164 120.4V124.128L7.98877 94.7472V90.997Z" fill="white"/>
<path opacity="0.15" d="M7.98877 98.5197L48.7752 122.064V125.792L7.98877 102.248V98.5197Z" fill="white"/>
<path opacity="0.2" d="M31.0004 17.79C31.0004 20.2087 29.5802 21.3405 27.8493 20.3419C26.1184 19.3433 24.6982 16.5695 24.6982 14.1729C24.6982 11.7763 26.1184 10.6224 27.8493 11.621C29.5802 12.6195 31.0004 15.3934 31.0004 17.79Z" fill="white"/>
<path opacity="0.3" d="M26.8506 144.832C26.8506 149.225 25.8742 152.044 23.9214 153.264C21.9686 154.485 19.3501 154.152 16.0659 152.243C12.7817 150.357 10.1632 147.672 8.21042 144.188C6.25764 140.726 5.28125 136.776 5.28125 132.383C5.28125 127.989 6.25764 125.171 8.21042 123.95C10.1632 122.73 12.7817 123.063 16.0659 124.971C19.3501 126.879 21.9686 129.542 23.9214 133.026C25.8742 136.488 26.8506 140.416 26.8506 144.832ZM19.9715 140.859C19.9715 138.463 19.6164 136.532 18.8841 135.023C18.1518 133.514 17.2198 132.449 16.0881 131.783C14.912 131.096 13.9578 131.096 13.2255 131.739C12.5376 132.427 12.1825 133.958 12.1825 136.333C12.1825 138.729 12.5376 140.682 13.2255 142.191C13.9578 143.7 14.912 144.787 16.0881 145.453C17.2198 146.119 18.1518 146.119 18.8841 145.453C19.5942 144.787 19.9715 143.234 19.9715 140.859ZM38.7226 139.173L47.1772 144.055L23.3666 179.005L14.912 174.123L38.7226 139.173ZM56.9189 185.862C56.9189 190.256 55.9426 193.074 53.9898 194.295C52.037 195.515 49.4185 195.182 46.1343 193.274C42.8501 191.388 40.2316 188.703 38.2788 185.219C36.326 181.757 35.3496 177.807 35.3496 173.413C35.3496 169.019 36.326 166.201 38.2788 164.981C40.2316 163.76 42.8501 164.093 46.1343 166.001C49.4185 167.888 52.037 170.573 53.9898 174.057C55.9426 177.518 56.9189 181.468 56.9189 185.862ZM50.0398 181.89C50.0398 179.493 49.6848 177.563 48.9525 176.054C48.2202 174.545 47.2882 173.48 46.1565 172.814C44.9804 172.126 44.0262 172.126 43.2939 172.77C42.606 173.458 42.2509 174.989 42.2509 177.363C42.2509 179.76 42.606 181.712 43.2939 183.221C44.0262 184.73 44.9804 185.818 46.1565 186.483C47.2882 187.149 48.2202 187.149 48.9525 186.483C49.6626 185.84 50.0398 184.287 50.0398 181.89Z" fill="url(#paint6_linear_599_1219)"/>
<defs>
<linearGradient id="paint0_linear_599_1219" x1="120.448" y1="73.9988" x2="63.5277" y2="130.807" gradientUnits="userSpaceOnUse">
<stop stop-color="white"/>
<stop offset="1" stop-color="white" stop-opacity="0"/>
</linearGradient>
<linearGradient id="paint1_linear_599_1219" x1="52.221" y1="-12.8277" x2="110.099" y2="85.2126" gradientUnits="userSpaceOnUse">
<stop stop-color="white"/>
<stop offset="1" stop-color="white" stop-opacity="0"/>
</linearGradient>
<linearGradient id="paint2_linear_599_1219" x1="128.555" y1="156.123" x2="115.377" y2="178.954" gradientUnits="userSpaceOnUse">
<stop stop-color="white"/>
<stop offset="1" stop-color="white" stop-opacity="0"/>
</linearGradient>
<linearGradient id="paint3_linear_599_1219" x1="136.018" y1="152.392" x2="122.84" y2="175.223" gradientUnits="userSpaceOnUse">
<stop stop-color="white"/>
<stop offset="1" stop-color="white" stop-opacity="0"/>
</linearGradient>
<linearGradient id="paint4_linear_599_1219" x1="42.8191" y1="103.149" x2="29.6409" y2="125.98" gradientUnits="userSpaceOnUse">
<stop stop-color="white"/>
<stop offset="1" stop-color="white" stop-opacity="0"/>
</linearGradient>
<linearGradient id="paint5_linear_599_1219" x1="50.2812" y1="99.4182" x2="37.1031" y2="122.249" gradientUnits="userSpaceOnUse">
<stop stop-color="white"/>
<stop offset="1" stop-color="white" stop-opacity="0"/>
</linearGradient>
<linearGradient id="paint6_linear_599_1219" x1="43.1498" y1="142.237" x2="11.5317" y2="186.563" gradientUnits="userSpaceOnUse">
<stop stop-color="white"/>
<stop offset="1" stop-color="white" stop-opacity="0"/>
</linearGradient>
</defs>
</svg>
