<svg width="278" height="154" viewBox="0 0 278 154" fill="none" xmlns="http://www.w3.org/2000/svg">
<path d="M0.856442 76.5747C0.856441 55.4738 4.24623 36.3902 9.71093 22.5981C12.4438 15.7008 15.6874 10.1483 19.2666 6.32764C22.845 2.50778 26.7276 0.448729 30.7559 0.448729C34.7841 0.448774 38.6667 2.50775 42.2451 6.32763C45.8242 10.1483 49.0679 15.7008 51.8008 22.5981C57.2655 36.3902 60.6553 55.4738 60.6553 76.5747C60.6552 97.6757 57.2655 116.759 51.8008 130.551C49.0679 137.448 45.8242 143 42.2451 146.821C38.6667 150.641 34.7841 152.7 30.7559 152.7C26.7276 152.7 22.845 150.641 19.2666 146.821C15.6875 143 12.4438 137.448 9.71094 130.551C4.24618 116.759 0.856482 97.6757 0.856442 76.5747Z" stroke="#067FCF" stroke-width="0.872774"/>
<path d="M36.8579 76.5747C36.8579 55.4738 40.2477 36.3902 45.7124 22.5981C48.4453 15.7008 51.6889 10.1483 55.2681 6.32764C58.8465 2.50778 62.7291 0.448729 66.7573 0.448729C70.7855 0.448774 74.6682 2.50775 78.2466 6.32763C81.8257 10.1483 85.0693 15.7008 87.8022 22.5981C93.2669 36.3902 96.6567 55.4738 96.6567 76.5747C96.6567 97.6757 93.267 116.759 87.8022 130.551C85.0694 137.448 81.8256 143 78.2466 146.821C74.6682 150.641 70.7855 152.7 66.7573 152.7C62.7291 152.7 58.8465 150.641 55.2681 146.821C51.689 143 48.4453 137.448 45.7124 130.551C40.2476 116.759 36.8579 97.6757 36.8579 76.5747Z" stroke="#067FCF" stroke-width="0.872774"/>
<path d="M72.8599 76.5747C72.8599 55.4738 76.2496 36.3902 81.7143 22.5981C84.4472 15.7008 87.6909 10.1483 91.27 6.32764C94.8484 2.50778 98.731 0.448729 102.759 0.448729C106.787 0.448774 110.67 2.50775 114.249 6.32763C117.828 10.1483 121.071 15.7008 123.804 22.5981C129.269 36.3902 132.659 55.4738 132.659 76.5747C132.659 97.6757 129.269 116.759 123.804 130.551C121.071 137.448 117.828 143 114.249 146.821C110.67 150.641 106.787 152.7 102.759 152.7C98.731 152.7 94.8485 150.641 91.27 146.821C87.6909 143 84.4472 137.448 81.7144 130.551C76.2496 116.759 72.8599 97.6757 72.8599 76.5747Z" stroke="#067FCF" stroke-width="0.872774"/>
<path d="M108.861 76.5747C108.861 55.4738 112.251 36.3902 117.716 22.5981C120.449 15.7008 123.692 10.1483 127.271 6.32764C130.85 2.50778 134.733 0.448729 138.761 0.448729C142.789 0.448774 146.672 2.50775 150.25 6.32763C153.829 10.1483 157.073 15.7008 159.806 22.5981C165.27 36.3902 168.66 55.4738 168.66 76.5747C168.66 97.6757 165.27 116.759 159.806 130.551C157.073 137.448 153.829 143 150.25 146.821C146.672 150.641 142.789 152.7 138.761 152.7C134.732 152.7 130.85 150.641 127.271 146.821C123.692 143 120.449 137.448 117.716 130.551C112.251 116.759 108.861 97.6757 108.861 76.5747Z" stroke="#067FCF" stroke-width="0.872774"/>
<path d="M144.863 76.5747C144.863 55.4738 148.253 36.3902 153.717 22.5981C156.45 15.7008 159.694 10.1483 163.273 6.32764C166.851 2.50778 170.734 0.448729 174.762 0.448729C178.79 0.448774 182.673 2.50775 186.251 6.32763C189.831 10.1483 193.074 15.7008 195.807 22.5981C201.272 36.3902 204.662 55.4738 204.662 76.5747C204.662 97.6757 201.272 116.759 195.807 130.551C193.074 137.448 189.831 143 186.251 146.821C182.673 150.641 178.79 152.7 174.762 152.7C170.734 152.7 166.851 150.641 163.273 146.821C159.694 143 156.45 137.448 153.717 130.551C148.253 116.759 144.863 97.6757 144.863 76.5747Z" stroke="#067FCF" stroke-width="0.872774"/>
<path d="M180.864 76.5747C180.864 55.4738 184.254 36.3902 189.719 22.5981C192.452 15.7008 195.695 10.1483 199.274 6.32764C202.853 2.50778 206.735 0.448729 210.764 0.448729C214.792 0.448774 218.675 2.50775 222.253 6.32763C225.832 10.1483 229.076 15.7008 231.809 22.5981C237.273 36.3902 240.663 55.4738 240.663 76.5747C240.663 97.6757 237.273 116.759 231.809 130.551C229.076 137.448 225.832 143 222.253 146.821C218.675 150.641 214.792 152.7 210.764 152.7C206.735 152.7 202.853 150.641 199.274 146.821C195.695 143 192.452 137.448 189.719 130.551C184.254 116.759 180.864 97.6757 180.864 76.5747Z" stroke="#067FCF" stroke-width="0.872774"/>
<path d="M216.866 76.5747C216.866 55.4738 220.256 36.3902 225.721 22.5981C228.454 15.7008 231.697 10.1483 235.276 6.32764C238.855 2.50778 242.737 0.448729 246.766 0.448729C250.794 0.448774 254.676 2.50775 258.255 6.32763C261.834 10.1483 265.078 15.7008 267.811 22.5981C273.275 36.3902 276.665 55.4738 276.665 76.5747C276.665 97.6757 273.275 116.759 267.811 130.551C265.078 137.448 261.834 143 258.255 146.821C254.676 150.641 250.794 152.7 246.766 152.7C242.737 152.7 238.855 150.641 235.276 146.821C231.697 143 228.454 137.448 225.721 130.551C220.256 116.759 216.866 97.6757 216.866 76.5747Z" stroke="#067FCF" stroke-width="0.872774"/>
</svg>
