<svg width="182" height="45" viewBox="0 0 182 45" fill="none" xmlns="http://www.w3.org/2000/svg">
<path d="M2.0675 31.1169L7.69995 29.0046L17.8648 32.8322C19.1848 33.3599 20.6372 33.5799 22.0001 33.5799C23.4078 33.5799 24.8154 33.3152 26.1354 32.8322L36.3003 29.0046L41.9327 31.1169C42.8574 31.4693 42.9004 32.3046 42.9004 32.5693C42.9004 32.834 42.8127 33.6693 41.9327 34.0216L25.0376 40.4016C23.1023 41.1493 20.9023 41.1493 18.9652 40.4016L2.07006 34.0216C1.14536 33.6693 1.10241 32.834 1.10241 32.5693C1.10069 32.3046 1.18834 31.4676 2.06834 31.1169H2.0675Z" fill="#003CC7"/>
<path d="M2.0675 20.5996L7.69995 18.4873L17.8648 22.3149C19.1848 22.8426 20.6372 23.0626 22.0001 23.0626C23.4078 23.0626 24.8154 22.7979 26.1354 22.3149L36.3003 18.4873L41.9327 20.5996C42.8574 20.952 42.9004 21.7873 42.9004 22.052C42.9004 22.3167 42.8127 23.152 41.9327 23.5043L25.0376 29.8843C23.1023 30.632 20.9023 30.632 18.9652 29.8843L2.07006 23.5043C1.14536 23.152 1.10241 22.3167 1.10241 22.052C1.10069 21.7873 1.18834 20.952 2.06834 20.5996H2.0675Z" fill="#0550FF"/>
<path d="M41.9325 13.0321L25.0356 19.4121C23.1003 20.1597 20.9003 20.1597 18.9632 19.4121L2.06805 13.0321C1.14335 12.6797 1.10041 11.7997 1.10041 11.5797C1.10041 11.315 1.18806 10.4797 2.06805 10.1274L18.9649 3.74735C20.9002 2.99971 23.1002 2.99971 25.0374 3.74735L41.9325 10.1274C42.8572 10.4797 42.9001 11.315 42.9001 11.5797C42.9001 11.7997 42.8125 12.6797 41.9325 13.0321Z" fill="#19A3FF"/>
<path d="M61.796 29.3041C61.026 29.3041 60.27 29.1221 59.528 28.7581C58.786 28.3941 58.177 27.8131 57.701 27.0151L58.793 25.9441C59.185 26.5741 59.64 27.0361 60.158 27.3301C60.69 27.6241 61.222 27.7711 61.754 27.7711C62.748 27.7711 63.469 27.5121 63.917 26.9941C64.379 26.4621 64.61 25.6291 64.61 24.4951V16.7251H58.835V15.2551H66.353V24.6421C66.353 25.2861 66.276 25.8951 66.122 26.4691C65.968 27.0291 65.709 27.5191 65.345 27.9391C64.995 28.3591 64.526 28.6951 63.938 28.9471C63.364 29.1851 62.65 29.3041 61.796 29.3041ZM73.7578 29.3041C72.5258 29.3041 71.6228 28.9611 71.0488 28.2751C70.4888 27.5751 70.2088 26.5461 70.2088 25.1881V18.8461H71.9518V24.9571C71.9518 25.9231 72.1268 26.6441 72.4768 27.1201C72.8408 27.5821 73.4498 27.8131 74.3038 27.8131C74.8918 27.8131 75.4238 27.6661 75.8998 27.3721C76.3758 27.0641 76.9008 26.5811 77.4748 25.9231V18.8461H79.1968V29.0521H77.7898L77.6428 27.2671H77.5588C77.0408 27.8691 76.4738 28.3591 75.8578 28.7371C75.2558 29.1151 74.5558 29.3041 73.7578 29.3041ZM87.6936 29.3041C86.6856 29.3041 85.7546 29.1501 84.9006 28.8421C84.0466 28.5201 83.3046 28.1421 82.6746 27.7081L83.4726 26.5741C84.0606 26.9941 84.7046 27.3301 85.4046 27.5821C86.1186 27.8341 86.9516 27.9601 87.9036 27.9601C88.7716 27.9601 89.4156 27.8061 89.8356 27.4981C90.2696 27.1761 90.4866 26.7981 90.4866 26.3641C90.4866 26.1681 90.4516 25.9861 90.3816 25.8181C90.3116 25.6501 90.1576 25.4891 89.9196 25.3351C89.6956 25.1811 89.3736 25.0341 88.9536 24.8941C88.5336 24.7541 87.9806 24.6141 87.2946 24.4741C85.9646 24.1941 84.9636 23.8231 84.2916 23.3611C83.6336 22.8851 83.3046 22.2621 83.3046 21.4921C83.3046 21.0861 83.3956 20.7081 83.5776 20.3581C83.7596 19.9941 84.0256 19.6861 84.3756 19.4341C84.7396 19.1681 85.1806 18.9651 85.6986 18.8251C86.2306 18.6711 86.8466 18.5941 87.5466 18.5941C88.3306 18.5941 89.0866 18.7271 89.8146 18.9931C90.5426 19.2451 91.1586 19.5461 91.6626 19.8961L90.8226 21.0091C90.3466 20.6871 89.8216 20.4281 89.2476 20.2321C88.6736 20.0361 88.0576 19.9381 87.3996 19.9381C86.5316 19.9381 85.9226 20.0851 85.5726 20.3791C85.2226 20.6731 85.0476 21.0161 85.0476 21.4081C85.0476 21.8561 85.2786 22.1991 85.7406 22.4371C86.2026 22.6611 86.9586 22.8851 88.0086 23.1091C88.8626 23.2911 89.5626 23.4871 90.1086 23.6971C90.6546 23.8931 91.0816 24.1171 91.3896 24.3691C91.7116 24.6211 91.9286 24.9011 92.0406 25.2091C92.1666 25.5171 92.2296 25.8671 92.2296 26.2591C92.2296 26.6791 92.1316 27.0711 91.9356 27.4351C91.7396 27.7991 91.4456 28.1211 91.0536 28.4011C90.6756 28.6811 90.1996 28.8981 89.6256 29.0521C89.0656 29.2201 88.4216 29.3041 87.6936 29.3041ZM102.049 29.3041C101.307 29.3041 100.684 29.2061 100.18 29.0101C99.6764 28.8001 99.2704 28.5131 98.9624 28.1491C98.6544 27.7711 98.4304 27.3231 98.2904 26.8051C98.1644 26.2871 98.1014 25.7131 98.1014 25.0831V20.2531H95.2244V18.9511L98.1644 18.8461L98.3954 15.5701H99.8234V18.8461H104.842V20.2531H99.8234V25.1041C99.8234 25.5661 99.8654 25.9721 99.9494 26.3221C100.033 26.6581 100.173 26.9451 100.369 27.1831C100.565 27.4211 100.831 27.6031 101.167 27.7291C101.503 27.8411 101.916 27.8971 102.406 27.8971C102.896 27.8971 103.337 27.8551 103.729 27.7711C104.121 27.6871 104.499 27.5751 104.863 27.4351L105.241 28.6951C104.779 28.8631 104.289 29.0031 103.771 29.1151C103.267 29.2411 102.693 29.3041 102.049 29.3041ZM107.627 31.9921V30.5011H117.707V31.9921H107.627ZM125.217 29.3041C124.293 29.3041 123.376 29.1431 122.466 28.8211C121.57 28.4851 120.751 27.9881 120.009 27.3301L121.794 25.2091C122.312 25.6291 122.879 25.9721 123.495 26.2381C124.111 26.5041 124.755 26.6371 125.427 26.6371C126.099 26.6371 126.589 26.5251 126.897 26.3011C127.205 26.0771 127.359 25.7901 127.359 25.4401C127.359 25.2021 127.31 25.0061 127.212 24.8521C127.114 24.6841 126.974 24.5371 126.792 24.4111C126.61 24.2851 126.386 24.1661 126.12 24.0541C125.854 23.9421 125.56 23.8161 125.238 23.6761L123.474 22.9201C123.096 22.7801 122.725 22.5981 122.361 22.3741C122.011 22.1501 121.703 21.8911 121.437 21.5971C121.171 21.2891 120.954 20.9391 120.786 20.5471C120.632 20.1411 120.555 19.6861 120.555 19.1821C120.555 18.6221 120.674 18.0971 120.912 17.6071C121.164 17.1031 121.507 16.6691 121.941 16.3051C122.389 15.9271 122.921 15.6331 123.537 15.4231C124.153 15.2131 124.832 15.1081 125.574 15.1081C126.414 15.1081 127.226 15.2621 128.01 15.5701C128.794 15.8781 129.501 16.3261 130.131 16.9141L128.556 18.8671C128.08 18.5171 127.604 18.2511 127.128 18.0691C126.652 17.8731 126.078 17.7751 125.406 17.7751C124.888 17.7751 124.468 17.8801 124.146 18.0901C123.838 18.3001 123.684 18.6081 123.684 19.0141C123.684 19.4201 123.887 19.7351 124.293 19.9591C124.713 20.1691 125.259 20.3931 125.931 20.6311L127.59 21.3451C128.5 21.6811 129.214 22.1431 129.732 22.7311C130.264 23.3191 130.53 24.0961 130.53 25.0621C130.53 25.6361 130.411 26.1821 130.173 26.7001C129.935 27.2041 129.592 27.6521 129.144 28.0441C128.696 28.4221 128.143 28.7301 127.485 28.9681C126.827 29.1921 126.071 29.3041 125.217 29.3041ZM136.297 29.0521V17.9641H132.202V15.3601H143.5V17.9641H139.405V29.0521H136.297ZM145.571 29.0521V15.3601H148.7V20.9671H148.763L152.816 15.3601H156.239L152.123 20.7991L156.617 29.0521H153.194L150.275 23.2351L148.7 25.3141V29.0521H145.571ZM162.572 29.0521V21.0511H158.393V18.6361H165.659V29.0521H162.572ZM163.979 16.9981C163.377 16.9981 162.88 16.8301 162.488 16.4941C162.11 16.1581 161.921 15.7031 161.921 15.1291C161.921 14.5551 162.11 14.0931 162.488 13.7431C162.88 13.3791 163.377 13.1971 163.979 13.1971C164.581 13.1971 165.071 13.3791 165.449 13.7431C165.841 14.0931 166.037 14.5551 166.037 15.1291C166.037 15.7031 165.841 16.1581 165.449 16.4941C165.071 16.8301 164.581 16.9981 163.979 16.9981ZM174.072 29.0521V17.9641H169.977V15.3601H181.275V17.9641H177.18V29.0521H174.072Z" fill="white"/>
</svg>
