<svg width="21" height="21" viewBox="0 0 21 21" fill="none" xmlns="http://www.w3.org/2000/svg">
<path d="M10.5 21C16.299 21 21 16.299 21 10.5C21 4.70101 16.299 0 10.5 0C4.70101 0 0 4.70101 0 10.5C0 16.299 4.70101 21 10.5 21Z" fill="#330D84"/>
<path d="M14.3929 6.94155L4.92188 5.19855L9.90609 17.7408L16.8512 9.27911L14.3929 6.94155ZM14.2406 7.70936L15.6896 9.08683L11.7272 9.80411L14.2406 7.70936ZM10.8662 9.66039L6.68981 6.1967L13.5161 7.45277L10.8662 9.66039ZM10.5689 10.2733L9.88772 15.904L6.216 6.66199L10.5689 10.2733ZM11.1989 10.5719L15.5873 9.77786L10.5538 15.9092L11.1989 10.5719Z" fill="white"/>
</svg>
