<svg width="46" height="41" viewBox="0 0 46 41" fill="none" xmlns="http://www.w3.org/2000/svg">
<path d="M36.944 3.9797L36.2886 5.78554L38.0945 6.44085L37.484 8.12118L39.1652 8.73127L39.1195 8.85719L39.2454 8.90289L38.6345 10.5823L40.3157 11.1924L40.1014 11.7809L40.6908 11.9948L40.2485 13.2117L41.4662 13.6536L41.2519 14.2421L41.8413 14.456L41.2317 16.1359L42.9116 16.7455L42.865 16.8718L42.9923 16.918L42.3822 18.597L44.0622 19.2067L43.406 21.0129L45.2118 21.6682L44.384 23.9514L41.2421 25.4212L41.2416 25.4225L36.4423 27.6661L36.4401 27.6661L33.3796 29.0957L30.3199 30.5271L30.3186 30.5288L25.5192 32.7723L25.517 32.7723L22.3929 34.2317L19.2704 35.6924L19.2703 35.6946L14.471 37.9382L14.4684 37.9372L11.3265 39.4049L9.04292 38.5762L9.69824 36.7704L7.8924 36.1151L8.5016 34.4343L6.82299 33.8251L6.8678 33.6996L6.74187 33.6539L7.3506 31.9744L5.67158 31.3644L5.88458 30.7754L5.29648 30.562L5.73749 29.3447L4.52105 28.9032L4.73405 28.3142L4.14595 28.1008L4.75516 26.42L3.07654 25.8109L3.12224 25.685L2.99501 25.6388L3.60463 23.9589L1.92472 23.3493L2.58003 21.5434L0.774195 20.8881L1.59104 18.6392L23.5618 8.36839L23.5623 8.3671L34.695 3.16285L36.944 3.9797Z" fill="url(#paint0_linear_11_29)"/>
<path d="M19.2212 29.1173C18.1724 29.4626 17.1868 29.5219 16.2644 29.2952C15.3421 29.0686 14.5236 28.5716 13.8091 27.8043C13.0945 27.0371 12.5283 26.0201 12.1105 24.7535C11.6914 23.4831 11.5388 22.3367 11.6528 21.3142C11.7706 20.2904 12.1318 19.4213 12.7364 18.7067C13.3447 17.9909 14.1727 17.4585 15.2203 17.1094C16.2679 16.7603 17.2503 16.6916 18.1677 16.9033C19.0838 17.1111 19.896 17.5893 20.6043 18.3378C21.3126 19.0864 21.8756 20.0939 22.2935 21.3605C22.7176 22.6334 22.8739 23.7911 22.7624 24.8336C22.6509 25.8762 22.2941 26.7647 21.692 27.4993C21.0924 28.2289 20.2688 28.7682 19.2212 29.1173ZM18.373 26.5715C18.9137 26.3913 19.2629 25.9621 19.4207 25.2838C19.581 24.6005 19.4572 23.653 19.0494 22.4415C18.7854 21.6492 18.4907 21.0278 18.1654 20.5772C17.84 20.1266 17.4984 19.8274 17.1405 19.6797C16.7813 19.5282 16.4215 19.5125 16.061 19.6326C15.5203 19.8128 15.1705 20.2339 15.0114 20.8959C14.8524 21.558 14.9668 22.4835 15.3546 23.6725C15.6199 24.4811 15.9183 25.12 16.2499 25.5894C16.5802 26.055 16.9256 26.3654 17.286 26.5207C17.6502 26.6747 18.0125 26.6916 18.373 26.5715ZM31.558 22.2534L31.3553 21.6451C31.1927 21.157 31.1477 20.6714 31.2203 20.1883C31.2967 19.704 31.4958 19.2685 31.8175 18.8818C32.1392 18.4951 32.591 18.2048 33.173 18.0109C33.77 17.8119 34.3126 17.7688 34.8007 17.8815C35.2925 17.993 35.7124 18.2202 36.0603 18.5632C36.4082 18.9061 36.6647 19.3254 36.8298 19.8211L37.0325 20.4293C37.1951 20.9175 37.2383 21.4037 37.1618 21.888C37.0892 22.3711 36.8901 22.8066 36.5647 23.1946C36.2392 23.5825 35.7818 23.8747 35.1923 24.0711C34.6028 24.2675 34.0633 24.3075 33.574 24.1911C33.0847 24.0746 32.666 23.8449 32.3182 23.5019C31.974 23.1577 31.7206 22.7415 31.558 22.2534ZM33.3153 20.9921L33.518 21.6004C33.5893 21.8144 33.7126 22.009 33.8878 22.1842C34.0655 22.3545 34.3026 22.3902 34.5993 22.2913C34.9109 22.1875 35.0818 22.0179 35.1118 21.7827C35.1456 21.5461 35.125 21.3152 35.05 21.0899L34.8473 20.4816C34.7722 20.2563 34.6527 20.0542 34.4888 19.8752C34.3249 19.6962 34.0814 19.6605 33.7585 19.7681C33.4619 19.867 33.2942 20.0396 33.2553 20.2862C33.2203 20.5315 33.2403 20.7668 33.3153 20.9921ZM23.3209 17.6642L23.1182 17.0559C22.953 16.5603 22.9087 16.0703 22.9851 15.586C23.0652 15.1004 23.2668 14.6661 23.5897 14.2832C23.9127 13.9003 24.3614 13.6131 24.9359 13.4217C25.5329 13.2227 26.0755 13.1796 26.5635 13.2923C27.0554 13.4038 27.4753 13.631 27.8231 13.974C28.171 14.3169 28.4275 14.7362 28.5927 15.2319L28.7954 15.8401C28.9605 16.3358 29.0043 16.8239 28.9266 17.3045C28.8527 17.7838 28.6518 18.2137 28.3238 18.5941C27.9959 18.9745 27.5371 19.263 26.9476 19.4594C26.3581 19.6558 25.8193 19.6977 25.3312 19.585C24.8431 19.4723 24.4258 19.2463 24.0791 18.9071C23.7363 18.5666 23.4835 18.1523 23.3209 17.6642ZM25.1007 16.3954L25.3034 17.0036C25.3785 17.2289 25.5023 17.4254 25.675 17.5932C25.8477 17.7609 26.0768 17.7972 26.3621 17.7021C26.6738 17.5983 26.8446 17.4287 26.8747 17.1934C26.9085 16.9569 26.8879 16.726 26.8128 16.5007L26.6102 15.8924C26.5351 15.6671 26.4156 15.465 26.2517 15.286C26.0877 15.107 25.8443 15.0713 25.5214 15.1789C25.2248 15.2777 25.062 15.4529 25.0332 15.7045C25.0069 15.9511 25.0294 16.1813 25.1007 16.3954ZM27.1984 26.1089L31.2852 11.9319L32.8847 11.3989L28.7979 25.5759L27.1984 26.1089Z" fill="black"/>
<defs>
<linearGradient id="paint0_linear_11_29" x1="1.39001" y1="24.9706" x2="36.6889" y2="13.6054" gradientUnits="userSpaceOnUse">
<stop stop-color="#92EA01"/>
<stop offset="0.422171" stop-color="#E7FC10"/>
<stop offset="1" stop-color="#92EA01"/>
</linearGradient>
</defs>
</svg>
