<svg width="46" height="46" viewBox="0 0 46 46" fill="none" xmlns="http://www.w3.org/2000/svg">
<rect x="0.263672" y="5.284" width="40.7628" height="40.7628" rx="3.2" transform="rotate(-7.07488 0.263672 5.284)" fill="#26A17B"/>
<path fill-rule="evenodd" clip-rule="evenodd" d="M26.1037 23.3935L26.1034 23.3908C25.9561 23.4201 25.1959 23.561 23.4872 23.7729C22.1229 23.9421 21.1575 24.0207 20.8178 24.0464L20.8183 24.0504C15.5378 24.4708 11.5045 24.0425 11.3688 22.9484C11.2331 21.8543 15.0398 20.455 20.2624 19.5686L20.7054 23.14C21.0515 23.1218 22.0421 23.0579 23.4009 22.8894C25.0313 22.6872 25.8402 22.5183 25.9911 22.4858L25.5484 18.9157C30.8184 18.4994 34.8423 18.9289 34.9776 20.0203C35.1133 21.1144 31.3159 22.5112 26.1037 23.3935ZM25.5023 18.5443L25.1059 15.3483L32.419 14.4413L31.8146 9.56771L11.9028 12.0373L12.5072 16.9109L19.8203 16.0039L20.2165 19.1985C14.307 20.2084 9.98332 21.9407 10.1582 23.3509C10.3331 24.7611 14.9488 25.3833 20.9262 24.9203L22.1964 35.1619L27.482 34.5064L26.2114 24.2621C32.1116 23.2533 36.4246 21.5237 36.2498 20.1149C36.0751 18.706 31.4703 18.0825 25.5023 18.5443Z" fill="white"/>
</svg>