<svg width="23" height="23" viewBox="0 0 23 23" fill="none" xmlns="http://www.w3.org/2000/svg">
<path d="M11.3355 21.1661C16.476 21.1661 20.6432 16.9988 20.6432 11.8584C20.6432 6.7179 16.476 2.55066 11.3355 2.55066C6.19507 2.55066 2.02783 6.7179 2.02783 11.8584C2.02783 16.9988 6.19507 21.1661 11.3355 21.1661Z" fill="#1A5AFF"/>
<path d="M9.65992 13.8615C9.65992 12.9959 9.67853 12.121 9.65061 11.2554C9.6413 10.8551 9.69715 10.4642 9.77161 10.0919C9.85538 9.68236 10.0415 9.30075 10.2928 8.93775C10.572 8.5189 10.9723 8.2769 11.3539 7.99767C11.5214 7.87667 11.7448 7.81152 11.9589 7.78359C13.2526 7.56021 14.5557 7.74636 15.8588 7.68121C15.9798 7.6719 15.9984 7.72775 15.9984 7.83013C15.9984 8.75159 15.9891 9.67305 15.9984 10.5945C15.9984 10.7434 15.924 10.7527 15.8123 10.7527C14.9001 10.7527 13.9786 10.7527 13.0665 10.7434C12.8803 10.7434 12.8245 10.7807 12.8245 10.9762C12.8338 12.9587 12.8245 14.9412 12.8338 16.9331C12.8338 17.1285 12.778 17.1751 12.5918 17.1658C11.689 17.1565 10.7768 17.1565 9.87399 17.1658C9.71576 17.1658 9.66922 17.1285 9.66922 16.961C9.66922 15.9372 9.65992 14.8947 9.65992 13.8615ZM6.58838 9.19836V7.87667C6.58838 7.74636 6.59769 7.68121 6.75592 7.69052C7.66807 7.69982 8.58022 7.69982 9.50169 7.69052C9.63199 7.69052 9.65992 7.72775 9.66922 7.85805C9.69715 8.38859 9.49238 8.83536 9.24107 9.28213C9.01769 9.68236 8.71053 9.98952 8.35684 10.2408C8.16138 10.3804 7.92869 10.4828 7.69599 10.5759C7.40746 10.6969 7.10961 10.7714 6.79315 10.762C6.64422 10.762 6.59769 10.7248 6.59769 10.5666C6.59769 10.1105 6.58838 9.65444 6.58838 9.19836Z" fill="#FEFEFE"/>
</svg>
