<svg width="24" height="21" viewBox="0 0 24 21" fill="none" xmlns="http://www.w3.org/2000/svg">
<g clip-path="url(#clip0_605_580)">
<path fill-rule="evenodd" clip-rule="evenodd" d="M19.2052 1.78109L19.2065 1.78332L23.2362 8.77608L23.2408 8.78396L23.2455 8.79171C23.2603 8.81591 23.2706 8.85346 23.2634 8.90168C23.2559 8.95129 23.2329 8.9908 23.2082 9.01385L23.2007 9.02085L23.1934 9.02807L12.1314 19.9716L12.1287 19.9742C12.0488 20.0542 11.9228 20.0542 11.8429 19.9742L11.8407 19.972L0.80064 9.03075C0.739488 8.9689 0.712817 8.84937 0.770997 8.74332L5.07102 1.74099L5.0752 1.73419L5.07714 1.73086C5.07921 1.72867 5.08796 1.71984 5.1079 1.7093C5.13801 1.6934 5.17802 1.6824 5.22018 1.6824H19.0279C19.1092 1.6824 19.1723 1.7234 19.2052 1.78109ZM0.163262 8.38415C-0.0540269 8.75947 0.00523463 9.23355 0.301538 9.52985L11.3438 20.4733C11.6994 20.8289 12.2722 20.8289 12.6278 20.4733L23.6898 9.52985C23.9861 9.25331 24.0651 8.77922 23.8478 8.42365L19.8181 1.43089C19.66 1.15435 19.3637 0.976562 19.0279 0.976562H5.22018C4.90412 0.976562 4.60782 1.13459 4.46954 1.37163L0.163262 8.38415Z" fill="url(#paint0_linear_605_580)"/>
<path fill-rule="evenodd" clip-rule="evenodd" d="M12.0658 7.55139V8.01603L11.9155 8.01606C10.1825 8.01641 8.61802 8.15613 7.49043 8.38013C6.9254 8.49237 6.47788 8.62428 6.17524 8.76638C6.02352 8.83762 5.91628 8.90773 5.84907 8.97296C5.78206 9.03799 5.76676 9.08585 5.76676 9.11711C5.76676 9.14837 5.78206 9.19623 5.84907 9.26126C5.91628 9.32649 6.02352 9.3966 6.17524 9.46783C6.47788 9.60993 6.9254 9.74185 7.49043 9.85409C8.61802 10.0781 10.1825 10.2178 11.9155 10.2182L11.9374 10.2182V10.2158L12.0878 10.2158C14.0218 10.2162 15.7771 10.3905 17.0528 10.6743C17.6894 10.8159 18.2149 10.9864 18.5848 11.1809C18.7696 11.2781 18.923 11.385 19.0318 11.5033C19.1415 11.6224 19.2132 11.7616 19.2132 11.9176C19.2132 12.0737 19.1415 12.2128 19.0318 12.332C18.923 12.4503 18.7696 12.5572 18.5848 12.6543C18.2149 12.8488 17.6894 13.0194 17.0528 13.161C15.7771 13.4447 14.0218 13.6191 12.0878 13.6195H11.9374V13.1548H12.0878C13.8208 13.1545 15.3853 13.0147 16.5128 12.7908C17.0779 12.6785 17.5254 12.5466 17.828 12.4045C17.9798 12.3333 18.087 12.2631 18.1542 12.1979C18.2212 12.1329 18.2365 12.085 18.2365 12.0538C18.2365 12.0225 18.2212 11.9746 18.1542 11.9096C18.087 11.8444 17.9798 11.7743 17.828 11.703C17.5254 11.5609 17.0779 11.429 16.5128 11.3168C15.3853 11.0928 13.8208 10.9531 12.0878 10.9527H12.0658V10.9551H11.9154C9.98145 10.9547 8.22622 10.7804 6.95048 10.4966C6.31383 10.355 5.78841 10.1844 5.41848 9.98995C5.23367 9.89279 5.08032 9.7859 4.97144 9.66759C4.86182 9.54847 4.79004 9.4093 4.79004 9.25326C4.79004 9.09722 4.86182 8.95805 4.97144 8.83893C5.08032 8.72062 5.23367 8.61373 5.41848 8.51657C5.78841 8.32209 6.31383 8.15148 6.95048 8.00988C8.22622 7.72614 9.98145 7.5518 11.9154 7.55142L12.0658 7.55139ZM11.7651 10.8044C9.16796 10.7917 6.92046 10.4638 5.76644 9.98598C6.94277 10.4729 9.25481 10.8041 11.9151 10.8046C11.8649 10.8046 11.8151 10.8046 11.7651 10.8044ZM12.2382 10.3666C14.32 10.3767 16.1774 10.5895 17.4268 10.9195C16.1474 10.5816 14.2306 10.3667 12.0881 10.3663C12.1383 10.3663 12.1882 10.3663 12.2382 10.3666Z" fill="url(#paint1_linear_605_580)"/>
<mask id="mask0_605_580" style="mask-type:luminance" maskUnits="userSpaceOnUse" x="3" y="6" width="17" height="9">
<path d="M19.79 6.55139H3.79004V14.5514H19.79V6.55139Z" fill="white"/>
<path fill-rule="evenodd" clip-rule="evenodd" d="M12.0658 7.55139V8.01603L11.9155 8.01606C10.1825 8.01641 8.61802 8.15613 7.49043 8.38013C6.9254 8.49237 6.47788 8.62428 6.17524 8.76638C6.02352 8.83762 5.91628 8.90773 5.84907 8.97296C5.78206 9.03799 5.76676 9.08585 5.76676 9.11711C5.76676 9.14837 5.78206 9.19623 5.84907 9.26126C5.91628 9.32649 6.02352 9.3966 6.17524 9.46783C6.47788 9.60993 6.9254 9.74185 7.49043 9.85409C8.61802 10.0781 10.1825 10.2178 11.9155 10.2182L11.9374 10.2182V10.2158L12.0878 10.2158C14.0218 10.2162 15.7771 10.3905 17.0528 10.6743C17.6894 10.8159 18.2149 10.9864 18.5848 11.1809C18.7696 11.2781 18.923 11.385 19.0318 11.5033C19.1415 11.6224 19.2132 11.7616 19.2132 11.9176C19.2132 12.0737 19.1415 12.2128 19.0318 12.332C18.923 12.4503 18.7696 12.5572 18.5848 12.6543C18.2149 12.8488 17.6894 13.0194 17.0528 13.161C15.7771 13.4447 14.0218 13.6191 12.0878 13.6195H11.9374V13.1548H12.0878C13.8208 13.1545 15.3853 13.0147 16.5128 12.7908C17.0779 12.6785 17.5254 12.5466 17.828 12.4045C17.9798 12.3333 18.087 12.2631 18.1542 12.1979C18.2212 12.1329 18.2365 12.085 18.2365 12.0538C18.2365 12.0225 18.2212 11.9746 18.1542 11.9096C18.087 11.8444 17.9798 11.7743 17.828 11.703C17.5254 11.5609 17.0779 11.429 16.5128 11.3168C15.3853 11.0928 13.8208 10.9531 12.0878 10.9527H12.0658V10.9551H11.9154C9.98145 10.9547 8.22622 10.7804 6.95048 10.4966C6.31383 10.355 5.78841 10.1844 5.41848 9.98995C5.23367 9.89279 5.08032 9.7859 4.97144 9.66759C4.86182 9.54847 4.79004 9.4093 4.79004 9.25326C4.79004 9.09722 4.86182 8.95805 4.97144 8.83893C5.08032 8.72062 5.23367 8.61373 5.41848 8.51657C5.78841 8.32209 6.31383 8.15148 6.95048 8.00988C8.22622 7.72614 9.98145 7.5518 11.9154 7.55142L12.0658 7.55139ZM11.7651 10.8044C9.16796 10.7917 6.92046 10.4638 5.76644 9.98598C6.94277 10.4729 9.25481 10.8041 11.9151 10.8046C11.8649 10.8046 11.8151 10.8046 11.7651 10.8044ZM12.2382 10.3666C14.32 10.3767 16.1774 10.5895 17.4268 10.9195C16.1474 10.5816 14.2306 10.3667 12.0881 10.3663C12.1383 10.3663 12.1882 10.3663 12.2382 10.3666Z" fill="black"/>
</mask>
<g mask="url(#mask0_605_580)">
<path d="M12.0656 8.01607V8.0681L12.1176 8.06809V8.01607H12.0656ZM12.0656 7.55143H12.1176V7.49939L12.0656 7.4994V7.55143ZM11.9372 10.2182V10.2702L11.9893 10.2702V10.2182H11.9372ZM11.9372 10.2158L11.9373 10.1638L11.8852 10.1638V10.2158H11.9372ZM11.9372 13.6196H11.8852V13.6716H11.9373L11.9372 13.6196ZM11.9372 13.1549V13.1029H11.8852V13.1549H11.9372ZM12.0656 10.9528V10.9008H12.0136V10.9528H12.0656ZM12.0656 10.9552V11.0072H12.1176V10.9552H12.0656ZM5.76622 9.98602L5.78612 9.93795L5.74632 10.0341L5.76622 9.98602ZM11.9149 10.8047V10.8567L11.9669 10.8567V10.8047H11.9149ZM11.9149 10.3685V10.3165H11.8629V10.3685H11.9149ZM11.9149 10.3685H11.9672V10.3165H11.9149V10.3685ZM11.9149 10.8047V10.8567L11.9669 10.8567V10.8047H11.9149ZM11.9152 7.70181H11.9672V7.64978L11.9152 7.64979V7.70181ZM11.9152 7.70181V7.64979L11.8629 7.6498V7.70181H11.9152ZM11.9152 7.86575V7.91777L11.9672 7.91776V7.86575H11.9152ZM6.23295 9.65761L6.21306 9.70568L6.25284 9.60954L6.23295 9.65761ZM11.9152 7.86575V7.91777L11.9672 7.91776V7.86575H11.9152ZM17.4265 10.9196L17.4132 10.9699L17.4397 10.8693L17.4265 10.9196ZM12.0879 10.3663V10.3143L12.0359 10.3143V10.3663H12.0879ZM12.0879 10.8024V10.8545H12.1399V10.8024H12.0879ZM12.0879 10.8024H12.0356V10.8545H12.0879V10.8024ZM12.0879 10.3663V10.3143L12.0359 10.3143V10.3663H12.0879ZM12.0876 13.4692H12.0356V13.5212H12.0876V13.4692ZM12.0876 13.4692V13.5212H12.1399V13.4692H12.0876ZM12.0876 13.3053V13.2532L12.0356 13.2533V13.3053H12.0876ZM17.406 11.3833L17.4215 11.3337L17.3905 11.433L17.406 11.3833ZM12.0876 13.3053V13.2532L12.0356 13.2533V13.3053H12.0876ZM12.1176 8.01607V7.55143H12.0136V8.01607H12.1176ZM11.9153 8.06813L12.0656 8.0681V7.96405L11.9152 7.96408L11.9153 8.06813ZM7.50035 8.43119C8.6237 8.20804 10.1846 8.06847 11.9153 8.06813L11.9152 7.96408C10.1799 7.96442 8.6119 8.1043 7.48008 8.32914L7.50035 8.43119ZM6.19713 8.81351C6.49421 8.67402 6.937 8.5431 7.50035 8.43119L7.48008 8.32914C6.91336 8.44172 6.46111 8.57462 6.15291 8.71933L6.19713 8.81351ZM5.88508 9.01033C5.94651 8.95071 6.04804 8.88351 6.19713 8.81351L6.15291 8.71933C5.99855 8.79181 5.8856 8.86483 5.81262 8.93566L5.88508 9.01033ZM5.81856 9.11715C5.81856 9.10479 5.82407 9.06954 5.88508 9.01033L5.81262 8.93566C5.73961 9.00651 5.71452 9.06698 5.71452 9.11715H5.81856ZM5.88508 9.22397C5.82407 9.16476 5.81856 9.1295 5.81856 9.11715H5.71452C5.71452 9.16731 5.73961 9.22779 5.81262 9.29863L5.88508 9.22397ZM6.19713 9.42078C6.04804 9.35078 5.94651 9.28359 5.88508 9.22397L5.81262 9.29863C5.8856 9.36946 5.99855 9.44249 6.15291 9.51496L6.19713 9.42078ZM7.50035 9.80311C6.937 9.6912 6.49421 9.56027 6.19713 9.42078L6.15291 9.51496C6.46111 9.65968 6.91336 9.79258 7.48008 9.90516L7.50035 9.80311ZM11.9153 10.1662C10.1846 10.1658 8.6237 10.0263 7.50035 9.80311L7.48008 9.90516C8.6119 10.13 10.1799 10.2699 11.9152 10.2702L11.9153 10.1662ZM11.9373 10.1662H11.9153L11.9152 10.2702H11.9372L11.9373 10.1662ZM11.8852 10.2158V10.2182H11.9893V10.2158H11.8852ZM12.0876 10.1638L11.9373 10.1638L11.9372 10.2678L12.0876 10.2679V10.1638ZM17.0639 10.6235C15.7835 10.3387 14.0243 10.1642 12.0876 10.1638V10.2679C14.019 10.2683 15.7703 10.4424 17.0413 10.7251L17.0639 10.6235ZM18.6088 11.135C18.233 10.9374 17.7025 10.7656 17.0639 10.6235L17.0413 10.7251C17.676 10.8663 18.1963 11.0357 18.5604 11.2271L18.6088 11.135ZM19.0699 11.4682C18.9555 11.3439 18.7965 11.2337 18.6088 11.135L18.5604 11.2271C18.7423 11.3227 18.89 11.4263 18.9934 11.5386L19.0699 11.4682ZM19.2651 11.9177C19.2651 11.7447 19.1853 11.5935 19.0699 11.4682L18.9934 11.5386C19.0972 11.6515 19.161 11.7787 19.161 11.9177H19.2651ZM19.0699 12.3673C19.1853 12.2419 19.2651 12.0907 19.2651 11.9177H19.161C19.161 12.0568 19.0972 12.184 18.9934 12.2968L19.0699 12.3673ZM18.6088 12.7005C18.7965 12.6018 18.9555 12.4916 19.0699 12.3673L18.9934 12.2968C18.89 12.4091 18.7423 12.5127 18.5604 12.6084L18.6088 12.7005ZM17.0639 13.2119C17.7025 13.0699 18.233 12.898 18.6088 12.7005L18.5604 12.6084C18.1963 12.7998 17.676 12.9691 17.0413 13.1103L17.0639 13.2119ZM12.0876 13.6716C14.0243 13.6712 15.7835 13.4967 17.0639 13.2119L17.0413 13.1103C15.7703 13.393 14.019 13.5672 12.0876 13.5675V13.6716ZM11.9373 13.6716H12.0876V13.5675L11.9372 13.5676L11.9373 13.6716ZM11.8852 13.1549V13.6196H11.9893V13.1549H11.8852ZM12.0876 13.1029H11.9372L11.9373 13.207L12.0876 13.2069V13.1029ZM16.5025 12.7398C15.3792 12.963 13.8182 13.1026 12.0876 13.1029V13.2069C13.8229 13.2066 15.391 13.0667 16.5228 12.8419L16.5025 12.7398ZM17.8057 12.3575C17.5086 12.497 17.0659 12.6279 16.5025 12.7398L16.5228 12.8419C17.0895 12.7293 17.5417 12.5964 17.8499 12.4517L17.8057 12.3575ZM18.1178 12.1607C18.0563 12.2203 17.9548 12.2875 17.8057 12.3575L17.8499 12.4517C18.0043 12.3792 18.1173 12.3062 18.1902 12.2354L18.1178 12.1607ZM18.1843 12.0539C18.1843 12.0662 18.1788 12.1015 18.1178 12.1607L18.1902 12.2354C18.2632 12.1645 18.2883 12.104 18.2883 12.0539H18.1843ZM18.1178 11.9471C18.1788 12.0063 18.1843 12.0415 18.1843 12.0539H18.2883C18.2883 12.0037 18.2632 11.9432 18.1902 11.8724L18.1178 11.9471ZM17.8057 11.7502C17.9548 11.8202 18.0563 11.8874 18.1178 11.9471L18.1902 11.8724C18.1173 11.8016 18.0043 11.7285 17.8499 11.6561L17.8057 11.7502ZM16.5025 11.3679C17.0659 11.4798 17.5086 11.6107 17.8057 11.7502L17.8499 11.6561C17.5417 11.5113 17.0895 11.3784 16.5228 11.2659L16.5025 11.3679ZM12.0876 11.0049C13.8182 11.0052 15.3792 11.1448 16.5025 11.3679L16.5228 11.2659C15.391 11.041 13.8229 10.9011 12.0876 10.9008V11.0049ZM12.0656 11.0048L12.0876 11.0049V10.9008H12.0656V11.0048ZM12.1176 10.9552V10.9528H12.0136V10.9552H12.1176ZM11.9152 11.0072H12.0656V10.9032L11.9152 10.9031V11.0072ZM6.93897 10.5475C8.2194 10.8323 9.97859 11.0068 11.9152 11.0072V10.9031C9.98386 10.9028 8.2326 10.7286 6.96156 10.4459L6.93897 10.5475ZM5.39405 10.036C5.76986 10.2336 6.30039 10.4054 6.93897 10.5475L6.96156 10.4459C6.32684 10.3047 5.80651 10.1353 5.44247 9.94394L5.39405 10.036ZM4.93294 9.70286C5.04734 9.82717 5.20635 9.93736 5.39405 10.036L5.44247 9.94394C5.26055 9.8483 5.11285 9.7447 5.0095 9.6324L4.93294 9.70286ZM4.73779 9.2533C4.73779 9.42632 4.81757 9.57749 4.93294 9.70286L5.0095 9.6324C4.90563 9.51954 4.84184 9.39235 4.84184 9.2533H4.73779ZM4.93294 8.80374C4.81757 8.92911 4.73779 9.08028 4.73779 9.2533H4.84184C4.84184 9.11425 4.90563 8.98706 5.0095 8.8742L4.93294 8.80374ZM5.39405 8.47056C5.20635 8.56924 5.04734 8.67943 4.93294 8.80374L5.0095 8.8742C5.11285 8.7619 5.26055 8.6583 5.44247 8.56266L5.39405 8.47056ZM6.93897 7.95914C6.30039 8.10117 5.76986 8.27299 5.39405 8.47056L5.44247 8.56266C5.80651 8.37127 6.32684 8.20188 6.96156 8.0607L6.93897 7.95914ZM11.9152 7.49943C9.97859 7.49981 8.2194 7.67435 6.93897 7.95914L6.96156 8.0607C8.2326 7.778 9.98386 7.60386 11.9152 7.60348V7.49943ZM12.0656 7.4994L11.9152 7.49943V7.60348L12.0656 7.60345V7.4994ZM5.74632 10.0341C6.90992 10.5158 9.16568 10.8437 11.7646 10.8564L11.7651 10.7524C9.1698 10.7397 6.93057 10.4118 5.78612 9.93795L5.74632 10.0341ZM11.9149 10.7526C9.25643 10.7521 6.95276 10.4208 5.78612 9.93795L5.74632 10.0341C6.93233 10.525 9.25275 10.8562 11.9149 10.8567V10.7526ZM11.8629 10.3685V10.8047H11.9669L11.9672 10.3685H11.8629ZM11.9669 10.8047L11.9672 10.3685H11.8629V10.8047H11.9669ZM11.7646 10.8564C11.8147 10.8567 11.8646 10.8567 11.9149 10.8567V10.7526C11.8648 10.7526 11.815 10.7526 11.7651 10.7524L11.7646 10.8564ZM11.9672 7.86575V7.70181H11.8629L11.8632 7.86575H11.9672ZM5.66821 9.11715C5.66821 9.04987 5.70231 8.97818 5.78036 8.90243C5.85849 8.82662 5.97651 8.75099 6.13322 8.67741C6.44637 8.53038 6.90283 8.3966 7.47105 8.28372C8.60665 8.05813 10.1778 7.91811 11.9152 7.91777V7.81373C10.1731 7.81407 8.59485 7.9544 7.45078 8.18167C6.87917 8.29521 6.41326 8.43098 6.089 8.58323C5.92701 8.65929 5.79757 8.74075 5.7079 8.82776C5.61817 8.91485 5.56416 9.01175 5.56416 9.11715H5.66821ZM6.25284 9.60954C6.05761 9.52875 5.90913 9.44456 5.81032 9.35924C5.71118 9.27364 5.66821 9.19253 5.66821 9.11715H5.56416C5.56416 9.23532 5.6319 9.34265 5.74232 9.43799C5.85305 9.53361 6.01295 9.62287 6.21306 9.70568L6.25284 9.60954ZM5.56416 9.11715C5.56416 9.23532 5.6319 9.34265 5.74232 9.43799C5.85305 9.53361 6.01295 9.62287 6.21306 9.70568L6.25284 9.60954C6.05761 9.52875 5.90913 9.44456 5.81032 9.35924C5.71118 9.27364 5.66821 9.19253 5.66821 9.11715H5.56416ZM11.9152 7.81373C10.1731 7.81407 8.59485 7.9544 7.45078 8.18167C6.87917 8.29521 6.41326 8.43098 6.089 8.58323C5.92701 8.65929 5.79757 8.74075 5.7079 8.82776C5.61817 8.91485 5.56416 9.01175 5.56416 9.11715H5.66821C5.66821 9.04987 5.70231 8.97818 5.78036 8.90243C5.85849 8.82662 5.97651 8.75099 6.13322 8.67741C6.44637 8.53038 6.90283 8.3966 7.47105 8.28372C8.60665 8.05813 10.1778 7.91811 11.9152 7.91777V7.81373ZM11.8629 7.70181L11.8632 7.86575H11.9672V7.70181H11.8629ZM17.4397 10.8693C16.1847 10.5377 14.3227 10.3248 12.2382 10.3146L12.2377 10.4186C14.317 10.4288 16.1695 10.6413 17.4132 10.9699L17.4397 10.8693ZM12.0879 10.4183C14.2277 10.4187 16.1396 10.6334 17.4132 10.9699L17.4397 10.8693C16.1546 10.5298 14.2331 10.3147 12.0879 10.3143V10.4183ZM12.1399 10.8024V10.3663H12.0359L12.0356 10.8024H12.1399ZM12.0359 10.3663L12.0356 10.8024H12.1399V10.3663H12.0359ZM12.2382 10.3146C12.1881 10.3143 12.1382 10.3143 12.0879 10.3143V10.4183C12.1381 10.4183 12.1878 10.4184 12.2377 10.4186L12.2382 10.3146ZM12.0356 13.3053V13.4692H12.1399L12.1396 13.3053H12.0356ZM18.3346 12.0539C18.3346 12.1212 18.3005 12.1928 18.2225 12.2686C18.1444 12.3444 18.0263 12.42 17.8696 12.4936C17.5565 12.6406 17.1 12.7744 16.5318 12.8873C15.3962 13.1129 13.825 13.2529 12.0876 13.2532V13.3573C13.8297 13.357 15.408 13.2166 16.5521 12.9894C17.1237 12.8758 17.5896 12.74 17.9139 12.5878C18.0758 12.5117 18.2053 12.4303 18.2949 12.3433C18.3847 12.2562 18.4387 12.1593 18.4387 12.0539H18.3346ZM17.3905 11.433C17.699 11.5293 17.9387 11.6334 18.1002 11.7419C18.2639 11.8519 18.3346 11.9575 18.3346 12.0539H18.4387C18.4387 11.9035 18.3296 11.7708 18.1582 11.6556C17.9846 11.539 17.734 11.4312 17.4215 11.3337L17.3905 11.433ZM18.4387 12.0539C18.4387 11.9035 18.3296 11.7708 18.1582 11.6556C17.9846 11.539 17.734 11.4312 17.4215 11.3337L17.3905 11.433C17.699 11.5293 17.9387 11.6334 18.1002 11.7419C18.2639 11.8519 18.3346 11.9575 18.3346 12.0539H18.4387ZM12.0876 13.3573C13.8297 13.357 15.408 13.2166 16.5521 12.9894C17.1237 12.8758 17.5896 12.74 17.9139 12.5878C18.0758 12.5117 18.2053 12.4303 18.2949 12.3433C18.3847 12.2562 18.4387 12.1593 18.4387 12.0539H18.3346C18.3346 12.1212 18.3005 12.1928 18.2225 12.2686C18.1444 12.3444 18.0263 12.42 17.8696 12.4936C17.5565 12.6406 17.1 12.7744 16.5318 12.8873C15.3962 13.1129 13.825 13.2529 12.0876 13.2532V13.3573ZM12.1399 13.4692L12.1396 13.3053H12.0356V13.4692H12.1399Z" fill="url(#paint2_linear_605_580)"/>
</g>
<path fill-rule="evenodd" clip-rule="evenodd" d="M13.3263 5.82204V9.38399C13.2101 9.39934 12.7812 9.42614 11.9501 9.42614C11.2264 9.42614 10.6943 9.39667 10.5154 9.38183V5.82204H6.59131V3.21692H17.25V5.82204H13.3263ZM12.1187 10.1596C12.06 10.1598 11.9988 10.16 11.9353 10.16C11.2116 10.16 10.6942 10.1452 10.5154 10.1305V16.0519H13.3263V10.1904C12.9347 10.1726 12.5312 10.1621 12.1187 10.1596Z" fill="url(#paint3_linear_605_580)"/>
</g>
<defs>
<linearGradient id="paint0_linear_605_580" x1="-0.499258" y1="20.7399" x2="24.3307" y2="20.7586" gradientUnits="userSpaceOnUse">
<stop stop-color="#81F7FA"/>
<stop offset="1" stop-color="#7AFF91"/>
</linearGradient>
<linearGradient id="paint1_linear_605_580" x1="4.46952" y1="13.6195" x2="19.4296" y2="13.6416" gradientUnits="userSpaceOnUse">
<stop stop-color="#81F7FA"/>
<stop offset="1" stop-color="#7AFF91"/>
</linearGradient>
<linearGradient id="paint2_linear_605_580" x1="4.4693" y1="13.6196" x2="19.4294" y2="13.6417" gradientUnits="userSpaceOnUse">
<stop stop-color="#81F7FA"/>
<stop offset="1" stop-color="#7AFF91"/>
</linearGradient>
<linearGradient id="paint3_linear_605_580" x1="6.35445" y1="16.0519" x2="17.4098" y2="16.0576" gradientUnits="userSpaceOnUse">
<stop stop-color="#81F7FA"/>
<stop offset="1" stop-color="#7AFF91"/>
</linearGradient>
<clipPath id="clip0_605_580">
<rect width="24" height="20" fill="white" transform="translate(0.00195312 0.858276)"/>
</clipPath>
</defs>
</svg>
