<svg width="28" height="28" viewBox="0 0 28 28" fill="none" xmlns="http://www.w3.org/2000/svg">
<rect x="1" y="1" width="26" height="26" rx="13" fill="#491FE7"/>
<rect x="1" y="1" width="26" height="26" rx="13" stroke="#1F1F1F" stroke-width="2"/>
<path fill-rule="evenodd" clip-rule="evenodd" d="M9.81114 9.63333C8.35839 11.0816 7.11565 12.4051 7.04928 12.5741C6.8666 13.0399 7.13849 13.4316 8.7771 15.0644L10.2467 16.5288V13.7125C10.2467 11.1391 10.2686 10.8691 10.5003 10.5815C10.7537 10.2669 10.7572 10.2667 14.2588 10.2272L17.7637 10.1879L19.3465 8.59387L20.9295 7H16.6909H12.4523L9.81114 9.63333ZM17.6506 14.4675L17.6147 17.4589L17.2828 17.6275C17.042 17.7499 16.0396 17.7967 13.6299 17.798L10.309 17.8L8.72002 19.4L7.13105 21H11.2178C14.4959 21 15.3756 20.9624 15.6632 20.8103C15.8603 20.7059 17.1418 19.4873 18.5108 18.1023C20.6141 15.9745 21 15.5229 21 15.19C21 14.8633 20.7171 14.5125 19.3432 13.136L17.6863 11.4759L17.6506 14.4675Z" fill="white"/>
</svg>